<svg width="21" height="21" viewBox="0 0 21 21" fill="none" xmlns="http://www.w3.org/2000/svg">
<path d="M1.50003 11.5H2.50003V18.5C2.50003 19.603 3.39703 20.5 4.50003 20.5H16.5C17.603 20.5 18.5 19.603 18.5 18.5V11.5H19.5C19.6978 11.4999 19.8911 11.4412 20.0555 11.3314C20.2199 11.2215 20.348 11.0653 20.4237 10.8826C20.4994 10.6999 20.5192 10.4989 20.4806 10.3049C20.442 10.111 20.3468 9.93281 20.207 9.79296L11.207 0.792957C11.1142 0.700011 11.004 0.626273 10.8827 0.575963C10.7614 0.525652 10.6314 0.499756 10.5 0.499756C10.3687 0.499756 10.2387 0.525652 10.1173 0.575963C9.99602 0.626273 9.88582 0.700011 9.79303 0.792957L0.793031 9.79296C0.653222 9.93281 0.558015 10.111 0.519448 10.3049C0.48088 10.4989 0.500683 10.6999 0.576353 10.8826C0.652023 11.0653 0.780163 11.2215 0.944573 11.3314C1.10898 11.4412 1.30228 11.4999 1.50003 11.5ZM8.50003 18.5V13.5H12.5V18.5H8.50003ZM10.5 2.91396L16.5 8.91396V13.5L16.501 18.5H14.5V13.5C14.5 12.397 13.603 11.5 12.5 11.5H8.50003C7.39703 11.5 6.50003 12.397 6.50003 13.5V18.5H4.50003V8.91396L10.5 2.91396Z" fill="#0AA1DD"/>
</svg>