<svg width="10" height="10" viewBox="0 0 10 10" fill="none" xmlns="http://www.w3.org/2000/svg">
<path d="M5 5.4165C5.69036 5.4165 6.25 4.85686 6.25 4.1665C6.25 3.47615 5.69036 2.9165 5 2.9165C4.30964 2.9165 3.75 3.47615 3.75 4.1665C3.75 4.85686 4.30964 5.4165 5 5.4165Z" stroke="#707070" stroke-linecap="round" stroke-linejoin="round"/>
<path d="M4.99999 0.833252C4.11593 0.833252 3.26809 1.18444 2.64297 1.80956C2.01785 2.43468 1.66666 3.28253 1.66666 4.16659C1.66666 4.95492 1.83416 5.47075 2.29166 6.04159L4.99999 9.16659L7.70832 6.04159C8.16582 5.47075 8.33332 4.95492 8.33332 4.16659C8.33332 3.28253 7.98213 2.43468 7.35701 1.80956C6.73189 1.18444 5.88404 0.833252 4.99999 0.833252V0.833252Z" stroke="#707070" stroke-linecap="round" stroke-linejoin="round"/>
</svg>