<svg width="249" height="296" viewBox="0 0 249 296" fill="none" xmlns="http://www.w3.org/2000/svg">
<g clip-path="url(#clip0_221_3202)">
<rect width="249" height="296" fill="white"/>
<path d="M96.4399 242.945C91.4854 237.849 84.3055 234.925 76.7413 234.925L76.4495 234.926C71.4672 234.928 66.5738 233.61 62.2697 231.106L61.8218 230.846L62.1826 230.475C64.1355 228.46 65.7662 226.157 67.0175 223.647C66.1288 224.474 65.0688 225.095 63.9126 225.468C62.7564 225.84 61.5322 225.955 60.3267 225.803C59.054 225.652 57.8321 225.215 56.7528 224.525C55.6735 223.836 54.7648 222.911 54.0947 221.821C51.451 217.542 48.2996 211.471 48.2996 206.846C48.3037 202.936 49.1243 199.071 50.7091 195.495C52.2939 191.919 54.6082 188.712 57.5043 186.078C59.3379 184.429 60.8024 182.413 61.8024 180.161C62.8024 177.91 63.3155 175.473 63.3082 173.011L63.3067 172.66C63.3062 169.418 63.7034 166.188 64.4895 163.042L64.5693 162.724L64.897 162.735C67.01 162.807 69.1242 162.631 71.1958 162.209C69.2526 161.971 67.3517 161.467 65.5468 160.71L65.1943 160.568L65.3139 160.208C73.5606 155.114 92.1757 157.752 102.981 133.093C111.742 113.098 142.654 150.843 142.654 172.66C142.654 174.886 140.445 177.828 142.099 179.3C159.972 195.206 147.64 205.42 143.752 215.697C142.829 218.136 144.83 220.813 144.83 223.451C144.83 223.899 144.818 224.361 144.795 224.824L144.761 225.537L144.165 225.142C142.986 224.371 141.893 223.477 140.905 222.475C141.93 224.828 142.413 227.38 142.319 229.944C142.225 232.507 141.555 235.017 140.36 237.289C138.487 240.815 136.674 243.34 134.974 244.792C129.525 249.443 122.502 251.842 115.339 251.499C108.177 251.156 101.416 248.096 96.4399 242.945H96.4399Z" fill="#0AA1DD"/>
<path d="M126.364 296C126.486 296 126.604 295.956 126.695 295.876C126.787 295.797 126.847 295.686 126.865 295.566C126.886 295.415 128.993 280.259 127.101 260.116C125.353 241.514 119.742 214.719 102.932 192.714C102.892 192.661 102.842 192.616 102.784 192.583C102.727 192.55 102.663 192.528 102.598 192.519C102.532 192.51 102.465 192.514 102.4 192.531C102.336 192.548 102.276 192.577 102.223 192.618C102.17 192.658 102.125 192.708 102.092 192.765C102.058 192.823 102.037 192.886 102.028 192.952C102.019 193.018 102.023 193.085 102.04 193.149C102.057 193.213 102.087 193.273 102.127 193.326C118.792 215.142 124.358 241.739 126.093 260.21C127.974 280.236 125.884 295.274 125.862 295.424C125.852 295.495 125.857 295.568 125.878 295.638C125.899 295.707 125.934 295.771 125.981 295.826C126.029 295.881 126.088 295.924 126.154 295.954C126.22 295.984 126.292 296 126.364 296V296Z" fill="#3F3D56"/>
<path d="M112.646 223.754C112.753 223.754 112.858 223.72 112.944 223.657C113.031 223.595 113.095 223.506 113.128 223.405C113.161 223.304 113.161 223.194 113.128 223.093C113.095 222.991 113.031 222.903 112.944 222.84C108.155 219.606 102.98 216.979 97.5407 215.018C89.0422 211.915 76.119 209.101 62.8147 213.325C62.7512 213.345 62.6923 213.377 62.6414 213.42C62.5904 213.463 62.5484 213.515 62.5178 213.574C62.4871 213.633 62.4684 213.697 62.4628 213.763C62.4571 213.83 62.4646 213.896 62.4848 213.96C62.505 214.023 62.5375 214.082 62.5804 214.132C62.6234 214.183 62.676 214.225 62.7351 214.255C62.7943 214.286 62.8589 214.304 62.9252 214.31C62.9916 214.315 63.0584 214.308 63.1218 214.287C76.1534 210.15 88.8424 212.917 97.1926 215.967C102.545 217.894 107.636 220.477 112.349 223.657C112.435 223.72 112.54 223.754 112.646 223.754Z" fill="#3F3D56"/>
<path d="M135.817 166.189C135.825 166.083 135.798 165.976 135.742 165.886C135.686 165.795 135.602 165.725 135.503 165.684C135.404 165.644 135.294 165.636 135.191 165.662C135.087 165.687 134.994 165.745 134.925 165.827C131.346 170.359 128.346 175.318 125.995 180.589C122.279 188.821 118.535 201.476 121.8 215.016C121.816 215.081 121.844 215.142 121.883 215.196C121.922 215.249 121.971 215.295 122.028 215.33C122.085 215.364 122.148 215.387 122.214 215.398C122.279 215.408 122.346 215.406 122.411 215.39C122.476 215.374 122.537 215.346 122.591 215.307C122.644 215.268 122.69 215.219 122.725 215.162C122.759 215.106 122.783 215.043 122.793 214.977C122.803 214.912 122.8 214.845 122.785 214.78C119.587 201.517 123.267 189.092 126.918 181.003C129.23 175.817 132.18 170.938 135.699 166.478C135.768 166.396 135.809 166.295 135.817 166.189Z" fill="#3F3D56"/>
<path d="M233.465 295.465H193.164L192.99 295.152C192.475 294.22 191.978 293.232 191.513 292.217C187.362 283.352 185.607 273.213 184.059 264.267L182.893 257.524C182.752 256.707 182.858 255.867 183.198 255.111C183.539 254.355 184.097 253.718 184.803 253.28C185.508 252.843 186.329 252.626 187.159 252.656C187.989 252.686 188.791 252.963 189.463 253.451C195.588 257.897 201.715 262.338 207.844 266.775C210.165 268.459 212.815 270.409 215.354 272.516C215.599 271.329 215.855 270.139 216.111 268.966C216.288 268.155 216.703 267.416 217.303 266.843C217.903 266.269 218.662 265.887 219.481 265.746C220.3 265.605 221.142 265.71 221.901 266.05C222.659 266.389 223.299 266.946 223.738 267.65L228.454 275.207C231.893 280.726 234.928 286.164 234.31 292.029C234.313 292.1 234.307 292.172 234.294 292.242C234.17 293.205 233.94 294.152 233.609 295.066L233.465 295.465Z" fill="#F0F0F0"/>
<path d="M214.689 137.421L206.911 108.705C206.578 107.489 205.779 106.453 204.687 105.819C203.594 105.186 202.296 105.007 201.072 105.32C200.439 105.482 199.846 105.771 199.328 106.169C198.811 106.567 198.38 107.066 198.062 107.636C197.744 108.205 197.546 108.834 197.48 109.482C197.413 110.131 197.48 110.786 197.676 111.408L206.672 140.99L211.378 159.195C210.693 159.717 210.185 160.437 209.924 161.257C209.663 162.077 209.661 162.958 209.919 163.779C210.177 164.6 210.682 165.321 211.366 165.846C212.05 166.371 212.878 166.673 213.74 166.711C214.602 166.749 215.454 166.522 216.182 166.06C216.91 165.599 217.477 164.924 217.807 164.13C218.138 163.335 218.215 162.458 218.028 161.618C217.841 160.778 217.4 160.016 216.764 159.435L214.689 137.421Z" fill="#FFCBA5"/>
<path d="M149.24 131.236L172.872 113.094C173.871 112.323 174.526 111.19 174.695 109.941C174.865 108.693 174.535 107.427 173.777 106.419C173.385 105.897 172.891 105.461 172.324 105.136C171.758 104.811 171.131 104.604 170.481 104.529C169.832 104.454 169.174 104.511 168.548 104.698C167.922 104.884 167.34 105.196 166.839 105.614L142.87 125.21L127.803 136.504C127.057 136.072 126.196 135.879 125.337 135.951C124.477 136.024 123.661 136.359 122.999 136.91C122.337 137.462 121.862 138.203 121.637 139.034C121.412 139.864 121.449 140.744 121.742 141.553C122.036 142.362 122.572 143.061 123.278 143.555C123.984 144.05 124.825 144.315 125.688 144.316C126.55 144.317 127.392 144.053 128.099 143.56C128.806 143.067 129.343 142.368 129.638 141.56L149.24 131.236Z" fill="#FFCBA5"/>
<path d="M168.501 135.407L167.46 158.613L200.167 151.522C197.383 142.197 195.49 140.607 197.582 134.117L168.501 135.407Z" fill="#FFCBA5"/>
<path d="M188.612 92.8624H177.714L173.034 100.851L170.804 100.728C169.713 100.668 168.622 100.831 167.596 101.206C166.57 101.581 165.632 102.161 164.839 102.91C164.045 103.658 163.413 104.561 162.981 105.562C162.549 106.563 162.327 107.641 162.327 108.731L165.074 112.979C165.074 112.979 160.16 121.522 167.239 125.724C167.239 125.724 165.976 133.643 167.239 133.558C168.502 133.473 171.41 131.861 168.501 133.473C165.593 135.084 165.81 135.301 166.187 135.676L166.563 136.051L197.141 141.173C197.141 141.173 198.036 135.26 198.132 134.205C198.228 133.15 197.582 135.729 198.228 133.15C198.875 130.572 199.844 131.539 198.875 130.572C197.905 129.605 205.155 117.626 202.177 112.979L206.953 108.332C206.953 103.875 199.776 100.262 195.308 100.262H194.735L188.612 92.8624Z" fill="#0AA1DD"/>
<path d="M162.354 286.519H157.943L155.845 269.547L162.355 269.547L162.354 286.519Z" fill="#0AA1DD"/>
<path d="M149.041 293.011C149.043 293.504 149.24 293.976 149.589 294.325C149.938 294.674 150.411 294.871 150.905 294.874H159.209L159.466 294.342L160.64 291.925L161.095 294.342L161.196 294.874H164.328L164.283 294.339L163.448 284.349L162.356 284.282L157.635 284.003L156.476 283.932V286.915C155.596 287.849 148.69 291.378 149.041 293.011Z" fill="#2F2E41"/>
<path d="M227.91 274.994L224.2 277.374L213.23 264.233L218.706 260.72L227.91 274.994Z" fill="#0AA1DD"/>
<path d="M220.235 287.639C220.504 288.052 220.925 288.343 221.408 288.448C221.891 288.553 222.396 288.464 222.813 288.2L229.796 283.718L229.724 283.132L229.401 280.465L231.095 282.253L231.468 282.646L234.102 280.956L233.774 280.529L227.653 272.578L226.698 273.112L222.577 275.424L221.563 275.991L223.181 278.5C222.947 279.76 219.054 286.455 220.235 287.639Z" fill="#2F2E41"/>
<path d="M248.487 295.775L111.901 295.908C111.764 295.908 111.634 295.853 111.538 295.757C111.441 295.66 111.387 295.53 111.387 295.394C111.387 295.258 111.441 295.127 111.538 295.031C111.634 294.935 111.764 294.88 111.901 294.879L248.487 294.747C248.623 294.747 248.754 294.802 248.85 294.898C248.946 294.995 249 295.125 249 295.261C249 295.397 248.946 295.527 248.85 295.624C248.754 295.72 248.623 295.775 248.487 295.775Z" fill="#CACACA"/>
<path d="M199.654 148.901C199.654 148.901 178.747 159.932 167.689 152.406C167.689 152.406 165.27 164.093 164.301 165.06C163.331 166.026 161.787 166.448 162.882 167.526C163.978 168.605 164.587 170.062 162.505 171.912C160.423 173.762 158.347 173.175 160.355 175.08C162.362 176.985 154.284 223.721 154.284 223.721C154.284 223.721 155.577 267.183 154.284 268.497C152.992 269.812 151.264 270.106 152.936 271.732C154.607 273.357 154.607 272.096 154.607 274.338V276.58L155.372 278.809H165.863C165.863 278.809 168.395 275.875 165.863 273.327C163.331 270.779 166.634 270.081 167.406 267.69C168.178 265.299 169.471 267.878 168.178 265.299C166.886 262.721 166.265 263.211 166.252 261.516C166.24 259.82 185.304 193.423 185.304 193.423L187.612 230.173L215.386 270.42L223.561 264.304C223.561 264.304 217.609 255.946 219.001 254.797C220.393 253.648 214.899 252.207 216.631 250.911C218.364 249.615 214.193 248.309 215.765 246.59C217.337 244.872 213.599 240.542 211.434 240.542C209.268 240.542 206.229 233.323 206.229 233.323L210.766 176.297L199.654 148.901Z" fill="#2F2E41"/>
<path d="M177.495 69.405C177.347 69.5988 176.168 69.4945 174.751 69.288C171.948 68.8798 171.566 69.3649 169.471 71.266C166.436 74.0199 168.161 90.817 166.67 94.4565L166.188 94.8106C167.144 94.6286 168.082 94.3665 168.994 94.0273C169.509 92.4065 170.025 90.7805 170.545 89.1611C171.036 90.4211 171.344 91.7444 171.461 93.0911C172.183 92.8074 172.9 92.1136 175.915 91.1831C177.433 90.1558 188.415 89.1229 189.827 88.671C193.41 76.5097 187.636 71.5916 177.495 69.405Z" fill="#2F2E41"/>
<path d="M181.203 88.1581C186.999 88.1581 191.698 83.4711 191.698 77.6893C191.698 71.9075 186.999 67.2205 181.203 67.2205C175.407 67.2205 170.708 71.9075 170.708 77.6893C170.708 83.4711 175.407 88.1581 181.203 88.1581Z" fill="#FFCBA5"/>
<path d="M187.811 68.4824C187.219 68.3954 186.65 68.1963 186.133 67.8959C185.877 67.7416 185.67 67.5187 185.535 67.2525C185.4 66.9863 185.343 66.6875 185.37 66.3904C185.499 65.6466 186.342 65.2024 187.097 65.2477C187.85 65.3558 188.564 65.6443 189.18 66.0884C189.112 65.3696 188.804 64.6943 188.306 64.1709C187.807 63.6476 187.147 63.3067 186.43 63.2029C187.424 63.1495 188.457 63.1024 189.376 63.4836C190.294 63.8648 191.06 64.8086 190.894 65.7874C192.439 65.5889 193.962 66.6624 194.6 68.0798C195.238 69.4971 195.111 71.1616 194.602 72.6296C194.552 72.8544 194.453 73.0659 194.314 73.2496C194.175 73.4332 193.997 73.5849 193.794 73.6943C193.274 73.8911 192.715 73.5611 192.265 73.2358C189.912 71.5364 187.77 69.5635 185.885 67.3587" fill="#2F2E41"/>
<path d="M192.386 88.8193C191.942 89.0282 192.173 89.8056 191.827 90.1537C191.677 90.3011 191.496 90.4134 191.298 90.4825C191.246 89.8337 191.094 89.1967 190.848 88.5937C190.803 88.4841 190.729 88.3616 190.613 88.3713C190.477 88.3874 190.441 88.5647 190.438 88.6968C190.411 89.3524 190.265 89.9977 190.008 90.6017C190.005 90.6082 190.002 90.6178 189.999 90.6243C189.898 90.621 189.795 90.6178 189.698 90.6146C188.948 90.5856 187.288 88.6646 186.919 89.3157C188.218 87.0176 189.802 83.5623 190.044 80.9355C190.128 80.3855 190.087 79.8238 189.924 79.2917C189.839 79.027 189.68 78.7921 189.465 78.615C189.25 78.4379 188.989 78.326 188.713 78.2925C188.576 78.2863 188.44 78.3103 188.314 78.3627C188.188 78.4151 188.075 78.4946 187.983 78.5956C187.891 78.6966 187.823 78.8166 187.783 78.947C187.744 79.0774 187.733 79.2149 187.753 79.3497L187.566 79.3239C185.827 77.9122 187.326 75.4594 185.304 74.4892C184.619 74.1604 180.425 75.2595 179.685 75.0662C179.669 74.2886 179.51 73.5206 179.216 72.8003C179.171 72.6907 179.097 72.5682 178.98 72.5779C178.845 72.594 178.809 72.7713 178.806 72.9034C178.778 73.559 178.633 74.2043 178.376 74.8083C177.351 74.6633 176.307 74.718 175.303 74.9695C174.418 75.2015 173.578 75.6012 172.689 75.8139C172.25 75.9482 171.788 75.9917 171.331 75.9418C170.875 75.892 170.433 75.7497 170.033 75.5238C168.905 74.7696 168.708 73.1 169.271 71.8688C169.677 71.0787 170.227 70.3706 170.893 69.7802C171.4 69.2903 171.927 68.8197 172.453 68.3491C172.925 67.9269 173.397 67.5046 173.869 67.0824C174.462 66.5249 175.095 66.01 175.762 65.5418C176.827 64.8456 178.023 64.3738 179.277 64.1555C180.531 63.9371 181.817 63.9767 183.055 64.2718C184.541 64.6264 186.528 64.1268 187.889 64.8198C188.6 65.184 190.173 66.5796 190.797 67.076C192.393 68.3427 191.313 67.3105 193.059 68.0429C197.221 69.7892 195.381 87.4132 192.386 88.8193Z" fill="#2F2E41"/>
<path d="M76.1836 165.23C112.129 165.23 141.269 136.163 141.269 100.307C141.269 64.4502 112.129 35.383 76.1836 35.383C40.2379 35.383 11.0981 64.4502 11.0981 100.307C11.0981 136.163 40.2379 165.23 76.1836 165.23Z" fill="white"/>
<path d="M76.1836 165.878C39.9372 165.878 10.4485 136.463 10.4485 100.306C10.4485 64.1502 39.9372 34.7348 76.1836 34.7348C112.43 34.7348 141.919 64.1502 141.919 100.306C141.919 136.463 112.43 165.878 76.1836 165.878ZM76.1836 36.0309C40.6537 36.0309 11.7478 64.8649 11.7478 100.306C11.7478 135.748 40.6537 164.582 76.1836 164.582C111.714 164.582 140.619 135.748 140.619 100.306C140.619 64.8649 111.714 36.0309 76.1836 36.0309Z" fill="#F4F4F5"/>
<path d="M67.3047 134.096C66.1808 134.096 65.0723 133.835 64.0671 133.334C63.0619 132.832 62.1876 132.104 61.5134 131.207L43.7571 107.59C43.1867 106.832 42.7717 105.968 42.5358 105.05C42.2999 104.131 42.2476 103.175 42.3821 102.236C42.5166 101.297 42.8352 100.394 43.3196 99.5779C43.804 98.7619 44.4448 98.049 45.2054 97.48C45.966 96.911 46.8315 96.497 47.7525 96.2617C48.6735 96.0264 49.6319 95.9743 50.5731 96.1084C51.5143 96.2426 52.4197 96.5603 53.2378 97.0436C54.0559 97.5268 54.7705 98.166 55.3409 98.9247L66.9577 114.374L96.7939 69.7316C97.8596 68.1392 99.5156 67.0341 101.398 66.6592C103.28 66.2843 105.234 66.6703 106.832 67.7323C108.429 68.7943 109.537 70.4455 109.914 72.3228C110.291 74.2002 109.906 76.15 108.842 77.7437L73.3294 130.88C72.687 131.841 71.8229 132.634 70.8097 133.194C69.7965 133.753 68.6637 134.062 67.5062 134.094C67.4391 134.095 67.3719 134.096 67.3047 134.096Z" fill="#F4F4F5"/>
<path d="M143.241 39.4394C143.422 38.1981 142.118 36.9814 140.33 36.7218C138.541 36.4622 136.944 37.258 136.763 38.4992C136.582 39.7405 137.885 40.9572 139.674 41.2168C141.463 41.4764 143.06 40.6806 143.241 39.4394Z" fill="#0AA1DD"/>
<path d="M164.537 37.3665C164.718 36.1253 163.415 34.9086 161.626 34.649C159.838 34.3894 158.241 35.1851 158.06 36.4264C157.879 37.6676 159.182 38.8843 160.971 39.1439C162.759 39.4035 164.356 38.6078 164.537 37.3665Z" fill="#3F3D56"/>
<path d="M137.409 22.2408C137.59 20.9995 136.286 19.7828 134.498 19.5232C132.709 19.2636 131.112 20.0594 130.931 21.3006C130.75 22.5419 132.053 23.7586 133.842 24.0182C135.631 24.2778 137.228 23.482 137.409 22.2408Z" fill="#0AA1DD"/>
<path d="M128.155 15.1959C128.163 14.0564 127.526 13.1277 126.732 13.1217C125.937 13.1158 125.286 14.0347 125.277 15.1742C125.268 16.3137 125.906 17.2423 126.7 17.2483C127.495 17.2543 128.146 16.3354 128.155 15.1959Z" fill="#0AA1DD"/>
<path d="M125.017 2.07415C125.025 0.934633 124.388 0.00601015 123.593 1.58754e-05C122.799 -0.0059784 122.148 0.912926 122.139 2.05244C122.13 3.19196 122.768 4.12058 123.562 4.12658C124.357 4.13257 125.008 3.21367 125.017 2.07415Z" fill="#3F3D56"/>
<path d="M149.421 25.1675C149.429 24.028 148.792 23.0993 147.998 23.0933C147.203 23.0874 146.552 24.0063 146.543 25.1458C146.534 26.2853 147.172 27.2139 147.966 27.2199C148.761 27.2259 149.412 26.307 149.421 25.1675Z" fill="#0AA1DD"/>
<path d="M139.129 30.2932C139.138 29.1537 138.5 28.225 137.706 28.219C136.911 28.213 136.26 29.132 136.251 30.2715C136.243 31.411 136.88 32.3396 137.674 32.3456C138.469 32.3516 139.12 31.4327 139.129 30.2932Z" fill="#0AA1DD"/>
<path d="M153.455 39.7668C153.464 38.6273 152.827 37.6987 152.032 37.6927C151.238 37.6867 150.586 38.6056 150.578 39.7451C150.569 40.8846 151.206 41.8132 152.001 41.8192C152.796 41.8252 153.447 40.9063 153.455 39.7668Z" fill="#3F3D56"/>
<path d="M21.1021 193.245C21.2831 192.004 19.9798 190.787 18.1911 190.528C16.4023 190.268 14.8055 191.064 14.6244 192.305C14.4434 193.546 15.7467 194.763 17.5354 195.023C19.3242 195.282 20.921 194.487 21.1021 193.245Z" fill="#0AA1DD"/>
<path d="M42.3989 191.172C42.58 189.931 41.2767 188.714 39.4879 188.455C37.6992 188.195 36.1024 188.991 35.9213 190.232C35.7403 191.473 37.0436 192.69 38.8323 192.95C40.6211 193.209 42.2179 192.414 42.3989 191.172Z" fill="#3F3D56"/>
<path d="M15.2703 176.047C15.4513 174.805 14.148 173.589 12.3593 173.329C10.5705 173.069 8.97371 173.865 8.79266 175.106C8.61161 176.348 9.91491 177.564 11.7037 177.824C13.4924 178.084 15.0892 177.288 15.2703 176.047Z" fill="#0AA1DD"/>
<path d="M6.01626 169.002C6.02489 167.862 5.38768 166.934 4.593 166.928C3.79831 166.922 3.14708 167.841 3.13844 168.98C3.12981 170.12 3.76703 171.048 4.56172 171.054C5.3564 171.06 6.00762 170.141 6.01626 169.002Z" fill="#0AA1DD"/>
<path d="M2.87781 155.88C2.88645 154.741 2.24924 153.812 1.45456 153.806C0.659873 153.8 0.00865424 154.719 1.59813e-05 155.858C-0.00862228 156.998 0.628591 157.926 1.42327 157.932C2.21796 157.938 2.86918 157.02 2.87781 155.88Z" fill="#3F3D56"/>
<path d="M27.2819 178.973C27.2905 177.834 26.6533 176.905 25.8586 176.899C25.0639 176.893 24.4127 177.812 24.4041 178.952C24.3954 180.091 25.0326 181.02 25.8273 181.026C26.622 181.032 27.2732 180.113 27.2819 178.973Z" fill="#0AA1DD"/>
<path d="M16.9904 184.099C16.999 182.96 16.3618 182.031 15.5671 182.025C14.7724 182.019 14.1212 182.938 14.1126 184.077C14.1039 185.217 14.7412 186.145 15.5358 186.151C16.3305 186.157 16.9818 185.239 16.9904 184.099Z" fill="#0AA1DD"/>
<path d="M31.3165 193.573C31.3252 192.433 30.6879 191.505 29.8933 191.499C29.0986 191.493 28.4474 192.411 28.4387 193.551C28.4301 194.69 29.0673 195.619 29.862 195.625C30.6567 195.631 31.3079 194.712 31.3165 193.573Z" fill="#3F3D56"/>
</g>
<defs>
<clipPath id="clip0_221_3202">
<rect width="249" height="296" fill="white"/>
</clipPath>
</defs>
</svg>
