<svg width="16" height="17" viewBox="0 0 16 17" fill="none" xmlns="http://www.w3.org/2000/svg">
<path d="M10.5002 10.1667C10.3676 10.1667 10.2404 10.2193 10.1466 10.3131C10.0528 10.4069 10.0002 10.5341 10.0002 10.6667C10.0002 10.7993 10.0528 10.9264 10.1466 11.0202C10.2404 11.114 10.3676 11.1667 10.5002 11.1667H12.1668C12.2994 11.1667 12.4266 11.114 12.5204 11.0202C12.6142 10.9264 12.6668 10.7993 12.6668 10.6667C12.6668 10.5341 12.6142 10.4069 12.5204 10.3131C12.4266 10.2193 12.2994 10.1667 12.1668 10.1667H10.5002ZM3.16683 3.83333C2.6806 3.83333 2.21428 4.02648 1.87047 4.3703C1.52665 4.71412 1.3335 5.18043 1.3335 5.66666V11.3333C1.3335 11.8196 1.52665 12.2859 1.87047 12.6297C2.21428 12.9735 2.6806 13.1667 3.16683 13.1667H12.8335C13.3197 13.1667 13.786 12.9735 14.1299 12.6297C14.4737 12.2859 14.6668 11.8196 14.6668 11.3333V5.66666C14.6668 5.18043 14.4737 4.71412 14.1299 4.3703C13.786 4.02648 13.3197 3.83333 12.8335 3.83333H3.16683ZM2.3335 11.3333V7.83333H13.6668V11.3333C13.6668 11.7933 13.2935 12.1667 12.8335 12.1667H3.16683C2.70683 12.1667 2.3335 11.7933 2.3335 11.3333ZM2.3335 6.83333V5.66666C2.3335 5.20666 2.70683 4.83333 3.16683 4.83333H12.8335C13.2935 4.83333 13.6668 5.20666 13.6668 5.66666V6.83333H2.3335Z" fill="#F27370"/>
</svg>