<svg width="16" height="17" viewBox="0 0 16 17" fill="none" xmlns="http://www.w3.org/2000/svg">
<path d="M8.00016 1.83333C4.32016 1.83333 1.3335 4.81999 1.3335 8.49999C1.3335 12.18 4.32016 15.1667 8.00016 15.1667C11.6802 15.1667 14.6668 12.18 14.6668 8.49999C14.6668 4.81999 11.6802 1.83333 8.00016 1.83333ZM4.90016 12.8333C5.7735 12.2067 6.84016 11.8333 8.00016 11.8333C9.16016 11.8333 10.2268 12.2067 11.1002 12.8333C10.2268 13.46 9.16016 13.8333 8.00016 13.8333C6.84016 13.8333 5.7735 13.46 4.90016 12.8333ZM12.0935 11.9133C10.9258 10.9971 9.48442 10.4992 8.00016 10.4992C6.51591 10.4992 5.07457 10.9971 3.90683 11.9133C3.10478 10.9569 2.6657 9.74823 2.66683 8.49999C2.66683 5.55333 5.0535 3.16666 8.00016 3.16666C10.9468 3.16666 13.3335 5.55333 13.3335 8.49999C13.3335 9.79999 12.8668 10.9867 12.0935 11.9133Z" fill="#F27370"/>
<path d="M7.99984 4.5C6.71317 4.5 5.6665 5.54667 5.6665 6.83333C5.6665 8.12 6.71317 9.16667 7.99984 9.16667C9.2865 9.16667 10.3332 8.12 10.3332 6.83333C10.3332 5.54667 9.2865 4.5 7.99984 4.5ZM7.99984 7.83333C7.4465 7.83333 6.99984 7.38667 6.99984 6.83333C6.99984 6.28 7.4465 5.83333 7.99984 5.83333C8.55317 5.83333 8.99984 6.28 8.99984 6.83333C8.99984 7.38667 8.55317 7.83333 7.99984 7.83333Z" fill="#F27370"/>
</svg>