<svg width="12" height="13" viewBox="0 0 12 13" fill="none" xmlns="http://www.w3.org/2000/svg">
<path d="M5.475 11L3.7 9.225L4.4125 8.525L5.475 9.5875L7.5875 7.4625L8.3 8.175L5.475 11ZM2.5 3.5H9.5V3H2.5V3.5ZM4.2 5H7.8L7.95 4.5H4.05L4.2 5ZM4.2 6C3.98333 6 3.7875 5.9355 3.6125 5.8065C3.4375 5.67717 3.31667 5.50833 3.25 5.3L3 4.5H2.5C2.225 4.5 1.9895 4.402 1.7935 4.206C1.59783 4.01033 1.5 3.775 1.5 3.5V2H10.5V3.5C10.5 3.775 10.4022 4.01033 10.2065 4.206C10.0105 4.402 9.775 4.5 9.5 4.5H9L8.675 5.35C8.6 5.54167 8.47917 5.69783 8.3125 5.8185C8.14583 5.9395 7.95833 6 7.75 6H4.2ZM2.5 3.5V3V3.5Z" fill="#F27370"/>
</svg>