<svg width="235" height="237" viewBox="0 0 235 237" fill="none" xmlns="http://www.w3.org/2000/svg">
<path d="M87.9468 9.15881C88.2238 7.17189 85.4113 5.53653 83.3018 5.36607C82.295 5.28084 81.2509 5.43532 80.2974 5.10506C78.2359 4.38593 77.4103 1.71716 75.3914 0.843552C73.8839 0.209653 72.1526 0.774302 70.6931 1.50941C69.2335 2.24452 67.7846 3.1714 66.1546 3.27794C64.7376 3.36849 63.1928 2.84113 61.9517 3.53363C61.0248 4.06631 60.54 5.13169 59.6877 5.74428C58.8008 6.2927 57.7739 6.57211 56.7313 6.54864C55.6918 6.52046 54.6563 6.68853 53.679 7.04404C52.7362 7.47552 51.9584 8.47697 52.1555 9.4944L87.9468 9.15881Z" fill="#F5F5F5"/>
<path d="M229.381 126.728C229.839 123.42 225.167 120.698 221.657 120.416C219.984 120.277 218.248 120.533 216.66 119.979C213.23 118.786 211.866 114.348 208.505 112.931C206.001 111.866 203.114 112.819 200.685 114.039C198.256 115.259 195.859 116.799 193.142 116.974C190.782 117.124 188.22 116.25 186.153 117.406C184.614 118.264 183.809 120.037 182.392 121.081C180.975 122.126 179.196 122.323 177.47 122.419C175.745 122.514 173.965 122.525 172.399 123.244C170.833 123.963 169.533 125.62 169.858 127.314L229.381 126.728Z" fill="#EBEBEB"/>
<path d="M51.7827 45.994C52.129 43.4637 48.5546 41.3809 45.8699 41.1625C44.5914 41.0613 43.265 41.2584 42.0505 40.8322C39.4244 39.916 38.375 36.5228 35.8074 35.4414C33.8951 34.6317 31.6844 35.3562 29.8253 36.2884C27.9662 37.2206 26.1338 38.4191 24.0563 38.5363C22.2505 38.6482 20.2902 38.0037 18.7294 38.8613C17.5522 39.5218 16.9396 40.8748 15.8529 41.6739C14.7662 42.4729 13.4079 42.6274 12.0868 42.6966C10.7658 42.7659 9.42338 42.7819 8.20885 43.3305C6.99432 43.8792 6.0195 45.147 6.26454 46.4414L51.7827 45.994Z" fill="#F5F5F5"/>
<path d="M193.195 183.88L181.343 235.338L186.356 235.322L198.229 184.365L193.195 183.88Z" fill="#E0E0E0"/>
<path d="M214.812 183.88L226.707 235.338H231.469L219.963 183.88H214.812Z" fill="#E0E0E0"/>
<path d="M185.194 145.234L191.943 180.663H199.609L192.402 145.234H185.194Z" fill="#E0E0E0"/>
<path d="M67.6676 183.88L57.9993 235.338H62.9213L73.0211 183.88H67.6676Z" fill="#E0E0E0"/>
<path d="M87.9949 183.88L99.0428 235.055H103.906L93.2365 183.88H87.9949Z" fill="#E0E0E0"/>
<path d="M59.6665 145.234L66.4157 180.663H74.081L66.8738 145.234H59.6665Z" fill="#E0E0E0"/>
<path d="M44.4849 142.016L45.8645 148.457H199.838L198.043 142.016H44.4849Z" fill="#EBEBEB"/>
<path d="M47.4253 154.524L49.0553 160.964H201.985L200.594 154.524H47.4253Z" fill="#EBEBEB"/>
<path d="M50.4668 167.473L51.9796 173.914H204.44L202.997 167.473H50.4668Z" fill="#EBEBEB"/>
<path d="M226.526 180.663H62.1221V187.103H226.526V180.663Z" fill="#EBEBEB"/>
<path d="M159.908 100.898C158.637 100.899 157.389 100.565 156.289 99.9307C155.188 99.2966 154.273 98.3841 153.636 97.2849C153 96.1856 152.663 94.9383 152.661 93.668C152.658 92.3976 152.99 91.149 153.622 90.0472L174.397 53.8244C175.024 52.716 175.934 51.7947 177.035 51.1552C178.136 50.5157 179.388 50.1812 180.661 50.1862C181.931 50.1786 183.179 50.508 184.28 51.1406C185.38 51.7732 186.293 52.6864 186.926 53.7871L207.914 89.8874C208.552 90.9873 208.889 92.2356 208.893 93.5072C208.896 94.7788 208.565 96.0288 207.932 97.1319C207.3 98.2351 206.388 99.1524 205.289 99.7919C204.19 100.431 202.942 100.771 201.67 100.776L159.913 100.903L159.908 100.898ZM180.683 52.3436C179.789 52.3408 178.911 52.5763 178.138 53.0257C177.366 53.4751 176.727 54.1222 176.288 54.9005L155.513 91.1232C155.07 91.8958 154.837 92.7714 154.838 93.6623C154.84 94.5531 155.076 95.4279 155.522 96.199C155.968 96.97 156.609 97.6102 157.381 98.0554C158.152 98.5005 159.028 98.735 159.918 98.7353L201.676 98.6075C202.565 98.6021 203.437 98.3637 204.205 97.916C204.973 97.4683 205.61 96.8269 206.052 96.056C206.495 95.2851 206.728 94.4116 206.727 93.5226C206.726 92.6337 206.493 91.7604 206.049 90.9901L185.061 54.8951C184.622 54.1195 183.985 53.4744 183.215 53.0261C182.444 52.5777 181.569 52.3422 180.677 52.3436H180.683Z" fill="#EBEBEB"/>
<path d="M176.602 68.0152L177.577 81.5295C177.614 82.0628 177.846 82.5639 178.227 82.9379C178.609 83.312 179.115 83.533 179.649 83.559C180.211 83.588 180.762 83.4002 181.189 83.0344C181.616 82.6686 181.887 82.1528 181.945 81.5934L183.33 67.9939C183.354 67.7511 183.326 67.5059 183.249 67.2745C183.171 67.0432 183.046 66.8309 182.88 66.6517C182.714 66.4725 182.513 66.3304 182.288 66.2349C182.064 66.1394 181.821 66.0926 181.577 66.0975L178.28 66.1721C178.047 66.1773 177.817 66.2298 177.605 66.3263C177.393 66.4229 177.203 66.5616 177.046 66.734C176.889 66.9063 176.769 67.1088 176.692 67.329C176.616 67.5493 176.585 67.7827 176.602 68.0152Z" fill="#EBEBEB"/>
<path d="M183.298 91.1339C183.097 91.754 182.718 92.3007 182.206 92.7051C181.695 93.1094 181.076 93.3531 180.426 93.4055C179.776 93.4579 179.126 93.3166 178.556 92.9994C177.987 92.6823 177.524 92.2035 177.227 91.6235C176.929 91.0435 176.811 90.3885 176.885 89.741C176.96 89.0935 177.225 88.4827 177.647 87.9857C178.068 87.4887 178.628 87.1278 179.254 86.9486C179.881 86.7694 180.547 86.78 181.167 86.9789C181.58 87.1113 181.963 87.3239 182.294 87.6045C182.625 87.8851 182.897 88.2283 183.095 88.6142C183.293 89.0002 183.413 89.4214 183.448 89.8538C183.482 90.2862 183.432 90.7212 183.298 91.1339Z" fill="#EBEBEB"/>
<path d="M234.18 235.274C234.18 235.349 181.753 235.412 117.095 235.412C52.4378 235.412 0 235.349 0 235.274C0 235.199 52.4165 235.135 117.095 235.135C181.774 235.135 234.18 235.194 234.18 235.274Z" fill="#263238"/>
<path d="M153.057 178.127L99.2558 178.09C92.7889 178.09 87.5366 172.577 87.5366 165.78V24.0846C87.5366 17.2875 92.7889 11.7742 99.2558 11.7795L153.031 11.8115C159.503 11.8115 164.75 17.3248 164.75 24.1219L164.723 165.817C164.776 172.619 159.529 178.127 153.057 178.127Z" fill="#263238"/>
<path d="M153.041 16.8293H142.611C141.907 16.8639 141.246 17.1759 140.772 17.697C140.297 18.2182 140.049 18.9061 140.081 19.61V21.5969C140.113 22.3017 139.864 22.9903 139.388 23.5117C138.913 24.033 138.25 24.3444 137.545 24.3775H117.223C116.518 24.343 115.856 24.0303 115.382 23.508C114.907 22.9856 114.66 22.2964 114.693 21.5916V19.61C114.725 18.9061 114.476 18.2182 114.002 17.697C113.528 17.1759 112.866 16.8639 112.163 16.8293H99.3782C94.845 16.8293 91.1694 20.6913 91.1694 25.4536V163.75C91.1694 168.507 94.8397 172.369 99.3675 172.374L153.041 172.406C157.574 172.406 161.25 168.55 161.25 163.787L161.239 25.4695C161.239 20.6754 157.574 16.8293 153.041 16.8293Z" fill="white"/>
<path d="M105.797 159.318V162.701C105.797 162.767 105.779 162.832 105.745 162.889C105.711 162.946 105.662 162.993 105.604 163.025C105.546 163.057 105.481 163.073 105.414 163.071C105.348 163.069 105.284 163.05 105.227 163.015L102.564 161.321C102.511 161.287 102.468 161.241 102.437 161.186C102.407 161.131 102.392 161.069 102.392 161.007C102.392 160.944 102.407 160.882 102.437 160.828C102.468 160.773 102.511 160.726 102.564 160.692L105.227 158.999C105.284 158.963 105.349 158.944 105.416 158.942C105.483 158.941 105.549 158.957 105.607 158.99C105.665 159.022 105.713 159.07 105.747 159.128C105.78 159.186 105.798 159.251 105.797 159.318Z" fill="#E0E0E0"/>
<path d="M127.669 160.975C127.668 161.436 127.53 161.887 127.273 162.27C127.016 162.653 126.652 162.951 126.225 163.127C125.799 163.302 125.33 163.348 124.878 163.257C124.425 163.166 124.01 162.944 123.684 162.617C123.359 162.291 123.137 161.875 123.047 161.423C122.958 160.97 123.004 160.501 123.181 160.075C123.358 159.649 123.657 159.285 124.04 159.029C124.424 158.773 124.875 158.636 125.336 158.636C125.955 158.638 126.549 158.885 126.986 159.323C127.424 159.761 127.669 160.355 127.669 160.975Z" fill="#E0E0E0"/>
<path d="M147.736 158.94H145.424C144.874 158.94 144.428 159.386 144.428 159.936V162.259C144.428 162.809 144.874 163.255 145.424 163.255H147.736C148.286 163.255 148.732 162.809 148.732 162.259V159.936C148.732 159.386 148.286 158.94 147.736 158.94Z" fill="#E0E0E0"/>
<path d="M152.141 84.1508C155.577 69.9267 146.831 55.6103 132.607 52.1744C118.383 48.7385 104.067 57.484 100.631 71.7082C97.1948 85.9324 105.94 100.249 120.165 103.685C134.389 107.121 148.705 98.375 152.141 84.1508Z" fill="#F5F5F5"/>
<path d="M127.568 89.5944C127.567 90.0276 127.438 90.4508 127.196 90.8103C126.954 91.1699 126.611 91.4497 126.21 91.6142C125.81 91.7788 125.369 91.8208 124.944 91.7348C124.52 91.6489 124.13 91.4389 123.825 91.1314C123.52 90.824 123.313 90.4329 123.23 90.0076C123.147 89.5824 123.192 89.1421 123.36 88.7426C123.527 88.343 123.809 88.0022 124.171 87.7631C124.532 87.5241 124.956 87.3976 125.389 87.3997C125.969 87.4039 126.523 87.637 126.931 88.0481C127.339 88.4592 127.568 89.0151 127.568 89.5944Z" fill="#455A64"/>
<path d="M121.006 86.7818C121.564 86.1805 122.239 85.6988 122.989 85.3658C123.739 85.0328 124.549 84.8554 125.37 84.8445C126.19 84.8335 127.005 84.9892 127.764 85.302C128.522 85.6149 129.21 86.0785 129.784 86.6647C130.903 87.794 132.65 86.0627 131.531 84.9334C130.727 84.123 129.769 83.4816 128.713 83.0471C127.658 82.6125 126.526 82.3934 125.384 82.4029C124.243 82.4123 123.114 82.65 122.066 83.102C121.018 83.5539 120.07 84.2111 119.28 85.0346C118.188 86.1799 119.919 87.9325 121.016 86.7818H121.006Z" fill="#455A64"/>
<path d="M113.569 76.6076C116.898 73.7311 120.872 71.9199 125.32 71.9093C129.76 71.8459 134.057 73.4808 137.332 76.4798C138.483 77.5451 140.235 75.8352 139.079 74.7485C135.346 71.2907 130.435 69.3858 125.347 69.4216C120.228 69.4216 115.678 71.5524 111.848 74.8391C110.65 75.8778 112.381 77.6197 113.585 76.5863L113.569 76.6076Z" fill="#455A64"/>
<path d="M116.504 82.2383C117.614 80.9995 118.969 80.0042 120.483 79.3151C121.997 78.626 123.637 78.2581 125.3 78.2345C126.963 78.211 128.613 78.5324 130.146 79.1784C131.679 79.8244 133.061 80.781 134.206 81.9879C135.314 83.1225 137.061 81.3913 135.953 80.2513C134.58 78.8162 132.926 77.6783 131.095 76.9083C129.264 76.1383 127.294 75.7526 125.308 75.7751C123.322 75.7976 121.362 76.2277 119.548 77.039C117.735 77.8502 116.108 79.0252 114.768 80.491C113.702 81.6523 115.423 83.4049 116.504 82.2383Z" fill="#455A64"/>
<path d="M146.064 71.9665C146.711 68.3134 144.273 64.8281 140.62 64.182C136.967 63.5359 133.482 65.9736 132.835 69.6267C132.189 73.2798 134.627 76.765 138.28 77.4111C141.933 78.0572 145.418 75.6196 146.064 71.9665Z" fill="#F27370"/>
<path d="M142.219 68.9185L141.266 67.9656L136.998 72.2332L137.951 73.1862L142.219 68.9185Z" fill="white"/>
<path d="M137.953 67.9606L137 68.9136L141.268 73.1812L142.221 72.2282L137.953 67.9606Z" fill="white"/>
<path d="M124.606 31.6223C124.94 31.422 125.298 31.2662 125.672 31.1589L125.89 30.0935L127.664 30.0615L127.92 31.1269C128.292 31.2213 128.65 31.3646 128.985 31.553L129.874 30.9564L131.153 32.1923L130.594 33.1085C130.794 33.4419 130.95 33.8 131.057 34.1739L132.122 34.3923L132.154 36.1715L131.089 36.4218C130.996 36.794 130.855 37.1522 130.668 37.4872L131.254 38.3821L130.024 39.6606L129.107 39.1279C128.774 39.3262 128.416 39.4802 128.042 39.586L127.824 40.6514L126.05 40.6833L125.794 39.6179C125.422 39.5225 125.064 39.3793 124.729 39.1918L123.828 39.7778L122.55 38.5472L123.109 37.631C122.908 37.298 122.753 36.9397 122.646 36.5656L121.581 36.3472L121.549 34.5734L122.614 34.3177C122.708 33.9458 122.849 33.5877 123.035 33.2523L122.449 32.3521L123.685 31.079L124.601 31.6116L124.606 31.6223ZM125.549 33.9928C125.287 34.2641 125.111 34.6071 125.044 34.9783C124.977 35.3495 125.022 35.7323 125.172 36.0782C125.322 36.4242 125.572 36.7177 125.889 36.9217C126.207 37.1257 126.577 37.231 126.955 37.2243C127.332 37.2176 127.699 37.0992 128.008 36.884C128.318 36.6689 128.557 36.3666 128.695 36.0156C128.834 35.6645 128.864 35.2804 128.784 34.9118C128.704 34.5432 128.516 34.2067 128.244 33.9448C127.881 33.5939 127.392 33.4019 126.887 33.4109C126.381 33.4199 125.9 33.6292 125.549 33.9928Z" fill="#E0E0E0"/>
<path d="M102.079 35.5906C101.546 35.5906 100.806 35.5906 100.098 35.5906C99.2506 35.5906 98.4036 35.5906 97.8123 35.5906C97.7417 35.5906 97.6739 35.5625 97.624 35.5126C97.574 35.4626 97.546 35.3949 97.546 35.3243C97.5452 35.2895 97.5515 35.255 97.5643 35.2227C97.5771 35.1904 97.5962 35.161 97.6205 35.1362C97.6448 35.1114 97.6738 35.0917 97.7058 35.0783C97.7379 35.0648 97.7722 35.0579 97.807 35.0579C98.3983 35.0579 99.2559 35.0579 100.108 35.0579C100.96 35.0579 101.802 35.0899 102.393 35.0579C102.428 35.0572 102.463 35.0634 102.495 35.0762C102.527 35.089 102.557 35.1081 102.581 35.1325C102.606 35.1568 102.626 35.1858 102.639 35.2178C102.653 35.2498 102.66 35.2842 102.66 35.3189C102.66 35.3539 102.654 35.3887 102.642 35.4213C102.629 35.4539 102.61 35.4836 102.586 35.5088C102.561 35.5341 102.532 35.5543 102.5 35.5683C102.468 35.5823 102.434 35.5899 102.399 35.5906H102.079Z" fill="#263238"/>
<path d="M99.4317 37.3805C99.3944 37.3798 99.3576 37.3713 99.3237 37.3558C99.2898 37.3402 99.2594 37.3178 99.2346 37.29L97.6365 35.4628C97.593 35.4125 97.5691 35.3482 97.5691 35.2817C97.5691 35.2152 97.593 35.1509 97.6365 35.1006L99.2346 33.4386C99.2579 33.4104 99.2868 33.3872 99.3195 33.3706C99.3521 33.3541 99.3879 33.3444 99.4245 33.3423C99.461 33.3401 99.4977 33.3455 99.5321 33.3582C99.5664 33.3709 99.5978 33.3905 99.6243 33.4158C99.6507 33.4412 99.6717 33.4717 99.6858 33.5055C99.6999 33.5394 99.7069 33.5757 99.7063 33.6124C99.7057 33.649 99.6976 33.6851 99.6824 33.7185C99.6672 33.7518 99.6454 33.7817 99.6181 33.8062L98.2065 35.2924L99.666 36.9384C99.7 36.977 99.722 37.0246 99.7295 37.0755C99.737 37.1264 99.7295 37.1783 99.7081 37.2251C99.6867 37.2718 99.6523 37.3114 99.6089 37.3389C99.5655 37.3665 99.515 37.381 99.4636 37.3805H99.4317Z" fill="#263238"/>
<path d="M154.341 34.0402C154.797 34.0402 155.167 33.6706 155.167 33.2146C155.167 32.7586 154.797 32.3889 154.341 32.3889C153.885 32.3889 153.516 32.7586 153.516 33.2146C153.516 33.6706 153.885 34.0402 154.341 34.0402Z" fill="#263238"/>
<path d="M155.167 35.825C155.168 35.9898 155.12 36.1512 155.029 36.2886C154.938 36.4261 154.808 36.5334 154.656 36.597C154.504 36.6605 154.337 36.6774 154.175 36.6455C154.013 36.6137 153.865 36.5344 153.748 36.4179C153.632 36.3013 153.552 36.1528 153.521 35.9911C153.489 35.8294 153.506 35.6619 153.569 35.5098C153.633 35.3577 153.74 35.228 153.878 35.1371C154.015 35.0462 154.176 34.9982 154.341 34.9993C154.56 34.9993 154.77 35.0863 154.925 35.2411C155.08 35.396 155.167 35.606 155.167 35.825Z" fill="#263238"/>
<path d="M154.341 39.2607C154.797 39.2607 155.167 38.891 155.167 38.435C155.167 37.979 154.797 37.6094 154.341 37.6094C153.885 37.6094 153.516 37.979 153.516 38.435C153.516 38.891 153.885 39.2607 154.341 39.2607Z" fill="#263238"/>
<path d="M108.439 114.37C107.184 114.507 105.92 114.553 104.657 114.508C103.397 114.553 102.135 114.507 100.881 114.37C102.135 114.233 103.397 114.187 104.657 114.231C105.92 114.187 107.184 114.233 108.439 114.37Z" fill="#263238"/>
<path d="M122.007 123.212C122.007 123.287 117.362 123.351 111.635 123.351C105.909 123.351 101.264 123.287 101.264 123.212C101.264 123.138 105.904 123.074 111.635 123.074C117.367 123.074 122.007 123.138 122.007 123.212Z" fill="#263238"/>
<path d="M122.007 132.007C122.007 132.082 117.362 132.146 111.635 132.146C105.909 132.146 101.264 132.082 101.264 132.007C101.264 131.933 105.904 131.869 111.635 131.869C117.367 131.869 122.007 131.922 122.007 132.007Z" fill="#263238"/>
<path d="M149.424 119.894H141.839C140.006 119.894 138.52 121.378 138.52 123.21C138.52 125.041 140.006 126.526 141.839 126.526H149.424C151.257 126.526 152.743 125.041 152.743 123.21C152.743 121.378 151.257 119.894 149.424 119.894Z" fill="#EBEBEB"/>
<path d="M144.577 123.213C144.577 123.762 144.414 124.3 144.108 124.757C143.803 125.215 143.368 125.571 142.86 125.781C142.352 125.992 141.793 126.047 141.254 125.94C140.714 125.832 140.219 125.568 139.83 125.179C139.441 124.79 139.176 124.294 139.069 123.755C138.962 123.216 139.017 122.657 139.227 122.148C139.438 121.64 139.794 121.206 140.251 120.901C140.709 120.595 141.246 120.432 141.796 120.432C142.161 120.432 142.523 120.504 142.86 120.644C143.198 120.783 143.504 120.988 143.762 121.246C144.021 121.505 144.225 121.811 144.365 122.148C144.505 122.486 144.577 122.847 144.577 123.213Z" fill="#E0E0E0"/>
<path d="M149.43 135.315H141.839C140.959 135.315 140.115 134.966 139.492 134.343C138.87 133.721 138.52 132.877 138.52 131.997C138.52 131.116 138.87 130.272 139.492 129.65C140.115 129.028 140.959 128.678 141.839 128.678H149.43C150.31 128.678 151.154 129.028 151.776 129.65C152.399 130.272 152.748 131.116 152.748 131.997C152.748 132.877 152.399 133.721 151.776 134.343C151.154 134.966 150.31 135.315 149.43 135.315Z" fill="#EBEBEB"/>
<path d="M141.796 134.777C143.332 134.777 144.577 133.532 144.577 131.996C144.577 130.461 143.332 129.216 141.796 129.216C140.261 129.216 139.016 130.461 139.016 131.996C139.016 133.532 140.261 134.777 141.796 134.777Z" fill="#E0E0E0"/>
<path d="M122.007 140.839C122.007 140.919 117.362 140.977 111.635 140.977C105.909 140.977 101.264 140.919 101.264 140.839C101.264 140.759 105.904 140.7 111.635 140.7C117.367 140.7 122.007 140.764 122.007 140.839Z" fill="#263238"/>
<path d="M149.43 145.138H141.839C141.403 145.139 140.972 145.053 140.569 144.887C140.167 144.721 139.801 144.477 139.493 144.169C139.184 143.862 138.94 143.496 138.773 143.094C138.606 142.691 138.52 142.26 138.52 141.824C138.52 140.944 138.87 140.1 139.492 139.478C140.115 138.855 140.959 138.506 141.839 138.506H149.43C150.31 138.506 151.154 138.855 151.776 139.478C152.399 140.1 152.748 140.944 152.748 141.824C152.748 142.26 152.662 142.691 152.496 143.094C152.329 143.496 152.084 143.862 151.776 144.169C151.468 144.477 151.102 144.721 150.699 144.887C150.297 145.053 149.865 145.139 149.43 145.138Z" fill="#EBEBEB"/>
<path d="M141.796 144.605C143.332 144.605 144.577 143.36 144.577 141.825C144.577 140.289 143.332 139.044 141.796 139.044C140.261 139.044 139.016 140.289 139.016 141.825C139.016 143.36 140.261 144.605 141.796 144.605Z" fill="#E0E0E0"/>
<path d="M212.798 26.1395C213.563 21.4054 210.344 16.9481 205.61 16.1839C200.876 15.4197 196.419 18.6379 195.655 23.372C194.891 28.1061 198.109 32.5634 202.843 33.3276C207.577 34.0918 212.034 30.8736 212.798 26.1395Z" fill="#F27370"/>
<path d="M202.991 44.1722C202.944 44.1722 202.901 42.5742 202.901 40.5872C202.901 38.6003 202.944 37.0076 202.991 37.0076C203.084 38.1984 203.114 39.3932 203.082 40.5872C203.114 41.783 203.084 42.9796 202.991 44.1722Z" fill="#F27370"/>
<path d="M197.989 34.9889C198.032 34.9889 197.217 36.5124 196.168 38.3288C195.118 40.1453 194.229 41.6049 194.186 41.5782C194.143 41.5516 194.958 40.0601 196.008 38.2383C197.057 36.4165 197.947 34.9623 197.989 34.9889Z" fill="#F27370"/>
<path d="M192.854 31.7927C192.22 32.4144 191.544 32.9911 190.83 33.5186C190.154 34.0959 189.443 34.6296 188.699 35.1167C189.333 34.4951 190.009 33.9184 190.723 33.3908C191.397 32.8107 192.109 32.2768 192.854 31.7927Z" fill="#F27370"/>
<path d="M211.653 40.6405C211.549 40.3554 211.472 40.0611 211.424 39.7616C211.301 39.2289 211.12 38.4618 210.891 37.6308C210.662 36.7998 210.444 36.0647 210.278 35.532C210.168 35.248 210.085 34.9535 210.033 34.6531C210.185 34.9181 210.308 35.1984 210.401 35.4894C210.598 36.0221 210.843 36.7519 211.067 37.5829C211.291 38.4139 211.445 39.1809 211.541 39.7136C211.611 40.0177 211.649 40.3284 211.653 40.6405Z" fill="#F27370"/>
<path d="M220.458 34.392C219.564 33.7288 218.707 33.0175 217.891 32.2613C217.035 31.5536 216.219 30.7996 215.446 30.0027C216.339 30.666 217.196 31.3773 218.013 32.1334C218.869 32.8412 219.685 33.5952 220.458 34.392Z" fill="#F27370"/>
<path d="M223.83 25.8052C223.472 25.7832 223.115 25.7334 222.765 25.6561C222.12 25.5496 221.23 25.4111 220.245 25.2992C219.26 25.1873 218.359 25.1181 217.709 25.0755C217.352 25.0747 216.996 25.0444 216.644 24.9849C216.997 24.9369 217.354 24.9244 217.709 24.9476C218.365 24.9476 219.27 25.0062 220.261 25.1181C221.252 25.2299 222.147 25.3897 222.786 25.5282C223.142 25.5882 223.491 25.681 223.83 25.8052Z" fill="#F27370"/>
<path d="M223.841 17.3622C223.841 17.4155 221.976 17.8949 219.643 18.4808C217.31 19.0668 215.414 19.4663 215.382 19.4184C215.35 19.3704 217.251 18.8857 219.579 18.3051C221.907 17.7244 223.83 17.3143 223.841 17.3622Z" fill="#F27370"/>
<path d="M214.039 7.52856C214.076 7.52856 213.182 8.98813 212.031 10.7247C210.88 12.4613 209.9 13.8569 209.868 13.8249C209.836 13.793 210.726 12.3654 211.876 10.6288C212.544 9.5594 213.266 8.52465 214.039 7.52856Z" fill="#F27370"/>
<path d="M204.296 5.47241C204.324 5.86966 204.324 6.26838 204.296 6.66563C204.296 7.40074 204.296 8.41285 204.296 9.5315C204.296 10.6501 204.296 11.6622 204.328 12.408C204.356 12.8035 204.356 13.2004 204.328 13.5959C204.252 13.2061 204.211 12.8104 204.206 12.4133C204.163 11.6782 204.126 10.6608 204.126 9.53682C204.126 8.41285 204.158 7.40607 204.2 6.66031C204.196 6.26226 204.228 5.86466 204.296 5.47241Z" fill="#F27370"/>
<path d="M196.924 14.6509C196.881 14.6775 195.965 13.2605 194.884 11.4867C193.802 9.71284 192.95 8.24795 192.992 8.22132C193.035 8.19468 193.951 9.61696 195.038 11.4174C196.125 13.2179 196.993 14.6296 196.924 14.6509Z" fill="#F27370"/>
<path d="M192.519 18.3955C192.207 18.3828 191.898 18.3345 191.597 18.2516C191.032 18.1291 190.26 17.9427 189.413 17.719C188.566 17.4952 187.815 17.1863 187.282 16.9998C186.984 16.9052 186.697 16.7802 186.425 16.627C186.732 16.6829 187.034 16.7685 187.325 16.8826C187.857 17.0531 188.63 17.2981 189.456 17.5432C190.281 17.7882 191.054 18.0013 191.618 18.1504C191.925 18.2035 192.227 18.2855 192.519 18.3955Z" fill="#F27370"/>
<path d="M190.601 25.0647C189.687 25.2474 188.761 25.3667 187.831 25.4216C186.907 25.5404 185.976 25.6009 185.045 25.6027C185.959 25.4191 186.884 25.2981 187.815 25.2405C188.739 25.1247 189.669 25.066 190.601 25.0647Z" fill="#F27370"/>
<path d="M184.678 179.811L192.444 235.141L194.469 235.205C193.179 216.412 191.805 197.245 184.678 179.811Z" fill="#455A64"/>
<path d="M206.257 177.216C200.829 183.145 198.645 191.343 197.27 199.275C195.321 210.52 195.14 223.805 195.731 235.205L198.565 235.269C197.442 215.606 200.052 195.908 206.257 177.216Z" fill="#455A64"/>
<path d="M186.105 212.544C185.482 209.801 184.768 207.015 183.202 204.677C181.071 201.523 177.646 199.531 174.178 197.975C170.711 196.42 167.072 195.184 163.94 193.032C167.435 198.758 175.361 200.282 179.388 205.641C181.396 208.304 182.233 211.649 183.016 214.894C184.736 221.968 185.791 228.088 187.506 235.136H189.808C189.051 227.535 187.814 219.989 186.105 212.544Z" fill="#455A64"/>
<path d="M200.637 235.205C200.637 235.205 202.582 213.232 204.025 209.194C205.469 205.156 219.105 194.012 218.978 194.54C218.85 195.067 208.745 207.26 207.301 209.78C205.858 212.299 203.386 235.205 203.386 235.205H200.637Z" fill="#455A64"/>
<path d="M136.171 212.224C136.71 212.44 137.199 212.762 137.61 213.171C138.021 213.58 138.345 214.068 138.563 214.606C138.998 215.685 139.18 216.849 139.096 218.009C138.984 220.247 137.87 222.575 136.624 224.439C134.648 222.926 134.035 220.108 133.811 218.654C133.46 216.363 134.216 212.006 136.182 212.224" fill="#F27370"/>
<path d="M139.026 227.96C138.858 227.333 138.858 226.673 139.028 226.046C139.197 225.419 139.529 224.848 139.99 224.391C140.458 223.943 141.01 223.592 141.614 223.359C142.219 223.127 142.864 223.018 143.512 223.038C143.805 223.019 144.1 223.063 144.376 223.166C144.651 223.27 144.901 223.432 145.11 223.64C145.273 223.87 145.371 224.14 145.393 224.422C145.416 224.703 145.362 224.985 145.237 225.238C144.987 225.741 144.606 226.168 144.135 226.474C142.579 227.598 140.869 228.397 139 227.966" fill="#F27370"/>
<path d="M137.071 234.928C137.072 234.774 137.084 234.621 137.109 234.47C137.146 234.145 137.194 233.724 137.252 233.223C137.374 231.835 137.718 230.475 138.27 229.196C138.85 227.916 139.76 226.813 140.907 226C141.256 225.763 141.631 225.568 142.025 225.419C142.131 225.376 142.24 225.341 142.35 225.313L142.467 225.286C141.943 225.506 141.442 225.778 140.971 226.096C139.868 226.92 138.99 228.008 138.419 229.26C137.868 230.524 137.509 231.864 137.354 233.234C137.274 233.767 137.21 234.182 137.157 234.475C137.144 234.628 137.115 234.78 137.071 234.928Z" fill="#263238"/>
<path d="M135.883 215.591C135.904 215.655 135.917 215.721 135.921 215.788L135.99 216.358C136.054 216.859 136.128 217.572 136.214 218.462C136.389 220.241 136.592 222.697 136.746 225.414C136.901 228.13 137.007 230.597 137.05 232.381C137.05 233.276 137.082 233.979 137.082 234.512V235.087C137.082 235.22 137.082 235.29 137.082 235.29C137.076 235.222 137.076 235.155 137.082 235.087L137.055 234.512C137.055 233.979 137.007 233.281 136.97 232.381C136.895 230.597 136.789 228.12 136.624 225.419C136.459 222.718 136.272 220.247 136.128 218.467C136.054 217.594 136 216.869 135.958 216.363C135.958 216.129 135.926 215.937 135.915 215.788C135.9 215.723 135.889 215.657 135.883 215.591Z" fill="#263238"/>
<path d="M135.878 229.526C135.566 228.195 134.941 226.957 134.054 225.915C133.167 224.874 132.045 224.059 130.78 223.539C130.136 223.278 129.305 223.134 128.82 223.635C128.335 224.135 128.506 224.961 128.82 225.59C129.457 226.896 130.466 227.984 131.72 228.718C132.974 229.451 134.417 229.798 135.868 229.713" fill="#F27370"/>
<path d="M131.217 225.622C131.358 225.657 131.496 225.707 131.627 225.771C131.755 225.824 131.915 225.888 132.091 225.978C132.266 226.069 132.474 226.165 132.687 226.303C132.923 226.439 133.151 226.588 133.369 226.751C133.625 226.933 133.87 227.128 134.104 227.337C134.641 227.814 135.121 228.35 135.537 228.935C135.945 229.531 136.281 230.173 136.539 230.847C136.647 231.14 136.74 231.439 136.815 231.742C136.884 232.007 136.939 232.276 136.981 232.547C137.019 232.769 137.044 232.993 137.055 233.218C137.069 233.395 137.069 233.573 137.055 233.75C137.069 233.894 137.069 234.038 137.055 234.182C137.018 234.182 137.055 233.564 136.869 232.584C136.823 232.318 136.762 232.055 136.688 231.795C136.606 231.497 136.508 231.204 136.395 230.917C136.135 230.257 135.803 229.628 135.404 229.041C134.996 228.461 134.528 227.926 134.008 227.443C133.779 227.233 133.539 227.036 133.289 226.852C133.065 226.671 132.831 226.532 132.623 226.394C131.782 225.877 131.206 225.654 131.217 225.622Z" fill="#263238"/>
<path d="M42.5509 205.944L27.5664 218.233L42.764 236.947C44.4633 235.386 40.1911 222.788 40.1911 222.788L50.1151 215.33L42.5509 205.944Z" fill="#455A64"/>
<g opacity="0.6">
<path d="M36.3027 216.348C36.1023 216.212 35.859 216.155 35.6194 216.188C35.3797 216.22 35.1603 216.34 35.003 216.523C34.8596 216.719 34.7967 216.963 34.8274 217.204C34.8582 217.444 34.9801 217.664 35.1681 217.818C35.3834 217.956 35.6413 218.012 35.8946 217.976C36.148 217.94 36.3798 217.814 36.5478 217.621C36.6754 217.4 36.7129 217.139 36.6523 216.892C36.5917 216.645 36.4378 216.431 36.2228 216.294" fill="white"/>
</g>
<g opacity="0.6">
<path d="M27.6252 218.18L29.1327 216.934L43.0466 235.492C43.0466 235.492 43.3555 236.622 42.6897 237L27.6252 218.18Z" fill="white"/>
</g>
<path d="M40.5322 223.017C40.4417 223.092 39.9995 222.665 39.3656 222.458C38.7317 222.25 38.1298 222.319 38.0978 222.202C38.0659 222.085 38.7051 221.797 39.4988 222.069C40.2925 222.34 40.6334 222.969 40.5322 223.017Z" fill="#263238"/>
<path d="M41.3154 225.643C41.2461 225.734 40.7827 225.467 40.1275 225.467C39.4723 225.467 39.0089 225.713 38.9396 225.622C38.8704 225.531 39.3391 225.047 40.1328 225.057C40.9265 225.068 41.4006 225.569 41.3154 225.643Z" fill="#263238"/>
<path d="M39.8503 228.663C39.7597 228.599 40.1166 228.099 40.8091 227.928C41.5016 227.758 42.045 228.024 41.997 228.12C41.9491 228.216 41.4643 228.173 40.9316 228.322C40.399 228.472 39.9515 228.749 39.8503 228.663Z" fill="#263238"/>
<path d="M42.6045 221.062C42.4926 221.094 42.2795 220.572 41.8214 220.082C41.3633 219.592 40.8786 219.325 40.9158 219.213C40.9531 219.102 41.5977 219.213 42.125 219.805C42.6524 220.396 42.7163 221.051 42.6045 221.062Z" fill="#263238"/>
<path d="M44.4634 218.835C44.4261 218.867 44.0799 218.553 43.707 217.892C43.4938 217.505 43.3275 217.094 43.2116 216.667C43.1435 216.415 43.0937 216.159 43.0625 215.9C43.0378 215.747 43.0378 215.59 43.0625 215.437C43.0818 215.325 43.1361 215.223 43.2175 215.144C43.2989 215.066 43.4032 215.015 43.5152 215C43.6158 214.993 43.7167 215.01 43.8093 215.05C43.902 215.09 43.9838 215.151 44.0479 215.229C44.1454 215.349 44.226 215.481 44.2876 215.623C44.4007 215.863 44.4916 216.112 44.5593 216.369C44.6744 216.799 44.7194 217.245 44.6925 217.69C44.7136 218.104 44.6036 218.514 44.3782 218.862C44.3196 218.862 44.4315 218.404 44.3782 217.69C44.3615 217.276 44.2917 216.866 44.1704 216.47C44.0974 216.24 44.0066 216.015 43.8988 215.799C43.7922 215.559 43.6537 215.389 43.5259 215.41C43.3981 215.431 43.462 215.41 43.4353 215.517C43.4199 215.628 43.4199 215.741 43.4353 215.852C43.4619 216.095 43.501 216.337 43.5525 216.577C43.6452 216.984 43.7753 217.381 43.9414 217.764C44.1426 218.107 44.3171 218.465 44.4634 218.835Z" fill="#263238"/>
<path d="M44.2396 218.803C44.197 218.803 44.3781 218.335 44.9427 217.818C45.2771 217.522 45.6589 217.284 46.072 217.115C46.3181 217.016 46.5732 216.941 46.8338 216.891C46.9985 216.842 47.1731 216.835 47.341 216.873C47.5088 216.91 47.6643 216.99 47.7926 217.104C47.8589 217.189 47.8996 217.292 47.91 217.399C47.9204 217.507 47.9 217.615 47.8512 217.711C47.7795 217.847 47.6899 217.972 47.5849 218.084C47.4043 218.293 47.1922 218.473 46.9563 218.617C46.5635 218.851 46.1188 218.985 45.6619 219.006C44.8788 219.032 44.458 218.739 44.4846 218.707C44.8679 218.728 45.252 218.728 45.6352 218.707C46.0398 218.656 46.4286 218.518 46.7752 218.303C46.9757 218.179 47.1554 218.024 47.3079 217.844C47.4837 217.653 47.5849 217.45 47.505 217.392C47.4203 217.338 47.3252 217.303 47.226 217.29C47.1267 217.276 47.0257 217.283 46.9297 217.312C46.6927 217.354 46.4594 217.414 46.2319 217.493C45.8515 217.636 45.4929 217.831 45.1665 218.074C44.5539 218.468 44.2929 218.835 44.2396 218.803Z" fill="#263238"/>
<path d="M35.7646 215.98L35.9458 235.349L60.0552 235.247C59.9061 232.946 47.4092 228.37 47.4092 228.37L47.8034 215.953L35.7646 215.98Z" fill="#455A64"/>
<g opacity="0.6">
<path d="M39.9514 227.359C39.7193 227.43 39.5218 227.585 39.3969 227.794C39.2721 228.002 39.2286 228.249 39.2749 228.488C39.3389 228.722 39.4899 228.922 39.697 229.048C39.904 229.173 40.1513 229.215 40.3882 229.164C40.6294 229.083 40.8334 228.918 40.9634 228.699C41.0933 228.48 41.1406 228.222 41.0967 227.971C41.0055 227.734 40.826 227.54 40.5956 227.432C40.3653 227.324 40.1019 227.309 39.8608 227.391" fill="white"/>
</g>
<g opacity="0.6">
<path d="M35.9404 235.285V233.324L59.1283 234.113C59.1283 234.113 60.1937 234.582 60.0765 235.338L35.9404 235.285Z" fill="white"/>
</g>
<path d="M47.8034 228.258C47.8034 228.376 47.2121 228.434 46.6315 228.791C46.0508 229.148 45.7472 229.67 45.6407 229.622C45.5341 229.574 45.7046 228.898 46.4131 228.445C47.1215 227.992 47.8407 228.152 47.8034 228.258Z" fill="#263238"/>
<path d="M50.3336 229.292C50.3336 229.409 49.8541 229.612 49.4546 230.112C49.0551 230.613 48.9219 231.135 48.826 231.135C48.7302 231.135 48.6343 230.464 49.1403 229.851C49.6464 229.239 50.3336 229.18 50.3336 229.292Z" fill="#263238"/>
<path d="M51.7826 232.318C51.676 232.318 51.5109 231.753 51.7826 231.108C52.0542 230.464 52.6349 230.203 52.6828 230.299C52.7308 230.395 52.3952 230.746 52.1501 231.279C51.9051 231.812 51.8998 232.302 51.7826 232.318Z" fill="#263238"/>
<path d="M47.5797 225.419C47.5264 225.526 46.9884 225.366 46.3225 225.419C45.6567 225.473 45.14 225.68 45.076 225.579C45.0121 225.478 45.5128 225.046 46.2959 225.009C47.0789 224.972 47.6329 225.323 47.5797 225.419Z" fill="#263238"/>
<path d="M46.9885 222.564C46.5945 222.673 46.1786 222.673 45.7846 222.564C45.0901 222.441 44.425 222.188 43.8243 221.818C43.6887 221.743 43.5649 221.648 43.4568 221.536C43.3821 221.451 43.3367 221.344 43.3271 221.231C43.3175 221.117 43.3443 221.004 43.4035 220.907C43.4634 220.822 43.5433 220.753 43.6361 220.706C43.729 220.658 43.832 220.634 43.9362 220.636C44.0894 220.635 44.2419 220.657 44.389 220.7C45.086 220.86 45.73 221.198 46.2587 221.68C46.818 222.213 47.0151 222.633 46.9725 222.655C46.9299 222.676 46.6476 222.33 46.0723 221.904C45.7455 221.656 45.3872 221.454 45.0069 221.302C44.7805 221.212 44.5471 221.14 44.3091 221.089C44.0534 221.025 43.8403 221.025 43.7764 221.137C43.7125 221.248 43.7764 221.195 43.8084 221.27C43.8855 221.353 43.9754 221.423 44.0747 221.477C44.2814 221.609 44.4948 221.73 44.7139 221.84C45.0898 222.024 45.4822 222.172 45.8858 222.282C46.2592 222.352 46.6275 222.446 46.9885 222.564Z" fill="#263238"/>
<path d="M46.8392 222.729C46.7966 222.729 46.5622 222.33 46.5142 221.563C46.4917 221.116 46.5458 220.67 46.674 220.242C46.7509 219.987 46.8526 219.741 46.9777 219.506C47.0418 219.347 47.1461 219.206 47.2805 219.099C47.4149 218.992 47.5749 218.921 47.7448 218.894C47.8568 218.891 47.9673 218.921 48.0622 218.98C48.1571 219.04 48.232 219.127 48.2774 219.229C48.3385 219.371 48.3815 219.519 48.4053 219.672C48.4578 220.033 48.4377 220.402 48.3462 220.756C48.2548 221.11 48.0938 221.442 47.8726 221.733C47.4038 222.362 46.9138 222.505 46.9031 222.463C46.8925 222.42 47.2707 222.175 47.6276 221.573C47.837 221.228 47.9663 220.84 48.0058 220.439C48.0402 220.207 48.0402 219.972 48.0058 219.741C47.9632 219.485 47.8673 219.277 47.7714 219.304C47.6755 219.331 47.4464 219.496 47.3506 219.703C47.2326 219.913 47.1328 220.132 47.0523 220.359C46.9196 220.747 46.8425 221.152 46.8232 221.563C46.7753 222.271 46.9031 222.713 46.8392 222.729Z" fill="#263238"/>
<path d="M37.8312 103.727C37.8312 103.727 34.4486 107.344 32.7919 110.812C31.1353 114.279 30.0699 122.531 30.0699 122.531C30.0699 122.531 25.4036 132.923 26.112 138.24C26.8205 143.556 31.5721 179.949 31.5721 179.949C31.5721 179.949 31.3377 215.298 34.7043 221.6L35.4554 225.004L49.0496 222.564L48.9644 220.524L52.1605 151.211L60.3426 104.02L37.8312 103.727Z" fill="#263238"/>
<path d="M67.827 114.034C67.827 114.034 75.9505 158.78 76.6696 166.541C77.3888 174.303 49.721 215.256 49.721 215.256L37.075 202.082L55.229 168.336L49.3268 134.324L57.5355 104.275L66.1544 104.579L67.827 114.034Z" fill="#263238"/>
<path d="M32.5952 210.59C32.609 210.921 32.641 211.252 32.6911 211.58C32.7763 212.23 32.9361 213.178 33.1599 214.414C33.6127 216.875 34.3478 220.444 35.3332 224.903V224.999H35.4291L49.0286 222.612H49.1299V222.506C49.5081 213.178 49.9608 202.029 50.4456 190.07C50.9463 177.206 51.4098 165.274 51.7933 155.488C52.8107 147.626 53.6524 141.106 54.2437 136.573C54.526 134.314 54.7497 132.54 54.9042 131.315C54.9734 130.718 55.032 130.25 55.0693 129.935C55.1066 129.621 55.1119 129.461 55.1119 129.461C55.1119 129.461 55.08 129.616 55.032 129.93C54.9841 130.244 54.9148 130.713 54.8296 131.304C54.6592 132.524 54.4141 134.298 54.0998 136.551C53.5032 141.063 52.6349 147.578 51.5696 155.446C51.1754 165.231 50.6906 177.163 50.1686 190.028C49.6998 201.987 49.263 213.136 48.9008 222.463L49.0073 222.341L35.4238 224.786L35.5357 224.86C34.5235 220.407 33.7618 216.843 33.2771 214.393C33.0373 213.162 32.8616 212.214 32.7444 211.57C32.6858 211.25 32.6538 211.005 32.6325 210.84C32.6244 210.756 32.612 210.672 32.5952 210.59Z" fill="#455A64"/>
<path d="M16.8115 85.2103C16.8115 85.2103 25.228 67.0669 27.2149 66.1028C29.2018 65.1386 34.9123 64.8137 35.6847 65.9003L20.5989 87.6234L16.8115 85.2103Z" fill="#455A64"/>
<path d="M17.2483 82.7602C16.8766 82.5545 16.4407 82.4973 16.0285 82.6004C13.413 83.2503 3.85655 85.7966 2.79117 88.5293C1.55534 91.6774 9.11418 132.588 10.089 133.696C11.0638 134.804 26.0963 132.945 26.5597 131.198C27.0231 129.45 21.6696 85.3544 21.6696 85.3544L17.2483 82.7602Z" fill="#455A64"/>
<path d="M5.38542 110.625C5.38542 110.625 4.53312 110.678 3.68614 112.559C2.83917 114.439 4.3307 129.706 5.45467 131.267C6.57864 132.827 9.86 133.158 9.86 133.158L5.38542 110.625Z" fill="#455A64"/>
<path d="M22.1384 132.034C22.1081 132.004 22.0829 131.97 22.0639 131.933L21.8614 131.618C21.6857 131.341 21.4513 130.921 21.1743 130.361C20.4121 128.776 19.8348 127.108 19.4537 125.391C18.9004 122.848 18.5019 120.274 18.2605 117.683C17.9515 114.764 17.6106 111.557 17.2484 108.191C16.5239 101.458 15.922 95.3529 15.8208 90.905C15.7675 88.6837 15.8208 86.8885 15.8794 85.6474C15.9113 85.0295 15.9486 84.5447 15.9806 84.2198C15.9806 84.0706 16.0072 83.9534 16.0179 83.8522C16.0123 83.8098 16.0123 83.7668 16.0179 83.7244C16.0238 83.7668 16.0238 83.8098 16.0179 83.8522C16.0179 83.9534 16.0179 84.0759 16.0179 84.2251C16.0179 84.5713 16.0179 85.0508 15.9699 85.6527C15.938 86.8885 15.922 88.6837 16.0019 90.8997C16.151 95.3316 16.7849 101.431 17.5094 108.164C17.861 111.525 18.1965 114.732 18.5002 117.651C18.7274 120.237 19.1045 122.807 19.6295 125.349C19.991 127.059 20.5357 128.725 21.2542 130.319C21.5152 130.878 21.7336 131.304 21.8934 131.592L22.0692 131.917C22.1225 132.007 22.1438 132.007 22.1384 132.034Z" fill="#263238"/>
<path d="M17.3443 107.77C16.7559 107.914 16.1602 108.026 15.5598 108.105C14.4624 108.292 12.9443 108.585 11.2982 108.995C9.65224 109.405 8.16604 109.853 7.10599 110.199C6.53999 110.411 5.96189 110.589 5.37476 110.732C5.50633 110.635 5.65184 110.56 5.80623 110.508C6.09389 110.38 6.51471 110.21 7.04207 110.012C9.79436 108.985 12.6533 108.271 15.5651 107.882C16.0978 107.812 16.5719 107.765 16.8861 107.749C17.0391 107.734 17.1934 107.741 17.3443 107.77Z" fill="#263238"/>
<path d="M5.18829 108.937C5.2222 109.016 5.24376 109.101 5.25222 109.187C5.2895 109.384 5.33212 109.624 5.38539 109.911L5.82752 112.575C6.20573 114.828 6.7544 117.939 7.42558 121.359C8.09677 124.779 8.81057 127.863 9.33261 130.09C9.5883 131.155 9.79605 132.061 9.95585 132.726L10.1157 133.446C10.14 133.529 10.1525 133.615 10.1529 133.701C10.1099 133.627 10.0793 133.546 10.0624 133.461L9.84931 132.753C9.67353 132.14 9.42849 131.245 9.14084 130.138C8.57086 127.922 7.84108 124.843 7.15391 121.417C6.46674 117.992 5.95004 114.871 5.61977 112.601C5.45464 111.472 5.33212 110.551 5.26287 109.938C5.23091 109.645 5.20427 109.405 5.18297 109.203C5.17452 109.114 5.17631 109.025 5.18829 108.937Z" fill="#263238"/>
<path d="M15.8795 90.5163C15.8565 90.136 15.8852 89.7543 15.9647 89.3816C16.2346 87.572 16.7044 85.798 17.3657 84.0921C17.4812 83.7295 17.6442 83.3838 17.8504 83.064C17.925 83.0959 17.3177 84.7153 16.7851 86.7928C16.2524 88.8703 15.9754 90.5269 15.8795 90.5163Z" fill="#263238"/>
<path d="M68.6901 51.6725C68.6049 50.1331 68.4131 42.6168 68.3225 41.4982C68.2269 39.9391 67.5548 38.4714 66.4368 37.3805C65.8856 36.8403 65.1878 36.474 64.4302 36.3272C63.6725 36.1804 62.8884 36.2596 62.1753 36.5549C61.725 36.6687 61.3129 36.8996 60.9808 37.2243C60.6486 37.5489 60.4083 37.9557 60.2843 38.4033C57.1308 49.5897 57.6208 61.5592 56.2358 73.1505C60.3535 73.8217 65.8935 73.55 70.0538 73.3316C70.0431 64.0735 69.2601 61.6924 68.6901 51.6725Z" fill="#263238"/>
<path d="M66.959 67.4773C66.9347 67.3798 66.9239 67.2794 66.9271 67.179C66.9271 66.9552 66.9004 66.6463 66.8844 66.3213C66.8844 65.5383 66.8259 64.4623 66.7886 63.1572C66.73 60.4511 66.6554 56.7649 66.5702 52.7218C66.5382 50.6816 66.5062 48.7426 66.4796 46.9741C66.4796 46.0899 66.4796 45.2535 66.453 44.4652C66.4624 43.752 66.4125 43.0393 66.3038 42.3344C66.2408 41.8201 66.0648 41.3261 65.7885 40.8878C65.5123 40.4494 65.1425 40.0776 64.7058 39.7988C64.3765 39.618 64.0141 39.5057 63.6404 39.4685C63.6404 39.4685 63.6404 39.4685 63.715 39.4685C63.7893 39.4604 63.8643 39.4604 63.9387 39.4685C64.2313 39.4956 64.5156 39.5807 64.775 39.7189C65.1849 39.9367 65.5387 40.2467 65.8084 40.6245C66.1667 41.126 66.4087 41.701 66.5169 42.3078C66.6421 43.0308 66.7045 43.7633 66.7033 44.4971C66.7033 45.2855 66.7353 46.1271 66.7566 47.0061C66.7886 48.7746 66.8259 50.7349 66.8685 52.7538C66.9217 56.8129 66.9697 60.4884 67.007 63.1891C67.007 64.4995 67.007 65.5703 67.007 66.3533C67.007 66.7049 67.007 66.9872 67.007 67.2163C66.9982 67.3044 66.9822 67.3918 66.959 67.4773Z" fill="#455A64"/>
<path d="M63.214 63.2263C63.1781 63.0044 63.1621 62.7798 63.166 62.5551C63.166 62.1183 63.1394 61.4897 63.1394 60.712C63.1394 59.1566 63.1714 56.9832 63.23 54.6341C63.2886 52.2849 63.3525 50.1701 63.4004 48.5614C63.4004 47.8263 63.443 47.2084 63.459 46.7236C63.4541 46.4967 63.4737 46.2699 63.5176 46.0471C63.5536 46.2708 63.5696 46.4972 63.5656 46.7236C63.5656 47.1551 63.5656 47.789 63.5656 48.5667C63.5656 50.1222 63.5336 52.2955 63.475 54.6394C63.4164 56.9832 63.3472 59.1033 63.3045 60.712C63.2779 61.4471 63.2619 62.065 63.2459 62.5551C63.2595 62.7793 63.2488 63.0044 63.214 63.2263Z" fill="#455A64"/>
<path d="M36.0896 66.103C35.5569 66.103 25.5104 66.8168 23.1772 77.5771C20.844 88.3374 20.1729 103.412 20.1729 103.412L31.0663 102.347L36.0896 66.103Z" fill="#F27370"/>
<path d="M41.0222 63.7218L42.7907 60.4565L58.2387 60.0356L59.3041 62.8163L68.4077 66.103L67.6459 106.438L74.3898 143.678C74.3898 143.678 74.3205 149.053 56.3636 150.758L54.9413 131.293L45.9655 131.08L46.2106 150.092C46.2106 150.092 30.3684 149.836 25.3452 146.251C25.3452 146.251 23.8217 128.14 28.1471 115.094C31.9345 103.673 33.4101 100.712 33.4101 100.712L33.719 66.4865L41.0222 63.7218Z" fill="#F27370"/>
<g opacity="0.3">
<path d="M36.2493 66.5664C33.1455 79.8516 30.0381 93.1422 26.9272 106.438L30.0861 109.789C31.7046 109.034 33.0758 107.835 34.0404 106.332C35.005 104.829 35.5235 103.084 35.5355 101.298C35.5355 99.4546 34.9495 97.6594 34.875 95.8163C34.7045 91.6613 37.0057 87.8526 38.0711 83.8308C39.536 78.1364 38.4653 72.0211 36.2493 66.5664Z" fill="black"/>
</g>
<path d="M66.4369 65.5864C70.1657 66.2736 73.0369 70.2155 73.8946 74.445C74.39 76.922 75.8335 88.8649 75.8335 88.8649L76.6272 93.2436C76.6272 93.2436 77.2931 108.292 74.1023 109.975C70.3735 111.936 68.2427 109.784 67.0069 108.207C65.7711 106.63 64.4553 96.3705 64.4553 96.3705L65.8456 71.8135L66.4369 65.5864Z" fill="#F27370"/>
<path d="M68.2 71.627C68.199 71.7718 68.1847 71.9162 68.1574 72.0584C68.1148 72.3603 68.0562 72.7705 67.9816 73.2889C67.8112 74.3543 67.5768 75.9151 67.2838 77.8008C66.9908 79.6865 66.6126 81.9824 66.2184 84.4967C66.0107 85.7538 65.7976 87.0749 65.5739 88.4439C65.3501 89.8129 65.0731 91.2246 64.956 92.7054C64.8841 93.542 64.8841 94.3832 64.956 95.2197C66.1119 100.392 67.1932 104.957 68.0083 108.228C68.4184 109.826 68.7487 111.147 68.9884 112.079C69.1003 112.511 69.1908 112.852 69.2601 113.113C69.3014 113.232 69.3283 113.355 69.34 113.48C69.2852 113.368 69.2423 113.25 69.2121 113.129L68.8925 112.106C68.6262 111.211 68.2533 109.906 67.8271 108.276C66.9642 105.016 65.8509 100.451 64.6896 95.2836C64.6178 94.4328 64.6178 93.5775 64.6896 92.7267C64.8068 91.2459 65.0838 89.8289 65.3129 88.4652C65.5419 87.1015 65.7656 85.8018 65.9734 84.518C66.3995 82.009 66.7831 79.7238 67.1027 77.8328C67.4223 75.9417 67.6993 74.4236 67.8911 73.3316C67.9869 72.8255 68.0615 72.4153 68.1201 72.1117C68.1288 71.9477 68.1555 71.7851 68.2 71.627Z" fill="#263238"/>
<path d="M28.6638 68.6173L31.4871 106.438C31.4871 106.438 36.7713 82.3446 36.9844 76.1814C37.1463 72.6466 36.7873 69.1072 35.919 65.6768C35.919 65.6768 30.7946 64.8511 28.6638 68.6173Z" fill="#455A64"/>
<path d="M27.0338 66.2202C27.3826 66.3281 27.7042 66.5098 27.9766 66.7529C28.2946 67.0072 28.5331 67.3474 28.6638 67.733C28.814 68.1888 28.9087 68.661 28.9461 69.1393C29.0367 70.1408 29.0313 71.0464 29.0313 71.7016C29.0542 72.0572 29.0399 72.4143 28.9887 72.7669C28.883 72.4218 28.8309 72.0625 28.8342 71.7016C28.781 71.0517 28.7597 70.1461 28.6691 69.1607C28.5786 68.1752 28.3548 67.2909 27.8754 66.8808C27.396 66.4706 27.0071 66.2628 27.0338 66.2202Z" fill="#263238"/>
<path d="M46.6261 67.5892C46.6261 67.5892 46.5036 67.4879 46.3065 67.2589C46.1094 67.0298 45.8324 66.7262 45.4861 66.2734H45.6459C45.2624 67.3867 44.6764 69.0008 44.0106 70.8119L43.9147 71.0676L43.7709 70.8492C43.691 70.7267 43.5951 70.6042 43.5205 70.4763C43.0738 69.6752 42.7046 68.8333 42.4178 67.962C42.1355 67.1683 41.8852 66.4545 41.704 65.8313C41.5229 65.208 41.3418 64.7659 41.2193 64.4197C41.1459 64.2478 41.0888 64.0695 41.0488 63.887C41.1644 64.0332 41.2561 64.1968 41.3205 64.3717C41.475 64.6913 41.6667 65.1707 41.8905 65.762C42.1142 66.3533 42.3752 67.0778 42.6575 67.8448C42.954 68.6944 43.3211 69.5176 43.7549 70.3059C43.8295 70.4284 43.9147 70.5402 43.9893 70.6521L43.7496 70.6894C44.4261 68.8836 45.0387 67.2802 45.4755 66.1828L45.5341 66.0284L45.6353 66.1615C45.9979 66.6141 46.329 67.0911 46.6261 67.5892Z" fill="#263238"/>
<path d="M58.8779 64.9897C58.8371 65.1655 58.7744 65.3355 58.6915 65.4958C58.553 65.8154 58.3399 66.2682 58.0736 66.8275C57.8072 67.3868 57.477 68.0474 57.0881 68.7772C56.68 69.5774 56.2135 70.3466 55.6925 71.0784L55.5167 71.3181L55.4474 71.0251L55.4208 70.9026C54.984 69.0435 54.6058 67.3549 54.3554 66.1084L54.5259 66.151C54.1547 66.5056 53.7456 66.8182 53.306 67.0832C53.0184 67.291 52.8852 67.4401 52.8692 67.4241C52.8532 67.4081 52.9598 67.243 53.2368 66.998C53.6435 66.7037 54.0248 66.3758 54.3767 66.0178L54.4993 65.874L54.5525 66.0604C54.8615 67.2803 55.2716 68.9636 55.7085 70.8227V70.9452L55.4634 70.8919C55.974 70.171 56.4384 69.4184 56.8537 68.6387L57.8871 66.7263L58.585 65.4319C58.6638 65.2729 58.7623 65.1243 58.8779 64.9897Z" fill="#263238"/>
<path d="M46.8924 67.4401C46.8924 67.4401 45.3956 86.8833 45.0067 89.3869C44.6178 91.8905 45.9496 131.08 45.9496 131.08L54.707 131.645C54.707 131.645 54.7975 99.2842 54.707 99.0605C54.6164 98.8368 54.7496 76.2135 54.7496 76.2135L52.7626 67.2004L49.3747 71.2116L46.8924 67.4401Z" fill="white"/>
<path d="M56.6673 85.9243C56.6673 85.9669 56.3584 86.0361 56.2039 86.457C56.159 86.5699 56.139 86.6912 56.1455 86.8126C56.1519 86.934 56.1846 87.0526 56.2412 87.1601C56.3225 87.2785 56.4378 87.3695 56.572 87.4209C56.7061 87.4722 56.8527 87.4816 56.9923 87.4478C57.1346 87.4316 57.2684 87.3717 57.3753 87.2763C57.4821 87.1809 57.5568 87.0547 57.5889 86.9151C57.6043 86.7944 57.5932 86.6719 57.5564 86.556C57.5196 86.44 57.458 86.3335 57.3758 86.2439C57.2063 86.0732 56.989 85.9581 56.7526 85.9136C56.7526 85.9136 56.8218 85.8604 56.9657 85.8604C57.1663 85.8818 57.3538 85.9699 57.4983 86.1107C57.6147 86.2169 57.7046 86.3487 57.761 86.4958C57.8174 86.6428 57.8387 86.801 57.8233 86.9577C57.7801 87.1503 57.6812 87.326 57.539 87.4629C57.3968 87.5997 57.2174 87.6918 57.0233 87.7275C56.8291 87.7633 56.6288 87.7412 56.4471 87.664C56.2654 87.5868 56.1105 87.4579 56.0015 87.2933C55.9299 87.1521 55.8926 86.9961 55.8926 86.8378C55.8926 86.6796 55.9299 86.5235 56.0015 86.3824C56.0889 86.1946 56.2398 86.0436 56.4276 85.9562C56.5821 85.8976 56.662 85.9083 56.6673 85.9243Z" fill="#263238"/>
<path d="M56.6673 102.896C56.6673 102.938 56.3583 103.013 56.2039 103.428C56.1589 103.541 56.139 103.663 56.1454 103.784C56.1519 103.905 56.1845 104.024 56.2411 104.131C56.3271 104.245 56.4429 104.332 56.5755 104.383C56.7081 104.434 56.8524 104.448 56.9922 104.422C57.132 104.396 57.2618 104.331 57.3672 104.236C57.4725 104.141 57.5493 104.018 57.5888 103.881C57.6046 103.76 57.5937 103.638 57.5569 103.522C57.5201 103.406 57.4583 103.299 57.3758 103.21C57.0775 102.874 56.7472 102.922 56.7525 102.874C56.7578 102.826 56.8218 102.821 56.9656 102.826C57.1659 102.845 57.3538 102.932 57.4983 103.071C57.6136 103.178 57.7029 103.31 57.7592 103.457C57.8156 103.604 57.8375 103.762 57.8232 103.918C57.78 104.111 57.6812 104.287 57.5389 104.424C57.3967 104.56 57.2174 104.652 57.0232 104.688C56.8291 104.724 56.6287 104.702 56.4471 104.625C56.2654 104.547 56.1104 104.419 56.0014 104.254C55.9299 104.114 55.8926 103.959 55.8926 103.801C55.8926 103.644 55.9299 103.489 56.0014 103.348C56.0888 103.161 56.2397 103.01 56.4276 102.922C56.5821 102.869 56.662 102.885 56.6673 102.896Z" fill="#263238"/>
<path d="M57.429 123.426C57.429 123.468 57.1201 123.543 56.9656 123.958C56.9207 124.071 56.9007 124.193 56.9072 124.314C56.9136 124.435 56.9463 124.554 57.0029 124.661C57.0889 124.775 57.2046 124.862 57.3373 124.913C57.4699 124.964 57.6141 124.978 57.7539 124.952C57.8937 124.926 58.0235 124.862 58.1289 124.766C58.2343 124.671 58.311 124.548 58.3506 124.411C58.3664 124.29 58.3555 124.168 58.3187 124.052C58.2818 123.936 58.22 123.829 58.1375 123.74C57.8392 123.404 57.5089 123.452 57.5143 123.404C57.5196 123.356 57.5835 123.351 57.7273 123.356C57.9281 123.373 58.1165 123.46 58.26 123.601C58.3773 123.707 58.4683 123.839 58.5256 123.986C58.583 124.133 58.6051 124.291 58.5903 124.448C58.548 124.642 58.4494 124.82 58.3067 124.958C58.164 125.096 57.9837 125.189 57.7884 125.224C57.5932 125.26 57.3916 125.238 57.2092 125.159C57.0268 125.081 56.8716 124.95 56.7632 124.784C56.6929 124.643 56.6562 124.488 56.6562 124.331C56.6562 124.174 56.6929 124.019 56.7632 123.878C56.8506 123.691 57.0015 123.54 57.1893 123.452C57.3598 123.399 57.429 123.415 57.429 123.426Z" fill="#263238"/>
<g opacity="0.3">
<path d="M68.7967 85.7699C68.6049 84.2198 68.1947 82.7016 68.0935 81.1409C67.9657 79.2765 68.2906 77.4121 67.9231 75.553C66.6553 77.6837 66.3676 80.2246 66.3623 82.691C66.357 85.1573 66.586 87.6343 66.2344 90.0741C65.9947 91.7467 65.4514 93.7549 65.249 95.4329C65.0465 97.1109 65.526 98.0324 66.016 100.552C67.7047 95.7845 69.4146 90.7932 68.7967 85.7699Z" fill="black"/>
</g>
<path d="M65.84 81.8066C66.8459 84.6818 67.1717 87.751 66.7919 90.7733C66.412 93.7956 65.3368 96.6887 63.6506 99.2255" fill="#F27370"/>
<path d="M63.651 99.2257C63.603 99.1937 64.1837 98.3521 64.8868 96.8712C65.2922 96.0082 65.6374 95.1183 65.9202 94.2078C66.2549 93.0835 66.5007 91.9347 66.6553 90.7719C66.7916 89.6071 66.8379 88.4335 66.7938 87.2615C66.7481 86.3049 66.636 85.3527 66.4582 84.4116C66.1439 82.8136 65.787 81.8441 65.8403 81.8228C65.9561 82.0342 66.049 82.2574 66.1173 82.4886C66.1972 82.707 66.2878 82.9734 66.373 83.2876C66.4582 83.6019 66.5754 83.9642 66.65 84.353C66.8574 85.3019 66.991 86.2654 67.0495 87.2349C67.1908 89.6132 66.891 91.9971 66.1653 94.2663C65.8652 95.1806 65.4966 96.071 65.0626 96.9298C64.8868 97.308 64.6897 97.6276 64.5299 97.9099C64.3914 98.1555 64.2402 98.3937 64.0771 98.6237C63.9568 98.8389 63.8139 99.0407 63.651 99.2257Z" fill="#263238"/>
<path d="M39.3815 107.504C39.0075 107.272 38.6639 106.995 38.3587 106.678C36.8021 105.235 35.4362 103.599 34.2943 101.809C34.0338 101.451 33.8207 101.061 33.6604 100.648C33.9553 100.979 34.2209 101.336 34.4541 101.713C34.9282 102.369 35.5941 103.263 36.3824 104.212C37.1708 105.16 37.9326 105.97 38.5132 106.555C38.8286 106.847 39.1191 107.164 39.3815 107.504Z" fill="#263238"/>
<path d="M35.8766 108.063C35.6513 107.757 35.4719 107.419 35.3439 107.061C34.594 105.384 34.0571 103.62 33.7458 101.809C33.6544 101.438 33.6167 101.056 33.6339 100.674C33.7138 100.674 34.0228 102.363 34.646 104.403C35.2693 106.443 35.9511 108.036 35.8766 108.063Z" fill="#263238"/>
<path d="M53.0076 97.915C53.0076 97.9523 52.6827 97.7445 52.1554 97.5368C51.467 97.2681 50.7275 97.1559 49.9904 97.2084C49.2533 97.261 48.5372 97.4768 47.8938 97.8404C47.4038 98.1227 47.1428 98.3731 47.1055 98.3305C47.2777 98.0593 47.5136 97.8344 47.7926 97.6753C48.4401 97.2432 49.1894 96.9879 49.966 96.9348C50.7416 96.8752 51.5191 97.0222 52.2193 97.361C52.5234 97.4783 52.7941 97.6686 53.0076 97.915Z" fill="#263238"/>
<path d="M23.433 96.6527C23.433 96.6527 19.5177 100.914 19.816 103.887C20.1143 106.859 21.4993 113.4 25.1429 113.203C28.7865 113.006 32.1264 107.109 32.6005 102.432C33.0746 97.7553 32.6005 86.75 32.6005 86.75L27.3749 87.9272L23.433 96.6527Z" fill="#FFBE9D"/>
<path d="M15.6556 69.379C18.3617 72.8361 25.0682 81.1727 25.0682 81.1727L31.3806 79.5746C31.6061 79.5183 31.8092 79.395 31.9632 79.221C32.1172 79.047 32.215 78.8304 32.2436 78.5998C32.2622 78.4489 32.2505 78.2959 32.2094 78.1495C32.1682 78.0032 32.0984 77.8665 32.0038 77.7475L23.1559 66.561C22.8257 66.1414 22.3705 65.8377 21.8562 65.694C21.3419 65.5504 20.7952 65.5742 20.2954 65.762L16.2523 67.2802C16.0539 67.3551 15.8758 67.4755 15.7323 67.6317C15.5887 67.7878 15.4838 67.9754 15.4258 68.1794C15.3678 68.3834 15.3584 68.5982 15.3983 68.8065C15.4382 69.0148 15.5263 69.2108 15.6556 69.379Z" fill="#263238"/>
<path d="M31.5723 78.1579C31.3548 77.9808 31.1517 77.7866 30.9651 77.5772C30.5869 77.1831 30.0489 76.6131 29.4043 75.8939C28.1152 74.4504 26.3893 72.3995 24.6101 70.0344C24.168 69.4431 23.7418 68.8625 23.337 68.2925C23.0022 67.7347 22.5518 67.2551 22.0159 66.8862C21.7556 66.7652 21.472 66.7024 21.1849 66.7024C20.8978 66.7024 20.6142 66.7652 20.3539 66.8862L18.8624 67.4189L16.6837 68.138C16.4215 68.2394 16.1505 68.3161 15.874 68.3671C16.1229 68.2378 16.381 68.1274 16.6464 68.0368L18.7772 67.2324L20.2634 66.6997C20.5485 66.5933 20.8454 66.5218 21.1476 66.4867C21.4853 66.4588 21.8238 66.5291 22.1225 66.6891C22.699 67.0685 23.1847 67.5705 23.5447 68.1593L24.8179 69.8959C26.5864 72.2557 28.2803 74.3172 29.5321 75.7874C30.1341 76.4959 30.6401 77.0818 31.0237 77.5293C31.2231 77.7238 31.4065 77.934 31.5723 78.1579Z" fill="#455A64"/>
<path d="M19.2406 68.2178C19.3353 68.1712 19.4418 68.1538 19.5464 68.1678C19.6511 68.1818 19.7492 68.2266 19.8283 68.2964C19.9075 68.3663 19.9641 68.4581 19.991 68.5602C20.0178 68.6623 20.0137 68.7701 19.9792 68.8699C19.9447 68.9697 19.8813 69.0569 19.7971 69.1206C19.7129 69.1843 19.6117 69.2215 19.5063 69.2276C19.4009 69.2336 19.2961 69.2082 19.2051 69.1546C19.1142 69.1009 19.0413 69.0215 18.9956 68.9263C18.9348 68.7997 18.9265 68.6543 18.9724 68.5217C19.0183 68.389 19.1147 68.2798 19.2406 68.2178Z" fill="white"/>
<path d="M24.6528 75.7765L21.7336 76.2613L20.6682 77.2201C20.5176 77.3501 20.4018 77.5156 20.3311 77.7016C20.2604 77.8876 20.2372 78.0882 20.2634 78.2855C20.3464 78.8104 20.5753 79.3014 20.9239 79.7024C21.3 80.1691 21.725 80.5942 22.1917 80.9702C22.1917 80.9702 21.169 82.6322 22.7564 83.4738C22.7564 83.4738 22.6498 85.1944 24.3172 85.3702C24.3172 85.3702 24.8019 87.0056 26.0591 87.0961L27.3535 88.3799L26.9593 89.163L32.7496 89.3441C32.779 87.7994 32.7024 86.2545 32.5206 84.7203C32.4222 84.096 32.2707 83.4811 32.0678 82.8826C32.3608 81.2525 31.1409 80.5707 30.9545 80.6879C30.9545 80.6879 33.7191 79.9634 33.3675 78.0617L30.7041 78.7436L25.8406 79.7557L28.9622 77.6729C29.1169 77.5309 29.253 77.3698 29.367 77.1935C29.6334 76.7726 30.0276 76.0109 29.692 75.5634C29.5482 75.377 25.7128 76.9804 25.7128 76.9804L23.337 79.1697L22.5913 78.1043C22.5913 78.1043 25.0363 77.6036 24.6528 75.7765Z" fill="#FFBE9D"/>
<path d="M31.3273 80.7094C31.3273 80.7947 30.2992 80.9385 29.0687 81.3007C27.8382 81.6629 26.8793 82.0838 26.842 82.0092C27.4812 81.5472 28.2053 81.2159 28.9728 81.0344C29.7279 80.7694 30.5286 80.6589 31.3273 80.7094Z" fill="#EB996E"/>
<path d="M29.9901 85.7218C30.3383 85.4052 30.6607 85.0614 30.9543 84.6937L31.0555 84.5606L31.1248 84.7151C31.2205 84.9188 31.3899 85.0787 31.5989 85.1625C31.7086 85.2174 31.831 85.2424 31.9535 85.2349C32.076 85.2274 32.1944 85.1877 32.2967 85.1199C32.3409 85.0857 32.3737 85.0388 32.3908 84.9856C32.408 84.9324 32.4086 84.8752 32.3926 84.8216L32.3127 84.3422C32.2727 84.0091 32.2068 83.6796 32.1156 83.3567C32.0719 83.2196 31.9849 83.1004 31.8678 83.0168C31.7506 82.9333 31.6095 82.8899 31.4657 82.8933C31.1646 82.9063 30.8669 82.9619 30.5814 83.0584L29.0206 83.4419C28.5457 83.5809 28.0588 83.6754 27.5664 83.7243C28.0204 83.5254 28.491 83.3667 28.9727 83.2502L30.5068 82.8134C30.8178 82.6985 31.1451 82.6338 31.4763 82.6216C31.6659 82.6257 31.8504 82.6829 32.009 82.7867C32.17 82.907 32.2923 83.0718 32.3606 83.2608C32.4569 83.6011 32.5264 83.9484 32.5683 84.2996C32.5683 84.4647 32.6163 84.6298 32.6429 84.7896C32.6625 84.889 32.6534 84.9919 32.6166 85.0862C32.5798 85.1806 32.5169 85.2625 32.4352 85.3223C32.2962 85.4148 32.135 85.4685 31.9683 85.4779C31.8016 85.4873 31.6355 85.4519 31.487 85.3756C31.2433 85.2526 31.0536 85.0439 30.9543 84.7896H31.1194C30.8965 85.0689 30.6346 85.3147 30.3417 85.5194C30.1233 85.6632 30.0008 85.7378 29.9901 85.7218Z" fill="#EB996E"/>
<path d="M24.871 77.6731C24.4856 78.2746 24.0508 78.8429 23.5712 79.3724C23.1667 79.9608 22.7123 80.5133 22.2129 81.0237C22.4835 80.3613 22.8635 79.7491 23.3369 79.2126C23.7533 78.6128 24.2727 78.0916 24.871 77.6731Z" fill="#EB996E"/>
<path d="M26.0751 79.6812C26.0751 79.7611 25.4678 79.9529 25.0097 80.5761C24.7702 80.9718 24.5907 81.4009 24.477 81.8493C24.4397 81.8493 24.3865 81.6895 24.3971 81.4125C24.4299 81.0514 24.5596 80.706 24.7724 80.4125C24.9853 80.119 25.2734 79.8885 25.6063 79.7451C25.894 79.6493 26.0644 79.6493 26.0751 79.6812Z" fill="#EB996E"/>
<path d="M57.3226 36.768C56.8751 35.596 57.0509 34.291 56.8751 33.0391C56.4916 30.3065 54.2916 28.1118 51.7453 27.0411C49.3749 26.0503 46.4824 26.2633 43.6272 27.1796C41.6439 27.7785 39.8721 28.9296 38.5187 30.4982C37.6562 31.5621 37.0611 32.817 36.7831 34.158C36.505 35.4991 36.5522 36.8872 36.9206 38.2062L50.909 36.1873C52.2141 37.2527 53.5725 38.3767 55.1439 38.9839C55.6017 39.1879 56.1048 39.2687 56.6035 39.2183C56.8474 39.1848 57.0768 39.083 57.2654 38.9247C57.4539 38.7663 57.5938 38.5579 57.6688 38.3234C57.8286 37.796 57.5197 37.2793 57.3226 36.768Z" fill="#263238"/>
<path d="M48.6288 26.343C51.6917 25.8103 54.3818 27.0089 56.96 28.7401C59.5347 30.5191 61.5032 33.0435 62.6012 35.974C63.7784 39.0263 64.0767 43.4316 63.1339 46.5798C62.7274 48.058 61.9697 49.416 60.9253 50.5382C59.881 51.6605 58.5809 52.5137 57.1358 53.0254C52.9276 54.5169 48.0801 54.3304 44.5005 51.635C40.9208 48.9396 38.9072 44.481 38.7421 40.0171C38.5851 36.9186 39.4069 33.8492 41.0913 31.2437C41.94 29.9553 43.0449 28.8553 44.337 28.0122C45.6292 27.1691 47.081 26.6009 48.6022 26.343" fill="#263238"/>
<path d="M43.7656 59.6521L43.8775 62.1451L49.3749 71.8667L57.3652 61.639L57.6368 36.07C57.626 35.4986 57.4011 34.9522 57.0064 34.5388C56.6118 34.1254 56.0764 33.8753 55.5061 33.8381L43.3022 31.2332C39.4136 30.9722 37.0165 35.8356 36.91 39.7562C36.8034 44.087 36.8354 49.3766 37.4426 52.578C38.7158 59.0182 43.7124 59.6574 43.7124 59.6574" fill="#FFBE9D"/>
<path d="M38.689 45.1204C38.6932 45.3375 38.7827 45.5443 38.9383 45.6958C39.0938 45.8474 39.3028 45.9315 39.52 45.9301C39.6262 45.9344 39.7323 45.9174 39.8319 45.8801C39.9315 45.8429 40.0226 45.7862 40.1 45.7132C40.1774 45.6403 40.2395 45.5527 40.2826 45.4554C40.3257 45.3582 40.3489 45.2534 40.351 45.147C40.3427 44.9317 40.2517 44.7279 40.0969 44.5781C39.9421 44.4282 39.7354 44.3439 39.52 44.3427C39.414 44.3377 39.308 44.354 39.2085 44.3906C39.1089 44.4273 39.0176 44.4835 38.9402 44.556C38.8627 44.6285 38.8006 44.7158 38.7574 44.8128C38.7143 44.9097 38.691 45.0143 38.689 45.1204Z" fill="#263238"/>
<path d="M38.1885 42.2491C38.2951 42.3557 38.9076 41.8656 39.7866 41.8336C40.6655 41.8017 41.3527 42.2225 41.4432 42.1106C41.5338 41.9988 41.3793 41.8709 41.081 41.6738C40.6857 41.4176 40.2197 41.2927 39.7493 41.3169C39.2848 41.3318 38.837 41.4941 38.4708 41.7804C38.2205 41.9828 38.1353 42.2012 38.1885 42.2491Z" fill="#263238"/>
<path d="M46.802 44.9659C46.8076 45.1835 46.8983 45.3902 47.0547 45.5416C47.2111 45.693 47.4207 45.777 47.6383 45.7756C47.7439 45.7798 47.8492 45.763 47.9482 45.726C48.0472 45.689 48.1377 45.6327 48.2146 45.5603C48.2915 45.4878 48.3532 45.4008 48.396 45.3042C48.4388 45.2076 48.4619 45.1035 48.464 44.9978C48.4598 44.7807 48.3702 44.574 48.2147 44.4224C48.0591 44.2709 47.8502 44.1867 47.633 44.1881C47.527 44.1831 47.4211 44.1994 47.3215 44.2361C47.2219 44.2727 47.1307 44.329 47.0532 44.4015C46.9757 44.474 46.9136 44.5613 46.8704 44.6582C46.8273 44.7552 46.804 44.8598 46.802 44.9659Z" fill="#263238"/>
<path d="M46.6795 42.0416C46.786 42.1481 47.3986 41.6581 48.2775 41.6261C49.1565 41.5941 49.8756 42.0203 49.9395 41.9031C50.0034 41.7859 49.8756 41.6634 49.5773 41.4663C49.182 41.2101 48.716 41.0852 48.2456 41.1094C47.781 41.1243 47.3333 41.2866 46.9671 41.5728C46.7114 41.7966 46.6262 41.983 46.6795 42.0416Z" fill="#263238"/>
<path d="M43.984 48.8386C43.508 48.7089 43.0177 48.6391 42.5244 48.6308C42.2953 48.6308 42.0769 48.5776 42.0343 48.4231C42.0047 48.188 42.0494 47.9496 42.1622 47.7412L42.7694 45.978C43.6164 43.4691 44.2184 41.4076 44.1171 41.3756C44.0159 41.3437 43.2489 43.3466 42.4019 45.8609L41.8213 47.6347C41.6896 47.9159 41.6595 48.234 41.736 48.5349C41.7733 48.6136 41.8275 48.683 41.8948 48.7382C41.962 48.7934 42.0405 48.8332 42.1249 48.8546C42.2524 48.8837 42.3831 48.8963 42.5138 48.8918C43.004 48.9391 43.4984 48.9212 43.984 48.8386Z" fill="#263238"/>
<path d="M43.7656 59.6524C46.8252 59.4471 49.7821 58.4664 52.3579 56.8025C52.3579 56.8025 50.3443 61.3676 43.8349 61.0054L43.7656 59.6524Z" fill="#EB996E"/>
<path d="M44.6711 50.7616C44.8334 50.5832 45.0381 50.4486 45.2662 50.3704C45.4944 50.2922 45.7386 50.2728 45.9762 50.3141C46.1465 50.3301 46.3104 50.3869 46.4541 50.4796C46.5978 50.5723 46.7171 50.6982 46.8019 50.8468C46.9248 51.0267 46.9971 51.2363 47.0112 51.4538C47.0252 51.6712 46.9805 51.8884 46.8818 52.0826C46.7456 52.2506 46.5617 52.3731 46.3542 52.434C46.1468 52.4949 45.9258 52.4912 45.7205 52.4236C45.3335 52.3352 44.9701 52.1644 44.6551 51.9228C44.5535 51.8246 44.4831 51.6986 44.4527 51.5606C44.4314 51.4184 44.4424 51.2732 44.4848 51.1358C44.5272 50.9984 44.6 50.8724 44.6977 50.7669" fill="#EB996E"/>
<path d="M46.7326 39.948C46.8284 40.1878 47.718 40.0386 48.7674 40.1292C49.8168 40.2197 50.6851 40.4701 50.8129 40.2463C50.8715 40.1398 50.7171 39.9161 50.3655 39.7137C49.9011 39.4358 49.3768 39.2732 48.8367 39.2396C48.2916 39.1942 47.7437 39.2801 47.2386 39.4899C46.8764 39.6338 46.6899 39.8522 46.7326 39.948Z" fill="#263238"/>
<path d="M38.3004 38.3286C38.4655 38.5257 39.0728 38.2913 39.8132 38.2541C40.5536 38.2168 41.1875 38.3393 41.3207 38.1209C41.3793 38.0197 41.2728 37.8173 40.9958 37.6361C40.6184 37.4192 40.1851 37.3191 39.7509 37.3485C39.3166 37.3779 38.9008 37.5355 38.556 37.8013C38.3057 38.0197 38.2524 38.2541 38.3004 38.3286Z" fill="#263238"/>
<path d="M59.5596 34.8874C58.2971 31.1586 52.7785 26.0927 48.8632 26.439L42.6787 30.3063C42.902 31.37 43.4084 32.3537 44.1444 33.1535C44.8804 33.9533 45.8187 34.5394 46.8603 34.8501C47.9736 35.1644 49.3053 35.2336 49.9819 36.1712C50.6584 37.1087 50.3068 38.5523 50.9514 39.5431C51.8409 40.9174 54.2061 40.8056 54.8879 42.2971C55.1809 42.947 55.0477 43.73 55.3567 44.3799C55.7669 45.2375 57.9828 46.2976 58.8884 45.978C59.794 45.6583 59.762 44.1242 60.0443 43.3145C60.4006 42.3933 60.4289 41.3775 60.1242 40.438C59.6981 38.6215 60.1669 36.6559 59.5596 34.8874Z" fill="#263238"/>
<path d="M56.2251 46.809C56.2251 46.3243 56.7258 45.1683 57.1999 45.0725C58.4624 44.8274 60.7583 44.8434 60.9287 48.0768C61.1258 52.4928 56.6672 51.7737 56.6353 51.6512C56.6033 51.5286 56.2837 48.4763 56.2251 46.809Z" fill="#FFBE9D"/>
<path d="M57.887 49.9146C57.887 49.9146 57.9669 49.9678 58.0948 50.0211C58.1868 50.0593 58.2855 50.079 58.3851 50.079C58.4847 50.079 58.5834 50.0593 58.6754 50.0211C59.1335 49.8293 59.4904 49.0729 59.4798 48.2792C59.4762 47.8996 59.3851 47.5258 59.2134 47.1872C59.1674 47.0508 59.0884 46.9278 58.9833 46.8293C58.8783 46.7308 58.7506 46.6598 58.6115 46.6225C58.5219 46.6016 58.4277 46.6131 58.3458 46.6551C58.2638 46.697 58.1994 46.7666 58.164 46.8516C58.1108 46.9795 58.164 47.0647 58.1214 47.07C58.0788 47.0753 58.0202 47.0008 58.0522 46.8196C58.0689 46.7076 58.1257 46.6054 58.212 46.532C58.3301 46.4358 58.4812 46.3899 58.6328 46.4041C58.8158 46.431 58.9887 46.5051 59.1344 46.619C59.2801 46.733 59.3936 46.8829 59.4638 47.054C59.6683 47.4287 59.7797 47.8471 59.7887 48.2739C59.7887 49.1635 59.3786 50.0158 58.7233 50.2288C58.6064 50.2685 58.482 50.2815 58.3594 50.2667C58.2368 50.252 58.1191 50.2099 58.0149 50.1436C57.8977 50.0211 57.8711 49.9252 57.887 49.9146Z" fill="#EB996E"/>
<path d="M63.5657 40.7684C63.6993 40.3396 63.757 39.8907 63.7361 39.442C63.748 37.2581 63.0279 35.1332 61.6906 33.4066C61.4363 33.0382 61.121 32.7157 60.7584 32.4531C60.6732 32.5064 62.1541 33.9766 62.9318 36.3471C63.3695 37.7794 63.5833 39.2708 63.5657 40.7684Z" fill="#F27370"/>
<path d="M43.968 28.9746C43.5578 30.7697 40.8251 33.071 39.6212 34.4719C37.3307 37.1354 36.8992 37.5296 36.9152 45.5785C35.73 43.0799 35.1029 40.3534 35.0774 37.5882C35.131 35.2368 36.0423 32.9861 37.6396 31.2598C38.4446 30.414 39.4358 29.7676 40.5343 29.3718C41.6328 28.9761 42.8085 28.8419 43.968 28.9799" fill="#263238"/>
<path d="M61.8131 34.8287C61.5717 34.9169 61.3218 34.9793 61.0673 35.0152C60.8223 35.0684 60.5347 35.127 60.1724 35.1697C59.8102 35.2123 59.4213 35.2869 58.9739 35.3082C57.933 35.3843 56.8879 35.3843 55.847 35.3082C54.5693 35.2158 53.3011 35.0216 52.0543 34.7275C50.8115 34.4158 49.5964 34.0025 48.4213 33.4917C47.4645 33.0711 46.5404 32.5797 45.6567 32.0215C45.2678 31.7977 44.9482 31.5527 44.6606 31.3503C44.41 31.1854 44.1682 31.0076 43.9361 30.8176C43.729 30.6554 43.5348 30.4773 43.3555 30.2849C43.5828 30.4072 43.7985 30.5498 44 30.7111C44.1971 30.8602 44.4422 31.036 44.7405 31.2437C45.0388 31.4515 45.3637 31.6646 45.7526 31.8776C46.6406 32.4096 47.5643 32.8795 48.5172 33.2839C49.6786 33.7889 50.8772 34.2038 52.1022 34.5251C53.3288 34.8151 54.5751 35.0145 55.831 35.1217C56.8627 35.199 57.8984 35.2079 58.9313 35.1484C59.3734 35.1484 59.7729 35.0791 60.1192 35.0525C60.4654 35.0258 60.769 34.9779 61.0141 34.9406C61.277 34.8818 61.5442 34.8444 61.8131 34.8287Z" fill="#455A64"/>
<path d="M62.2711 37.9983C62.0996 38.0619 61.9205 38.103 61.7384 38.1208C61.2683 38.2092 60.7934 38.2697 60.3162 38.302C57.1404 38.5349 53.9605 37.9074 51.1113 36.4855C50.681 36.2751 50.2631 36.0403 49.8595 35.7823C49.704 35.6972 49.5607 35.5915 49.4333 35.4681C49.4333 35.4308 50.0992 35.8196 51.1912 36.3204C54.0444 37.6319 57.1681 38.2471 60.3055 38.1155C61.5254 38.0676 62.2658 37.9504 62.2711 37.9983Z" fill="#455A64"/>
<path d="M63.3898 38.105C63.466 38.3202 63.5161 38.5437 63.539 38.7708C63.6082 39.2076 63.6775 39.8362 63.7201 40.6193C63.768 41.5366 63.768 42.4559 63.7201 43.3733C63.6782 44.5004 63.5265 45.6208 63.2673 46.7185C62.7473 48.7358 61.5349 50.5063 59.8421 51.7205C59.3283 52.0714 58.7782 52.3661 58.2014 52.5994C57.9964 52.6986 57.7799 52.7719 57.5569 52.8178C57.7484 52.6965 57.9498 52.5913 58.1588 52.5035C58.7088 52.2372 59.2346 51.9235 59.7303 51.566C60.457 51.0286 61.0905 50.3753 61.6053 49.6323C62.2534 48.7355 62.7285 47.7257 63.0063 46.6546C63.2582 45.5713 63.4151 44.4679 63.475 43.3573C63.539 42.3292 63.5496 41.4023 63.5336 40.6246C63.5177 39.8469 63.4804 39.2183 63.4378 38.7868C63.4014 38.5614 63.3854 38.3332 63.3898 38.105Z" fill="#455A64"/>
<path d="M45.7739 52.4128C46.0131 52.4151 46.2491 52.3584 46.4611 52.2477C46.5649 52.1839 46.6537 52.0985 46.7217 51.9975C46.7897 51.8964 46.8353 51.7819 46.8553 51.6617C46.8792 51.5145 46.8706 51.3638 46.8301 51.2203C46.7896 51.0767 46.7182 50.9438 46.6209 50.8307C46.4138 50.6087 46.1301 50.4735 45.8272 50.4525C45.5721 50.4372 45.3178 50.4925 45.0921 50.6123C44.6979 50.8201 44.5594 51.0758 44.4955 51.0491C44.4316 51.0225 44.5754 50.7295 44.9909 50.4419C45.2409 50.2742 45.5369 50.1885 45.8379 50.1968C46.0251 50.2011 46.2095 50.2435 46.3798 50.3213C46.5502 50.3991 46.7029 50.5109 46.8287 50.6496C46.9544 50.7935 47.0449 50.9647 47.0929 51.1496C47.141 51.3345 47.1454 51.5281 47.1057 51.715C47.0764 51.8658 47.0133 52.0079 46.921 52.1307C46.8287 52.2534 46.7097 52.3535 46.573 52.4235C46.0722 52.6366 45.7473 52.4341 45.7739 52.4128Z" fill="#263238"/>
<path d="M73.0208 88.7849L75.3965 83.7191C75.7907 82.121 77.3994 81.5883 79.3704 81.4605L81.4532 80.6082C81.4532 80.6082 82.9714 78.4188 84.3777 78.4774C84.4879 78.4812 84.5942 78.5191 84.682 78.5859C84.7698 78.6527 84.8347 78.7451 84.8677 78.8503C84.8915 78.9219 84.8985 78.998 84.8884 79.0728C84.8782 79.1476 84.8511 79.2191 84.8091 79.2818L83.0992 81.9133L81.7355 82.5844C81.7355 82.5844 83.014 82.8934 83.52 82.4193C84.0261 81.9452 85.736 80.5922 85.736 80.5922C85.736 80.5922 87.0411 78.243 88.735 78.4188C88.7858 78.4234 88.8346 78.4405 88.8772 78.4685C88.9198 78.4965 88.9548 78.5347 88.979 78.5795C89.0033 78.6243 89.0161 78.6744 89.0163 78.7254C89.0164 78.7764 89.004 78.8266 88.9801 78.8716L87.6803 81.3806C87.6803 81.3806 90.0508 77.8169 92.3094 79.1486L89.8057 81.8706C89.8057 81.8706 93.4387 79.8091 94.8876 81.535L85.6934 85.3331L80.3932 86.3719L78.5394 91.4004L76.9094 90.4576L73.0208 88.7849Z" fill="#FFBE9D"/>
<path d="M78.5289 95.3637C78.5289 95.3637 78.8112 104.366 77.1492 106.848C75.4872 109.331 72.3976 112.708 68.5729 110.002L66.1812 100.946C66.1812 100.946 70.0751 96.6848 70.7836 94.9269C72.5468 90.5642 75.3967 83.7405 75.3967 83.7405L80.4678 85.9991L78.5289 95.3637Z" fill="#FFBE9D"/>
<path d="M71.3587 94.1011C71.202 94.4977 71.0094 94.8793 70.7834 95.241C70.4106 95.9282 69.9098 96.887 69.4144 97.9737C68.919 99.0604 68.5195 100.067 68.2372 100.802C68.114 101.209 67.9517 101.604 67.7524 101.98C67.8023 101.555 67.9043 101.138 68.0561 100.738C68.3602 99.7564 68.7286 98.7955 69.1587 97.8619C69.587 96.9255 70.0727 96.0164 70.613 95.1398C70.8186 94.7647 71.0691 94.4159 71.3587 94.1011Z" fill="#EB996E"/>
<path d="M83.0993 81.8865C82.7351 82.2056 82.3141 82.4532 81.8582 82.6163C81.442 82.8613 80.9827 83.0241 80.5051 83.0957C80.8679 82.7773 81.287 82.5298 81.741 82.3659C82.1591 82.1211 82.6202 81.9584 83.0993 81.8865Z" fill="#EB996E"/>
<path d="M83.8608 84.2677C83.8608 84.2305 84.1006 84.0706 84.532 83.8842L85.2991 83.5699L85.7412 83.3835C85.8888 83.3274 86.0192 83.2338 86.1194 83.1118C86.5829 82.5791 86.9611 82.0464 87.2647 81.6895C87.5683 81.3326 87.7974 81.1089 87.824 81.1568C87.7938 81.2191 87.76 81.2796 87.7228 81.338L87.4245 81.8067C87.0906 82.3279 86.7223 82.8262 86.3219 83.2982C86.2574 83.3723 86.186 83.4401 86.1088 83.5007C86.0287 83.5543 85.9429 83.5989 85.8531 83.6338L85.3897 83.8096C85.0967 83.9162 84.825 83.9961 84.6013 84.0706C84.3634 84.1661 84.1147 84.2323 83.8608 84.2677Z" fill="#EB996E"/>
</svg>