<svg width="232" height="217" viewBox="0 0 232 217" fill="none" xmlns="http://www.w3.org/2000/svg">
<path d="M42.4287 202.639C52.3271 196.52 55.1778 184.281 55.4379 173.179C55.4787 171.323 55.7948 169.38 55.0044 167.702C54.214 166.024 52.22 164.8 50.5167 165.489C49.1041 166.055 48.4157 167.625 47.5692 168.905C46.4393 170.614 44.8478 171.967 42.9795 172.807C41.7658 173.352 40.2818 173.648 39.1548 172.939C37.6249 171.965 37.5433 169.747 37.6606 167.906L38.3031 157.605C38.4204 155.764 38.5326 153.882 38.0584 152.097C37.5841 150.312 36.4112 148.619 34.6824 148.017C32.9536 147.416 30.7353 148.318 30.261 150.103C30.151 150.862 30.0896 151.626 30.0775 152.393C29.9857 153.153 29.5675 153.979 28.8433 154.152C28.1192 154.326 27.3849 153.765 26.8647 153.193C25.0696 151.225 23.912 148.757 22.8411 146.304C21.7702 143.851 20.74 141.342 19.1286 139.215C17.5171 137.089 15.2172 135.345 12.5858 135.049C9.95435 134.753 7.06286 136.217 6.24692 138.767C5.43098 141.316 6.79768 144.05 8.33267 146.248C10.6009 149.514 13.3304 152.434 16.436 154.917C17.0448 155.3 17.5162 155.866 17.7823 156.534C18.1086 157.788 16.8796 158.941 15.6404 159.277C14.2431 159.655 12.7591 159.43 11.3108 159.517C9.86256 159.604 8.25107 160.154 7.65442 161.48C6.79258 163.321 8.25618 165.381 9.73507 166.763C12.6914 169.537 16.1037 171.779 19.8221 173.393C21.148 173.969 22.5504 174.484 23.5907 175.499C24.6311 176.514 25.1971 178.207 24.4628 179.467C23.7284 180.726 22.0099 181.048 20.6024 180.706C19.1949 180.364 17.971 179.518 16.6502 178.931C14.1717 177.835 10.8876 177.819 9.14351 179.921C7.99609 181.297 7.78701 183.296 8.23068 185.02C8.75851 186.745 9.62539 188.347 10.7805 189.732C14.5695 194.725 19.5518 198.855 25.3144 201.222C31.077 203.588 36.4826 204.45 42.444 202.644" fill="#F5F5F5"/>
<path d="M42.1072 210.881C41.8843 205.703 41.1636 200.56 39.9552 195.52C38.4546 189.369 36.6021 183.31 34.4068 177.371C33.8305 175.79 33.2645 174.224 32.7086 172.689C32.1528 171.154 31.5918 169.63 30.9544 168.171C29.7262 165.378 28.3455 162.654 26.8186 160.012C25.3754 157.462 23.9169 155.131 22.5349 152.944C21.1529 150.756 19.8219 148.747 18.5266 146.967C16.5057 144.145 14.2633 141.488 11.8206 139.022C10.9536 138.145 10.2907 137.492 9.78073 137.053L9.23507 136.543L9.04639 136.385C9.09522 136.453 9.15169 136.514 9.21467 136.569L9.72464 137.079C10.1836 137.533 10.8568 138.201 11.7033 139.088C14.1114 141.583 16.3276 144.256 18.3328 147.084C19.6077 148.869 20.9234 150.883 22.3003 153.071C23.6772 155.259 25.1153 157.635 26.5483 160.185C28.0551 162.82 29.417 165.536 30.628 168.319C31.2603 169.767 31.8111 171.277 32.3721 172.817L34.0651 177.498C36.2566 183.425 38.1157 189.469 39.6339 195.602C40.8496 200.621 41.5906 205.743 41.8472 210.901" fill="#E0E0E0"/>
<path d="M30.8574 168.156C30.9675 167.905 31.0512 167.644 31.1073 167.375C31.2348 166.866 31.3929 166.141 31.5714 165.229C31.9385 163.408 32.3516 160.879 32.8055 158.089C33.2593 155.3 33.703 152.78 34.0957 150.95C34.2895 150.042 34.4527 149.313 34.5699 148.808C34.6508 148.549 34.7004 148.282 34.7178 148.012C34.6014 148.256 34.5091 148.51 34.4425 148.772C34.2844 149.282 34.0855 149.991 33.8611 150.893C33.4123 152.699 32.9177 155.218 32.4689 158.033C32.0201 160.848 31.6377 163.286 31.3368 165.172C31.194 166.034 31.0716 166.758 30.9798 167.34C30.9057 167.606 30.8646 167.88 30.8574 168.156Z" fill="#E0E0E0"/>
<path d="M7.41455 162.388C7.7217 162.471 8.03578 162.526 8.35288 162.551C8.95464 162.643 9.83177 162.766 10.9027 162.949C13.0598 163.306 16.0023 163.908 19.261 164.708C22.5196 165.509 25.3805 166.371 27.4816 167.054C28.5015 167.386 29.3633 167.676 29.9396 167.875C30.2353 167.995 30.5407 168.088 30.8524 168.156C30.5785 167.99 30.2879 167.853 29.9855 167.748C29.4194 167.513 28.5933 167.187 27.5581 166.82C25.5182 166.08 22.591 165.183 19.3426 164.372C16.574 163.685 13.7724 163.139 10.9486 162.735C9.86237 162.582 8.97503 162.49 8.36818 162.444C8.05282 162.395 7.73349 162.376 7.41455 162.388Z" fill="#E0E0E0"/>
<path d="M39.6904 195.067C39.7636 194.982 39.8237 194.888 39.8689 194.786L40.3228 193.955C40.7155 193.226 41.2509 192.16 41.8986 190.839C43.1939 188.187 44.8716 184.47 46.6667 180.344C48.4618 176.218 50.0988 172.491 51.338 169.818C51.9448 168.518 52.4446 167.447 52.8169 166.657L53.2146 165.79C53.2672 165.691 53.3066 165.587 53.3319 165.479C53.2604 165.564 53.2004 165.658 53.1534 165.759C53.031 165.983 52.878 166.269 52.6996 166.595C52.3069 167.319 51.7714 168.385 51.1238 169.711C49.8285 172.363 48.1507 176.076 46.3556 180.206C44.5606 184.337 42.9236 188.06 41.6844 190.732L40.2055 193.894L39.8077 194.755C39.7552 194.854 39.7157 194.958 39.6904 195.067Z" fill="#E0E0E0"/>
<path d="M8.77637 183.133C8.87162 183.195 8.97445 183.245 9.08235 183.281L9.97988 183.638L13.2895 184.923C16.0841 186.009 19.919 187.55 24.1721 189.258C28.4252 190.966 32.2754 192.476 35.0955 193.501C36.503 194.011 37.6453 194.419 38.4409 194.684L39.3639 194.98C39.4672 195.026 39.5776 195.053 39.6903 195.061C39.595 194.999 39.4922 194.949 39.3843 194.913L38.4868 194.556L35.1873 193.282C32.3927 192.195 28.5578 190.655 24.3047 188.942C20.0516 187.228 16.2014 185.724 13.3864 184.699C11.9738 184.189 10.8366 183.781 10.036 183.521L9.11804 183.22C9.00787 183.178 8.89322 183.149 8.77637 183.133Z" fill="#E0E0E0"/>
<path d="M218.034 142.429C218.034 142.429 214.107 141.159 212.261 150.221C210.415 159.283 210.16 164.296 210.16 164.296C210.16 164.296 209.554 166.254 208.121 165.484C206.688 164.714 204.255 162.067 202.465 163.158C200.675 164.25 200.573 166.728 201.873 169.926C203.174 173.123 205.775 180.237 206.004 180.88C206.234 181.522 206.127 182.563 205.061 182.195C203.995 181.828 197.233 177.514 195.371 180.844C193.51 184.174 198.605 192.486 199.145 193.404C199.686 194.322 199.609 194.802 199.201 195.179C198.793 195.556 196.651 193.894 194.693 192.741C192.735 191.589 190.231 190.61 189.323 192.619C188.416 194.628 189.833 201.528 199.364 210.743L204.046 214.721L209.895 212.742C222.134 207.744 226.066 201.885 225.974 199.682C225.882 197.479 223.205 197.464 220.946 197.79C218.687 198.116 216.086 198.866 215.846 198.366C215.607 197.867 215.719 197.392 216.566 196.745C217.412 196.097 225.235 190.283 224.755 186.499C224.276 182.716 216.397 184.2 215.265 184.138C214.133 184.077 214.434 183.062 214.883 182.563C215.331 182.063 220.4 176.443 222.802 173.944C225.204 171.445 226.076 169.191 224.781 167.447C223.486 165.703 220.293 167.315 218.661 167.493C217.03 167.672 217.198 165.622 217.198 165.622C217.198 165.622 218.825 160.879 220.502 151.781C222.18 142.684 217.953 142.408 217.953 142.408" fill="#EBEBEB"/>
<path d="M203.383 216.052C204.642 209.376 207.075 197.545 209.115 187.376C211.155 177.208 212.985 167.998 214.276 161.343L215.805 153.438L216.219 151.291C216.27 151.052 216.305 150.868 216.331 150.736C216.343 150.672 216.358 150.609 216.377 150.547C216.377 150.547 216.377 150.613 216.351 150.741C216.326 150.868 216.295 151.057 216.259 151.302C216.168 151.812 216.04 152.526 215.877 153.454C215.545 155.325 215.046 158.043 214.413 161.368C213.159 168.044 211.354 177.254 209.314 187.417C207.274 197.581 204.816 209.407 203.526 216.077" fill="#E0E0E0"/>
<path d="M205.693 167.003C205.792 167.115 205.879 167.236 205.953 167.365C206.112 167.6 206.331 167.952 206.596 168.385C207.106 169.257 207.83 170.481 208.58 171.843L210.492 175.341L211.079 176.402C211.158 176.526 211.225 176.657 211.277 176.795C211.175 176.686 211.086 176.567 211.012 176.438C210.854 176.198 210.635 175.851 210.375 175.418C209.865 174.536 209.166 173.307 208.417 171.94C207.667 170.573 206.994 169.39 206.479 168.457L205.887 167.401C205.804 167.279 205.738 167.145 205.693 167.003Z" fill="#E0E0E0"/>
<path d="M211.848 176.754C211.823 176.713 214.281 175.153 217.341 173.271C220.4 171.389 222.904 169.905 222.95 169.946C222.996 169.987 220.518 171.553 217.458 173.434C214.398 175.316 211.879 176.8 211.848 176.754Z" fill="#E0E0E0"/>
<path d="M208.019 192.226C208.156 192.16 208.302 192.112 208.452 192.083L209.64 191.757C210.66 191.482 212.027 191.094 213.541 190.61C215.056 190.125 216.407 189.646 217.387 189.289L218.544 188.865C218.683 188.804 218.828 188.759 218.978 188.733C218.85 188.814 218.715 188.882 218.575 188.937C218.31 189.054 217.917 189.222 217.438 189.416C216.469 189.804 215.117 190.309 213.598 190.793C212.078 191.278 210.686 191.645 209.671 191.89C209.161 192.007 208.753 192.099 208.467 192.155C208.32 192.192 208.17 192.216 208.019 192.226Z" fill="#E0E0E0"/>
<path d="M200.507 184.633C200.624 184.708 200.732 184.797 200.828 184.898L201.664 185.678C202.363 186.341 203.317 187.264 204.362 188.294C205.408 189.324 206.351 190.268 207.024 190.956L207.815 191.777C207.918 191.873 208.008 191.981 208.085 192.099C207.968 192.023 207.86 191.934 207.764 191.833L206.927 191.053C206.229 190.39 205.275 189.462 204.23 188.432C203.184 187.402 202.241 186.458 201.568 185.775L200.777 184.949C200.674 184.856 200.583 184.75 200.507 184.633Z" fill="#E0E0E0"/>
<path d="M195.387 197.856C195.534 197.96 195.672 198.076 195.8 198.203L196.871 199.197C197.768 200.044 199.002 201.237 200.354 202.527C201.705 203.817 202.929 205.031 203.806 205.898L204.826 206.918C204.961 207.037 205.083 207.17 205.188 207.316C205.04 207.214 204.901 207.098 204.775 206.969L203.704 205.975C202.807 205.133 201.573 203.935 200.216 202.645C198.86 201.354 197.666 200.146 196.769 199.274L195.749 198.254C195.614 198.134 195.493 198.001 195.387 197.856Z" fill="#E0E0E0"/>
<path d="M205.005 207.045C205.178 206.963 205.359 206.898 205.545 206.852L207.04 206.383C208.299 205.985 210.038 205.434 211.94 204.766C213.843 204.098 215.551 203.455 216.78 202.981L218.243 202.42C218.42 202.343 218.603 202.28 218.789 202.231C218.628 202.333 218.457 202.418 218.279 202.486C217.943 202.639 217.453 202.854 216.841 203.109C215.622 203.619 213.919 204.281 212.012 204.944C210.104 205.607 208.36 206.148 207.086 206.51C206.448 206.694 205.933 206.831 205.556 206.923C205.375 206.975 205.191 207.016 205.005 207.045Z" fill="#E0E0E0"/>
<path d="M50.7976 29.4409C51.156 29.415 51.5122 29.3639 51.8634 29.2879C52.7241 29.0828 53.5094 28.639 54.1292 28.0075C54.7489 27.3761 55.1779 26.5825 55.3669 25.7182C55.4499 25.3037 55.4858 24.8811 55.4739 24.4586C55.4739 24.0149 55.4739 23.5508 55.4739 23.0766C55.4739 21.1642 55.4739 18.9969 55.4739 16.5796C55.4739 14.1624 55.4739 11.5412 55.4739 8.71092C55.4739 8.00208 55.4739 7.28303 55.4739 6.55378C55.5197 5.8222 55.4648 5.0878 55.3108 4.37114C55.1155 3.63732 54.7412 2.96342 54.2214 2.40983C53.7017 1.85624 53.0527 1.44026 52.3326 1.19918C51.5725 0.973088 50.7774 0.88839 49.9868 0.949297H31.6587C30.7709 0.94666 29.9015 1.20155 29.1556 1.68309C28.4098 2.16462 27.8196 2.85213 27.4566 3.6623C27.2777 4.0557 27.1574 4.47321 27.0996 4.9015C27.0449 5.33442 27.021 5.7707 27.0283 6.20701V8.82821C27.0283 12.2909 27.0283 15.6311 27.0283 18.8082C27.0283 20.3993 27.0283 21.9546 27.0283 23.459C26.9878 24.1931 27.0203 24.9293 27.1251 25.657C27.2712 26.3457 27.5711 26.9924 28.0023 27.5489C28.4138 28.0775 28.9351 28.5104 29.5303 28.8177C30.1256 29.125 30.7804 29.2994 31.4496 29.3287C32.75 29.3287 33.9994 29.3287 35.2182 29.3287L46.6159 29.3695H49.7165H50.5222H50.7925H50.5222H49.7165H46.6159L35.2182 29.4154C34.0147 29.4154 32.7602 29.4154 31.4394 29.4154C30.7398 29.3878 30.0545 29.2084 29.431 28.8897C28.8076 28.5709 28.2609 28.1204 27.8289 27.5693C27.3749 26.9859 27.0577 26.308 26.9008 25.5856C26.7913 24.843 26.7554 24.0914 26.7937 23.3417C26.7937 21.8119 26.7937 20.282 26.7937 18.6909C26.7937 15.5138 26.7937 12.1736 26.7937 8.71092V6.20701C26.725 5.29951 26.8736 4.38871 27.2271 3.5501C27.6146 2.69664 28.2393 1.97264 29.0269 1.46447C29.8145 0.9563 30.7316 0.685411 31.6689 0.684116H49.9511C50.7696 0.624015 51.5922 0.713882 52.3785 0.949297C53.1329 1.20865 53.8121 1.64935 54.3562 2.23267C54.9004 2.81599 55.293 3.52407 55.4994 4.29465C55.6556 5.0317 55.7122 5.78638 55.6677 6.53848C55.6677 7.26773 55.6677 7.98678 55.6677 8.69562C55.6677 11.5259 55.6677 14.1573 55.6677 16.5643C55.6677 18.9714 55.6677 21.154 55.6677 23.0613C55.6677 23.5355 55.6677 23.9996 55.6677 24.4433C55.677 24.8749 55.636 25.3062 55.5453 25.7284C55.3803 26.4765 55.0413 27.1753 54.556 27.7682C53.8818 28.5767 52.9579 29.1382 51.9297 29.3644C51.6666 29.4227 51.3985 29.4552 51.1291 29.4613L50.7976 29.4409Z" fill="#E0E0E0"/>
<path d="M43.719 5.29395L35.7891 16.4774H41.5618L37.6504 24.9632L46.6615 13.0607L41.2253 13.1678L43.719 5.29395Z" fill="#F5F5F5"/>
<path d="M41.567 81.095C42.0656 81.0712 42.5592 80.9838 43.0357 80.8349C43.6114 80.6438 44.1435 80.3405 44.6013 79.9425C45.2291 79.4056 45.7041 78.7125 45.9782 77.9333C46.3351 77.0612 46.2382 76.0056 46.2433 74.8735C46.2484 73.7414 46.2433 72.492 46.2433 71.1661C46.2433 68.504 46.2433 65.4749 46.2433 62.1244C46.2433 58.774 46.2433 55.1073 46.2433 51.1704V48.1667C46.2433 47.1468 46.3402 46.1014 45.9323 45.1478C45.5565 44.1703 44.8609 43.3489 43.9587 42.8172C43.502 42.5508 43.0038 42.3629 42.4849 42.2614C41.9484 42.1807 41.4053 42.1517 40.8632 42.1747H12.0555C11.442 42.1793 10.8355 42.3058 10.2714 42.5471C9.70724 42.7883 9.19674 43.1393 8.76961 43.5798C8.34247 44.0202 8.00722 44.5412 7.78338 45.1125C7.55955 45.6837 7.4516 46.2938 7.46582 46.9071C7.46582 49.3958 7.46582 51.8453 7.46582 54.2557C7.46582 59.0748 7.46582 63.7206 7.46582 68.1522C7.46582 70.3654 7.46582 72.5226 7.46582 74.6236C7.49642 75.669 7.36383 76.7195 7.6545 77.6834C7.93738 78.6262 8.51238 79.4547 9.29658 80.0496C10.0549 80.6282 10.9747 80.9562 11.928 80.9879C12.8663 80.9879 13.8046 80.9879 14.7175 80.9879H19.9752L35.835 81.0287L40.1493 81.0542H41.2712C41.5262 81.0542 41.6537 81.0542 41.6537 81.0542C41.6537 81.0542 41.5262 81.0542 41.2712 81.0542H40.1493H35.835L19.8885 81.1919H14.6308C13.718 81.1919 12.7898 81.1919 11.8311 81.1919C10.8336 81.1647 9.87007 80.8239 9.0773 80.2179C8.25292 79.5969 7.6489 78.7284 7.35363 77.7395C7.20946 77.2425 7.13901 76.727 7.14454 76.2096V74.6491C7.14454 72.5481 7.14454 70.3909 7.14454 68.1777C7.14454 63.7461 7.14454 59.1003 7.14454 54.2812V46.9122C7.12871 46.2669 7.24038 45.6249 7.47316 45.0228C7.70593 44.4207 8.05523 43.8705 8.50104 43.4037C8.95472 42.9307 9.49947 42.5545 10.1025 42.2977C10.7054 42.0409 11.3542 41.9089 12.0096 41.9095H40.8173C41.3749 41.8869 41.9333 41.9177 42.4849 42.0013C43.0246 42.1109 43.5418 42.3109 44.0148 42.5929C44.9636 43.1501 45.6926 44.0159 46.0802 45.0458C46.2783 45.5428 46.3853 46.0714 46.3963 46.6063C46.3963 47.1162 46.3963 47.6262 46.3963 48.1362C46.3963 49.1561 46.3963 50.176 46.3963 51.1398C46.3963 55.0767 46.3963 58.7485 46.3963 62.0938C46.3963 65.4392 46.3963 68.4735 46.3963 71.1355C46.3963 72.4614 46.3963 73.6853 46.3963 74.8429C46.3963 75.414 46.3963 75.9546 46.3963 76.4799C46.3832 76.9802 46.2867 77.4749 46.1108 77.9435C45.8257 78.7375 45.3347 79.4415 44.688 79.9833C44.2188 80.3818 43.6742 80.6818 43.0867 80.8655C42.7286 80.976 42.359 81.0444 41.9852 81.0695C41.6945 81.1001 41.567 81.095 41.567 81.095Z" fill="#E0E0E0"/>
<path d="M30.6742 60.2325H29.2769L26.2172 55.9896V53.2052C26.2172 53.2052 24.0651 53.0726 24.315 56.7188C24.5649 60.3651 24.315 59.4369 24.315 59.4369C24.315 59.4369 19.7254 59.4369 19.3582 59.85C19.0828 60.1407 18.9553 64.6896 18.9094 67.1527C18.8782 67.7484 19.0476 68.3374 19.3906 68.8255C19.7336 69.3137 20.2303 69.6727 20.8014 69.8453C20.9679 69.8888 21.1392 69.9111 21.3113 69.9116C22.4537 69.9116 28.2876 68.9834 28.2876 68.9834H30.6997L30.6742 60.2325Z" fill="#F5F5F5"/>
<path d="M34.6669 59.4829L33.8102 69.0243H31.4185V59.6767L34.6669 59.4829Z" fill="#F5F5F5"/>
<path d="M231.217 215.883C231.217 215.955 179.451 216.016 115.608 216.016C51.7663 216.016 0 215.955 0 215.883C0 215.812 51.7459 215.771 115.608 215.771C179.471 215.771 231.217 215.812 231.217 215.883Z" fill="#263238"/>
<path d="M101.426 196.337L103.92 178.314L115.593 178.916L109.096 198.279L101.426 196.337Z" fill="#FFBE9D"/>
<path d="M109.78 196.393L109.739 196.903C109.739 196.903 118.169 201.186 118.118 202.854L100.779 201.232L101.554 195.48C102.78 196.212 104.149 196.672 105.568 196.829C106.987 196.987 108.423 196.838 109.78 196.393Z" fill="#F27370"/>
<g opacity="0.6">
<path d="M103.125 197.479C102.954 197.516 102.802 197.614 102.699 197.755C102.595 197.896 102.547 198.07 102.564 198.244C102.594 198.416 102.688 198.57 102.827 198.675C102.966 198.78 103.14 198.828 103.313 198.81C103.495 198.772 103.656 198.668 103.765 198.518C103.874 198.369 103.924 198.184 103.905 197.999C103.859 197.82 103.745 197.666 103.586 197.571C103.428 197.475 103.238 197.446 103.058 197.489" fill="white"/>
</g>
<g opacity="0.6">
<path d="M100.769 201.222L100.952 199.835L117.511 201.875C117.511 201.875 118.255 202.283 118.117 202.823L100.769 201.222Z" fill="white"/>
</g>
<path d="M109.795 196.948C109.795 197.03 109.356 197.03 108.913 197.265C108.469 197.499 108.219 197.831 108.143 197.775C108.066 197.718 108.24 197.265 108.78 196.984C109.321 196.704 109.82 196.872 109.795 196.948Z" fill="#263238"/>
<path d="M111.544 197.872C111.544 197.953 111.177 198.065 110.856 198.382C110.535 198.698 110.412 199.08 110.346 199.07C110.28 199.06 110.254 198.56 110.662 198.167C111.07 197.775 111.549 197.79 111.544 197.872Z" fill="#263238"/>
<path d="M112.376 200.146C112.294 200.146 112.218 199.718 112.478 199.279C112.738 198.84 113.151 198.687 113.181 198.769C113.212 198.851 112.942 199.07 112.733 199.437C112.524 199.804 112.457 200.141 112.376 200.146Z" fill="#263238"/>
<path d="M53.5972 169.564L66.3513 160.42L76.4333 165.902L58.1409 176.259L53.5972 169.564Z" fill="#FFBE9D"/>
<path d="M59.1556 175.831L58.7221 176.117C58.7221 176.117 60.5478 185.393 59.2015 186.377L49.7876 171.721L54.6883 168.62C54.8868 170.068 55.387 171.458 56.1565 172.7C56.9261 173.942 57.9478 175.009 59.1556 175.831Z" fill="#F27370"/>
<g opacity="0.6">
<path d="M54.1939 171.272C54.0593 171.159 53.8879 171.099 53.7122 171.104C53.5365 171.108 53.3686 171.177 53.2402 171.297C53.1204 171.424 53.0537 171.592 53.0537 171.767C53.0537 171.941 53.1204 172.109 53.2402 172.236C53.3827 172.36 53.567 172.426 53.7562 172.421C53.9454 172.415 54.1254 172.338 54.2601 172.205C54.3691 172.057 54.4167 171.872 54.3929 171.69C54.3692 171.508 54.2759 171.341 54.1326 171.226" fill="white"/>
</g>
<g opacity="0.6">
<path d="M49.793 171.721L50.9965 171.012L59.5791 185.321C59.5791 185.321 59.7168 186.158 59.2069 186.377L49.793 171.721Z" fill="white"/>
</g>
<path d="M58.7226 176.193C58.6461 176.239 58.386 175.897 57.927 175.683C57.4681 175.469 57.0499 175.484 57.0397 175.403C57.0295 175.321 57.5038 175.158 58.0596 175.403C58.6155 175.648 58.7991 176.168 58.7226 176.193Z" fill="#263238"/>
<path d="M59.0739 178.141C59.0127 178.202 58.6914 177.968 58.2325 177.922C57.7735 177.876 57.4114 178.008 57.3655 177.922C57.3196 177.835 57.7021 177.544 58.2682 177.616C58.8342 177.687 59.1555 178.095 59.0739 178.141Z" fill="#263238"/>
<path d="M57.794 180.196C57.7379 180.14 58.0286 179.809 58.5385 179.743C59.0485 179.676 59.4208 179.911 59.38 179.977C59.3392 180.044 58.9975 179.977 58.5793 180.033C58.1612 180.089 57.845 180.263 57.794 180.196Z" fill="#263238"/>
<path d="M136.134 70.9674C137.638 70.9674 138.858 69.7482 138.858 68.2442C138.858 66.7402 137.638 65.521 136.134 65.521C134.63 65.521 133.411 66.7402 133.411 68.2442C133.411 69.7482 134.63 70.9674 136.134 70.9674Z" fill="#263238"/>
<path d="M105.353 43.2661C108.295 43.9813 110.986 45.4865 113.134 47.6192C115.283 49.7519 116.809 52.4311 117.546 55.3675C118.668 59.6257 121.157 78.3974 121.157 78.3974L136.16 66.8162L140.801 72.9816L127.067 88.5967C124.007 92.3041 118.015 93.1863 113.456 91.6564C108.28 89.9175 108.015 86.3375 108.607 80.9115L105.353 43.2661Z" fill="#FFBE9D"/>
<path d="M142.79 70.4723L147.731 65.0616L140.041 60.9819C139.5 61.3083 136.16 66.8006 136.16 66.8006L135.956 67.744C135.956 67.744 140.694 72.8947 140.826 72.9813C140.959 73.068 142.79 70.4723 142.79 70.4723Z" fill="#FFBE9D"/>
<path d="M147.42 65.5517C147.42 65.5517 147.394 65.618 147.333 65.6944C146.823 66.3421 144.37 68.8817 143.952 68.6981C143.534 68.5145 142.789 67.4538 143.049 67.0611C143.31 66.6685 146.257 63.9606 146.257 63.9606C146.257 63.9606 146.767 63.5628 147.619 64.1748C148.159 64.5521 147.42 65.5517 147.42 65.5517Z" fill="#FFBE9D"/>
<path d="M146.747 63.1649C146.747 63.1649 146.722 63.2312 146.665 63.3077C146.155 63.9605 143.697 66.5001 143.279 66.3114C142.861 66.1227 142.122 65.0722 142.382 64.6744C142.642 64.2767 145.584 61.5739 145.584 61.5739C145.584 61.5739 146.094 61.1761 146.951 61.788C147.492 62.1705 146.747 63.1649 146.747 63.1649Z" fill="#FFBE9D"/>
<path d="M145.676 61.278C145.676 61.278 145.65 61.3443 145.589 61.4208C145.079 62.0684 142.621 64.6081 142.203 64.4245C141.785 64.2409 141.046 63.1802 141.306 62.7824C141.566 62.3846 144.508 59.6818 144.508 59.6818C144.508 59.6818 145.018 59.2841 145.875 59.9011C146.415 60.2785 145.676 61.278 145.676 61.278Z" fill="#FFBE9D"/>
<path d="M144.58 59.4218C144.58 59.4218 144.554 59.4881 144.493 59.5646C143.983 60.2173 141.53 62.7569 141.112 62.5682C140.694 62.3796 139.954 61.329 140.214 60.9313C140.474 60.5335 143.417 57.8307 143.417 57.8307C143.417 57.8307 143.927 57.4329 144.784 58.0449C145.339 58.4273 144.58 59.4218 144.58 59.4218Z" fill="#FFBE9D"/>
<path d="M143.753 66.2961C144.23 65.9683 144.667 65.5848 145.053 65.1538C145.483 64.7778 145.863 64.3495 146.185 63.8789C145.704 64.2011 145.265 64.5833 144.88 65.0161C144.447 65.3892 144.068 65.8199 143.753 66.2961Z" fill="#EB996E"/>
<path d="M142.223 64.868C142.882 64.377 143.493 63.8255 144.049 63.2208C144.663 62.674 145.223 62.0695 145.721 61.4155C144.455 62.4596 143.284 63.6151 142.223 64.868Z" fill="#EB996E"/>
<g opacity="0.78">
<path d="M140.8 63.2923C142.07 62.2517 143.241 61.096 144.299 59.8398C143.641 60.3324 143.03 60.8837 142.473 61.487C141.861 62.0355 141.301 62.6399 140.8 63.2923Z" fill="#EB996E"/>
</g>
<path d="M137.884 67.0459L138.225 64.1392C138.376 62.8666 139.012 61.7012 140 60.8856L140.755 60.2686L145.574 65.3223C145.574 65.3223 143.427 66.7094 142.351 65.0571L142.606 67.765L137.884 67.0459Z" fill="#FFBE9D"/>
<path d="M142.004 67.7799C141.969 67.7799 142.142 67.479 142.249 66.9282C142.39 66.1644 142.247 65.3754 141.846 64.7099L141.464 64.0826L142.05 64.5314L143.397 65.5513H143.366C143.681 65.7301 144.039 65.8154 144.401 65.7973C144.762 65.7793 145.111 65.6585 145.406 65.4493C145.447 65.4145 145.486 65.377 145.523 65.3371V65.5564C144.105 64.1846 142.836 62.925 141.979 61.9867C141.545 61.5073 141.209 61.1096 140.959 60.8291C140.829 60.6934 140.721 60.5386 140.638 60.3701C141.158 60.8274 141.652 61.3143 142.117 61.8286C143.014 62.7465 144.299 63.9705 145.727 65.3422L145.839 65.4493L145.737 65.5615C145.689 65.6205 145.635 65.6736 145.574 65.7196C145.23 65.9951 144.801 66.1428 144.36 66.1378C143.96 66.1302 143.566 66.0326 143.208 65.8522L141.887 64.7864L142.086 64.6079C142.502 65.3343 142.617 66.1945 142.407 67.0047C142.344 67.2943 142.205 67.5619 142.004 67.7799Z" fill="#EB996E"/>
<path d="M144.472 65.7355C144.529 65.761 144.304 66.0414 144.217 66.5055C144.196 66.6269 144.211 66.752 144.261 66.8647C144.311 66.9774 144.393 67.0725 144.498 67.1379C144.65 67.1858 144.812 67.1932 144.967 67.1592C145.123 67.1252 145.267 67.051 145.385 66.9441C145.992 66.4596 146.589 66.0363 146.971 65.71C147.354 65.3836 147.583 65.1439 147.624 65.1745C147.665 65.2051 147.497 65.4907 147.114 65.8783C146.625 66.3575 146.104 66.8022 145.554 67.2093C145.391 67.3501 145.192 67.4432 144.98 67.4783C144.767 67.5134 144.549 67.4891 144.35 67.4081C144.193 67.314 144.071 67.1704 144.003 66.9998C143.936 66.8291 143.927 66.641 143.978 66.4647C144.034 66.2528 144.137 66.056 144.279 65.8885C144.391 65.7763 144.457 65.7253 144.472 65.7355Z" fill="#EB996E"/>
<path d="M119.652 84.7105C119.523 84.4122 119.452 84.092 119.443 83.767C119.366 82.9883 119.409 82.2022 119.571 81.4365C119.729 80.6676 120.01 79.929 120.402 79.2488C120.542 78.9565 120.735 78.6934 120.973 78.4736C120.48 79.4321 120.097 80.4431 119.831 81.4875C119.653 82.5519 119.593 83.6329 119.652 84.7105Z" fill="#EB996E"/>
<path d="M134.396 67.9332L140.158 73.7264L141.729 71.9058L136.027 66.6328L134.396 67.9332Z" fill="#263238"/>
<path d="M96.4086 49.9724C96.7707 47.9938 95.6692 45.6071 97.0257 44.118C97.964 43.0981 99.6367 43.0981 100.723 42.2363C102.12 41.0991 102.023 38.998 102.181 37.2081C102.446 34.3178 103.675 31.6004 105.67 29.4923C106.47 28.6509 107.47 27.6361 107.138 26.5243C106.986 26.1317 106.754 25.7755 106.455 25.4789L96.4902 14.117C95.7101 13.1257 94.777 12.265 93.7262 11.5672C93.198 11.2235 92.5957 11.0101 91.9689 10.9445C91.3421 10.8789 90.7087 10.963 90.1208 11.1898C88.1217 12.1128 87.78 14.8054 86.3573 16.4832C85.0721 18.0131 82.8997 18.6709 81.9512 20.415C81.0485 22.0826 81.533 24.2754 80.5284 25.8818C79.1923 28.0287 75.8571 28.1562 74.4649 30.2675C73.2461 32.1135 73.955 34.8265 72.5781 36.5451C71.3185 38.1056 69.0083 38.1056 67.147 38.896C67.147 38.896 69.2633 41.2215 70.2067 42.5576C71.1502 43.8937 74.4088 43.9957 75.8418 43.0216C77.2748 42.0476 77.5604 41.2215 78.4426 40.2984C79.1535 39.6496 79.9736 39.1316 80.865 38.7685C80.865 38.7685 78.2744 40.7217 78.4426 41.5886C78.6109 42.4556 76.0458 45.6377 75.4339 45.4286C74.8219 45.2196 82.196 49.9673 82.196 49.9673L96.4086 49.9724Z" fill="#263238"/>
<path d="M109.025 11.46C108.923 12.8165 109.821 14.0098 110.723 15.0297C111.626 16.0496 112.636 17.1103 112.829 18.4566C113.176 20.8433 110.835 23.0463 111.299 25.4227C111.56 26.6925 112.595 27.7125 112.778 28.9925C112.962 30.2725 112.294 31.4454 111.473 32.3888C110.652 33.3322 109.647 34.1125 108.923 35.1324C108.199 36.1523 107.735 37.4782 107.184 38.6715C106.633 39.8649 105.894 41.0582 104.736 41.6854C102.992 42.634 100.555 42.1954 99.2184 43.6539C97.8823 45.1124 98.3362 47.652 96.7451 48.7178" fill="#263238"/>
<path d="M88.1573 13.5355C88.1216 12.3065 89.2588 11.3528 90.4062 10.9041C91.5536 10.4553 92.8132 10.2819 93.8331 9.59345C94.7409 8.9866 95.363 8.03297 96.1127 7.25783C97.0577 6.30095 98.2403 5.61264 99.5391 5.26346C100.838 4.91428 102.206 4.9168 103.504 5.27075C104.801 5.62471 105.981 6.31737 106.923 7.27771C107.864 8.23806 108.533 9.43154 108.862 10.7358C109.3 12.49 108.999 14.5656 107.617 15.7283C106.011 17.0848 103.635 16.7839 101.579 16.3607C99.5243 15.9374 97.1989 15.5243 95.4599 16.7329C94.44 17.4622 93.8331 18.6453 93.2008 19.7417C92.5684 20.8381 91.7729 21.9549 90.5745 22.368C89.3761 22.7811 87.7544 22.0671 87.7085 20.8024" fill="#263238"/>
<path d="M93.0121 13.7902C92.4982 13.8416 92.023 14.086 91.6823 14.474C91.3416 14.8621 91.1607 15.3649 91.1762 15.881L92.4052 43.7097C92.4562 46.9938 97.2601 48.845 100.779 48.7634C104.349 48.6767 104.445 46.9377 104.491 43.8066C104.563 38.5846 104.558 36.6263 104.558 36.6671C104.558 36.7079 109.05 35.9124 109.963 30.0376C110.422 27.1257 110.264 22.3474 110.009 18.4461C109.78 14.9325 107.459 10.6233 103.941 11.0007L93.0121 13.7902Z" fill="#FFBE9D"/>
<path d="M108.898 21.7919C108.9 21.9872 108.827 22.176 108.693 22.3179C108.558 22.4599 108.374 22.5437 108.179 22.5517C108.083 22.56 107.987 22.5491 107.896 22.5195C107.805 22.4899 107.721 22.4423 107.648 22.3795C107.576 22.3167 107.517 22.24 107.475 22.1539C107.433 22.0679 107.409 21.9742 107.403 21.8785C107.401 21.6827 107.474 21.4933 107.608 21.3506C107.742 21.2078 107.927 21.1228 108.122 21.1136C108.218 21.106 108.314 21.1176 108.406 21.1477C108.497 21.1779 108.581 21.226 108.653 21.2892C108.725 21.3524 108.784 21.4295 108.826 21.5158C108.868 21.6021 108.892 21.696 108.898 21.7919Z" fill="#263238"/>
<path d="M108.979 20.9299C108.887 21.0319 108.316 20.6086 107.505 20.6137C106.694 20.6188 106.108 21.0217 106.021 20.9248C105.934 20.8279 106.072 20.7055 106.327 20.5168C106.677 20.2728 107.094 20.1428 107.52 20.1446C107.942 20.142 108.353 20.2742 108.693 20.5219C108.938 20.7106 109.025 20.8891 108.979 20.9299Z" fill="#263238"/>
<path d="M100.85 21.9852C100.853 22.1814 100.779 22.3709 100.643 22.513C100.508 22.6551 100.322 22.7384 100.126 22.7451C100.031 22.7527 99.9343 22.7411 99.8432 22.7109C99.752 22.6807 99.6679 22.6326 99.5956 22.5694C99.5234 22.5062 99.4645 22.4292 99.4225 22.3428C99.3805 22.2565 99.3562 22.1627 99.3511 22.0668C99.3496 21.8709 99.4243 21.6822 99.5595 21.5404C99.6946 21.3986 99.8795 21.3149 100.075 21.307C100.171 21.2993 100.267 21.3109 100.358 21.3411C100.449 21.3713 100.534 21.4194 100.606 21.4826C100.678 21.5458 100.737 21.6229 100.779 21.7092C100.821 21.7955 100.845 21.8894 100.85 21.9852Z" fill="#263238"/>
<path d="M101.034 21.0983C100.942 21.2003 100.371 20.7771 99.5599 20.7822C98.7491 20.7873 98.1627 21.1901 98.0709 21.0932C97.9791 20.9964 98.1219 20.874 98.3819 20.6853C98.7319 20.4412 99.1486 20.3112 99.5752 20.313C99.9947 20.3115 100.404 20.4437 100.743 20.6904C100.973 20.8791 101.08 21.0576 101.034 21.0983Z" fill="#263238"/>
<path d="M103.982 27.0851C104.406 26.9479 104.847 26.8673 105.292 26.8455C105.501 26.82 105.695 26.7792 105.731 26.6415C105.746 26.4277 105.696 26.2144 105.588 26.0295L104.976 24.4588C104.124 22.2201 103.507 20.3791 103.594 20.3485C103.681 20.3179 104.451 22.1028 105.302 24.3364C105.506 24.8872 105.705 25.4125 105.894 25.9173C106.022 26.1673 106.059 26.4536 106.001 26.7282C105.971 26.8014 105.925 26.8666 105.866 26.9188C105.806 26.9711 105.736 27.0088 105.659 27.029C105.547 27.0617 105.43 27.0788 105.313 27.08C104.871 27.1381 104.424 27.1398 103.982 27.0851Z" fill="#263238"/>
<path d="M104.542 36.652C101.785 36.7016 99.0679 35.9849 96.6938 34.5815C96.6938 34.5815 98.6062 38.6 104.471 38.0391L104.542 36.652Z" fill="#EB996E"/>
<path d="M103.645 29.0383C103.489 28.846 103.287 28.6958 103.058 28.6014C102.829 28.507 102.58 28.4713 102.334 28.4977C102.155 28.5166 101.981 28.5715 101.823 28.6591C101.665 28.7468 101.527 28.8653 101.416 29.0077C101.309 29.1432 101.247 29.308 101.236 29.4801C101.225 29.6522 101.266 29.8235 101.355 29.9715C101.485 30.1159 101.656 30.2186 101.844 30.2667C102.033 30.3148 102.232 30.3061 102.416 30.2418C102.794 30.1045 103.14 29.893 103.435 29.6196C103.528 29.5557 103.608 29.4743 103.67 29.3799C103.7 29.3354 103.716 29.2831 103.716 29.2295C103.716 29.1759 103.7 29.1236 103.67 29.0791" fill="#EB996E"/>
<path d="M101.6 27.651C101.732 27.651 101.738 28.523 102.487 29.1452C103.237 29.7673 104.175 29.6551 104.185 29.7877C104.196 29.9203 103.976 29.9611 103.579 29.9713C103.062 29.9755 102.561 29.7946 102.166 29.4613C101.783 29.1499 101.536 28.7019 101.478 28.2119C101.447 27.8651 101.544 27.6459 101.6 27.651Z" fill="#263238"/>
<path d="M101.396 19.6853C101.314 19.9046 100.509 19.8026 99.5601 19.9148C98.6115 20.027 97.8415 20.2921 97.7191 20.0983C97.663 20.0015 97.7956 19.7975 98.1016 19.5884C98.5141 19.3278 98.9803 19.164 99.4652 19.1093C99.95 19.0545 100.441 19.1102 100.901 19.2722C101.253 19.4048 101.427 19.5782 101.396 19.6853Z" fill="#263238"/>
<path d="M108.678 18.5943C108.535 18.7778 107.98 18.5943 107.306 18.5943C106.633 18.5943 106.072 18.7217 105.94 18.528C105.884 18.4362 105.97 18.2526 106.22 18.0792C106.551 17.8659 106.939 17.7591 107.332 17.7732C107.725 17.7796 108.106 17.9079 108.423 18.1404C108.663 18.3138 108.739 18.5025 108.678 18.5943Z" fill="#263238"/>
<path d="M88.9219 33.0617C89.7312 33.2242 90.5675 33.1919 91.3619 32.9675C92.1563 32.7431 92.8859 32.333 93.4906 31.7712C94.0954 31.2093 94.5578 30.5117 94.8399 29.7359C95.1219 28.9601 95.2155 28.1284 95.1128 27.3094C94.9292 25.8713 94.1541 24.4077 94.6539 23.0461C95.3117 21.2459 97.836 20.69 98.5041 18.895C98.8916 17.8751 98.5449 16.6307 98.9834 15.6057C99.422 14.5807 100.411 14.0758 101.401 13.7342C102.39 13.3925 103.441 13.1324 104.267 12.4899C105.093 11.8473 105.613 10.6285 105.077 9.73096C100.702 10.254 96.4049 11.2983 92.2774 12.8417C91.3187 13.1987 90.3141 13.6271 89.7531 14.4736C89.1922 15.3201 89.182 16.5135 89.2432 17.615L89.9775 33.3932" fill="#263238"/>
<path d="M98.0607 9.52686C97.9627 9.66309 97.8517 9.78947 97.7292 9.90423C97.3773 10.2333 96.9698 10.4975 96.5257 10.6845C95.8199 10.9659 95.0753 11.1379 94.3176 11.1944C93.4354 11.3015 92.4205 11.2811 91.319 11.3066C90.1189 11.3067 88.931 11.5478 87.8258 12.0155C87.2234 12.308 86.7109 12.7572 86.3418 13.3159C85.9873 13.9266 85.7017 14.5749 85.4901 15.2486C85.2506 15.9967 84.7631 16.6407 84.1081 17.0743C83.4002 17.4319 82.6544 17.709 81.8847 17.9004C81.1165 18.0888 80.4393 18.542 79.9724 19.1804C79.5483 19.8844 79.2578 20.6607 79.1156 21.4702C78.9615 22.3028 78.7188 23.1166 78.3915 23.8976C78.0228 24.645 77.5016 25.3068 76.8616 25.8405C76.2458 26.3572 75.5308 26.7425 74.7605 26.9727C74.0223 27.169 73.26 27.26 72.4963 27.2429C71.8 27.2208 71.1063 27.3387 70.4565 27.5897C70.161 27.7295 69.8918 27.9193 69.6609 28.1507C69.4445 28.3897 69.2594 28.6553 69.1102 28.9411C68.539 30.0885 68.3554 31.3277 67.8455 32.3375C67.3722 33.2455 66.6365 33.9901 65.7342 34.4742C65.0643 34.8421 64.3237 35.0629 63.5618 35.1219C63.0817 35.1566 62.5991 35.1222 62.1288 35.0199C61.9656 34.9791 61.8483 34.9332 61.7718 34.9128L61.6494 34.8669C62.271 35.0207 62.9134 35.0723 63.5516 35.0199C64.2952 34.9446 65.0145 34.7135 65.6628 34.3416C66.5283 33.8636 67.2288 33.1346 67.6721 32.2508C68.182 31.2716 68.3299 30.0426 68.9164 28.8391C69.0704 28.5331 69.266 28.25 69.4977 27.9977C69.7457 27.7407 70.0376 27.53 70.3596 27.3755C71.0425 27.1065 71.7728 26.9781 72.5065 26.9982C73.2477 27.0091 73.9871 26.9199 74.7044 26.733C75.4391 26.5077 76.1208 26.1365 76.7086 25.6417C77.3215 25.1319 77.8187 24.4973 78.1671 23.7803C78.4875 23.0179 78.7235 22.2227 78.8708 21.409C79.0203 20.5665 79.3246 19.759 79.7684 19.0275C80.0097 18.6741 80.3224 18.3753 80.6863 18.1503C81.0418 17.9355 81.422 17.7643 81.8184 17.6404C82.5703 17.4582 83.2991 17.1913 83.9909 16.8448C84.6036 16.4453 85.058 15.8449 85.276 15.1466C85.4987 14.4575 85.7981 13.7955 86.1684 13.1731C86.5672 12.6001 87.1134 12.1456 87.7493 11.8574C88.8781 11.3801 90.0936 11.1422 91.319 11.1587C92.4358 11.1587 93.4303 11.1587 94.3074 11.0822C95.0546 11.031 95.7901 10.8695 96.49 10.6029C97.0815 10.3551 97.616 9.98889 98.0607 9.52686Z" fill="#263238"/>
<path d="M93.6957 42.1088C86.6735 42.7718 81.9921 45.3216 78.4224 48.774L83.1242 62.8184C83.1242 62.8184 87.4589 71.09 87.1631 76.9698C86.8673 82.8497 84.0115 85.2822 81.681 93.2223L114.074 97.965C114.074 97.965 112.248 78.9995 111.855 74.8841C111.463 70.7687 116.267 65.4855 114.818 60.0238C111.601 47.8969 106.792 43.705 106.792 43.705C106.792 43.705 99.7745 41.1297 93.6957 42.1088Z" fill="#F27370"/>
<path d="M84.4038 86.3785C84.8161 86.6462 85.2932 86.797 85.7845 86.815C86.2757 86.8329 86.7626 86.7173 87.1933 86.4805C88.0513 85.9915 88.7681 85.2888 89.2739 84.4407C90.2939 82.9108 90.9721 81.1004 90.7171 79.3003C90.4622 77.5001 89.0394 75.7968 87.2239 75.6489C87.2239 75.6489 87.0709 78.1987 86.9077 79.0198C86.7445 79.8408 84.4038 86.3785 84.4038 86.3785Z" fill="#FFBE9D"/>
<path d="M107.133 62.7821C107.129 62.9551 107.102 63.1267 107.052 63.2921C106.944 63.7692 106.797 64.2365 106.613 64.6894C106.006 66.2009 105.057 67.5517 103.842 68.6362C102.626 69.7207 101.177 70.5097 99.6061 70.9415C99.1339 71.0769 98.6511 71.1724 98.1629 71.2271C97.9853 71.2517 97.8051 71.2517 97.6274 71.2271C97.6274 71.1761 98.3873 71.1098 99.55 70.7427C101.072 70.27 102.475 69.4758 103.664 68.4138C104.852 67.3519 105.799 66.047 106.44 64.5874C106.934 63.5063 107.092 62.7515 107.133 62.7821Z" fill="#263238"/>
<path d="M108.694 77.4187C108.678 77.6318 108.636 77.8423 108.571 78.0459C108.519 78.2892 108.453 78.5293 108.372 78.765C108.286 79.0454 108.194 79.3667 108.056 79.7084C107.755 80.5186 107.399 81.3075 106.99 82.0695C105.979 83.9368 104.668 85.6251 103.11 87.0671C102.468 87.6532 101.787 88.1934 101.07 88.6837C100.595 89.0199 100.1 89.3248 99.5858 89.5966C99.4026 89.7093 99.2076 89.8016 99.0044 89.8719C99.0044 89.826 99.7846 89.3977 100.958 88.5307C101.645 88.024 102.301 87.4756 102.921 86.8887C104.441 85.4462 105.734 83.7818 106.756 81.9522C107.171 81.205 107.54 80.4336 107.862 79.6421C108.428 78.2856 108.648 77.4034 108.694 77.4187Z" fill="#263238"/>
<g opacity="0.3">
<path d="M108.428 78.3671C107.219 80.305 105.368 82.4111 103.084 83.1251C102.105 83.4362 101.074 83.5382 100.07 83.7676C99.0515 83.9426 98.1077 84.4145 97.3568 85.1241C96.9732 85.4473 96.7068 85.888 96.5991 86.3779C96.4914 86.8677 96.5482 87.3795 96.7608 87.8338C96.9735 88.2881 97.33 88.6596 97.7752 88.8907C98.2204 89.1218 98.7293 89.1996 99.2232 89.112C100.158 88.9976 101.048 88.6465 101.809 88.0921C105.21 85.884 107.357 82.4162 108.438 78.3569" fill="black"/>
</g>
<path d="M90.4678 42.6084C90.5301 42.7024 90.5846 42.8013 90.631 42.9042C90.7329 43.1031 90.8706 43.4141 91.0491 43.7864C91.401 44.5565 91.8957 45.6784 92.426 47.1012C93.0513 48.7616 93.5524 50.4662 93.9253 52.2008C94.3855 54.3357 94.5689 56.521 94.471 58.7028C94.3781 60.8904 93.907 63.0454 93.0788 65.0722C92.3902 66.7237 91.4263 68.2464 90.2281 69.5752C89.4224 70.466 88.4994 71.2431 87.4845 71.8853C87.1224 72.1097 86.8317 72.2678 86.6329 72.3647C86.5341 72.421 86.4299 72.4672 86.3218 72.5024C86.3218 72.5024 86.7297 72.2729 87.4284 71.7986C88.4101 71.1288 89.3044 70.3391 90.0904 69.4477C91.2501 68.121 92.1823 66.6115 92.8493 64.9804C93.6536 62.9798 94.1123 60.8571 94.2058 58.7028C94.3037 56.5447 94.1324 54.3828 93.6958 52.2671C93.3344 50.5361 92.8539 48.8322 92.2577 47.1675C91.7478 45.7447 91.2888 44.6176 90.9675 43.8323C90.8094 43.4651 90.6871 43.1643 90.5902 42.9348C90.5371 42.831 90.496 42.7215 90.4678 42.6084Z" fill="#FAFAFA"/>
<path d="M92.2318 42.3838C92.3019 42.4855 92.3633 42.593 92.4154 42.7051C92.5275 42.9193 92.6907 43.215 92.8947 43.6536C93.2925 44.4797 93.8534 45.6934 94.4552 47.2233C95.1617 49.0206 95.7194 50.8729 96.1228 52.7615C96.6277 55.0814 96.7994 57.4613 96.6327 59.8296C96.4645 62.2051 95.843 64.5264 94.802 66.6682C93.9353 68.4006 92.7542 69.9569 91.3189 71.2579C90.3487 72.1349 89.254 72.8635 88.0705 73.4201C87.7504 73.5703 87.4218 73.7014 87.0863 73.8128C86.9723 73.8587 86.8546 73.8945 86.7344 73.9199C86.7344 73.8893 87.2086 73.7363 88.0297 73.3232C89.181 72.7395 90.2452 71.998 91.1914 71.1202C92.5909 69.8087 93.74 68.2534 94.5827 66.5305C95.5961 64.4118 96.2016 62.1213 96.3676 59.7786C96.5354 57.4357 96.3757 55.0808 95.8933 52.7819C95.5022 50.9025 94.9669 49.0561 94.292 47.259C93.7158 45.7291 93.1803 44.5052 92.808 43.6638L92.3797 42.7C92.3185 42.6006 92.2688 42.4945 92.2318 42.3838Z" fill="#FAFAFA"/>
<path d="M111.962 56.3926C111.514 56.7385 110.989 56.9727 110.433 57.0759C109.9 57.2662 109.33 57.3274 108.77 57.2544C109.288 57.068 109.82 56.923 110.361 56.8209C110.883 56.6363 111.418 56.4931 111.962 56.3926Z" fill="#FAFAFA"/>
<path d="M111.529 57.4225C111.126 57.6645 110.682 57.8288 110.218 57.907C109.777 58.0671 109.31 58.1415 108.841 58.1262C109.246 57.8895 109.69 57.7271 110.152 57.6469C110.593 57.4872 111.06 57.4111 111.529 57.4225Z" fill="#FAFAFA"/>
<path d="M92.3286 42.2669C92.3286 42.2669 95.3272 47.9835 102.854 47.137C107.204 46.627 104.558 42.8431 104.558 42.8431C104.558 42.8431 100.498 40.4718 92.3286 42.2669Z" fill="#FFBE9D"/>
<path d="M114.007 97.6333L115.894 132.821C116.191 135.602 115.682 138.411 114.428 140.912C113.174 143.413 111.228 145.5 108.821 146.926L70.1657 170.558L63.4546 161.715L98.8613 134.376L95.2915 95.2109L114.007 97.6333Z" fill="#263238"/>
<path d="M82.1296 93.2222L81.1708 95.3232C79.1004 99.8772 78.621 105.757 80.2223 109.923C81.8236 114.09 84.3734 117.496 88.4531 121.143L107.092 138.196C107.826 138.869 108.379 139.714 108.702 140.656C109.026 141.597 109.109 142.604 108.943 143.586L102.584 182.45L114.879 184.154L125.405 144.759C126.563 139.838 126.17 137.038 123.697 132.627L98.6218 95.7057L82.1296 93.2222Z" fill="#263238"/>
<path d="M122.901 131.423C122.814 131.33 122.736 131.229 122.666 131.123L122.034 130.24L119.754 126.961L112.309 116.089L104.935 105.171L102.722 101.846L102.13 100.933C102.058 100.83 101.994 100.721 101.941 100.606C102.03 100.698 102.108 100.799 102.176 100.907L102.808 101.79L105.088 105.069L112.533 115.941L119.907 126.854C120.83 128.241 121.58 129.373 122.121 130.179C122.365 130.562 122.559 130.863 122.712 131.092C122.783 131.198 122.846 131.309 122.901 131.423Z" fill="#455A64"/>
<path d="M106.98 158.38C106.972 158.275 106.972 158.169 106.98 158.064C107.005 157.834 107.041 157.554 107.082 157.151C107.184 156.335 107.327 155.183 107.5 153.745C107.883 150.817 108.413 146.722 109.03 141.964V142.005C108.785 140.865 108.259 139.805 107.5 138.92C106.693 137.969 105.821 137.077 104.889 136.248C100.07 131.76 95.5925 127.828 92.4103 124.911C90.8192 123.453 89.5392 122.265 88.6672 121.433L87.6473 120.47L87.3923 120.209C87.3311 120.153 87.3056 120.123 87.3107 120.118C87.3158 120.113 87.3464 120.118 87.4076 120.189L87.683 120.429L88.7029 121.357L92.5072 124.769C95.7149 127.65 100.218 131.561 105.037 136.054C105.981 136.891 106.864 137.794 107.679 138.757C108.459 139.677 108.997 140.778 109.244 141.959V142C108.586 146.748 108.025 150.838 107.622 153.765C107.413 155.203 107.25 156.35 107.113 157.166C107.051 157.544 107.005 157.845 106.97 158.069C106.984 158.172 106.988 158.276 106.98 158.38Z" fill="#455A64"/>
<path d="M101.993 140.832C101.667 140.662 101.374 140.436 101.126 140.164C99.8523 138.908 99.0249 137.269 98.7696 135.498C98.7018 135.136 98.7018 134.764 98.7696 134.402C98.9575 135.613 99.3128 136.792 99.8253 137.905C100.411 138.975 101.14 139.96 101.993 140.832Z" fill="#455A64"/>
<path d="M103.915 103.498C104.002 103.06 104.175 102.644 104.425 102.274C104.6 101.865 104.853 101.495 105.17 101.183C105.083 101.619 104.91 102.034 104.66 102.401C104.486 102.812 104.233 103.185 103.915 103.498Z" fill="#455A64"/>
<path d="M89.2437 14.9635C88.9997 13.1349 88.0923 11.4598 86.6939 10.2565C85.5669 9.30291 84.0268 8.68586 82.6142 9.07853C81.9592 9.28057 81.3762 9.66693 80.9349 10.1914C80.4936 10.7159 80.2126 11.3564 80.1256 12.0363C80.0568 12.7182 80.1609 13.4064 80.4283 14.0374C80.6957 14.6685 81.1177 15.222 81.6555 15.6468C82.1998 16.0622 82.8276 16.3547 83.4958 16.5044C84.1639 16.654 84.8566 16.6572 85.5261 16.5138C86.7857 16.2486 87.9943 15.4939 89.2641 15.7131" fill="#263238"/>
<path d="M69.6455 41.4658C70.4183 41.3436 71.1758 41.1384 71.9046 40.8539C73.8845 40.0472 75.5291 38.5879 76.5657 36.7181C76.9095 36.1073 77.1719 35.4541 77.3459 34.7751C77.5448 34.0714 77.6009 33.3013 77.7947 32.516C77.8904 32.1121 78.0396 31.7228 78.2384 31.3584C78.4572 30.9806 78.7632 30.6606 79.1308 30.4251C79.9144 30.0132 80.7575 29.7259 81.6296 29.5735C82.0674 29.5071 82.4876 29.3544 82.8658 29.1241C83.244 28.8939 83.5727 28.5907 83.8327 28.2323C84.3069 27.4623 84.3426 26.4831 84.4701 25.5244C84.515 25.0267 84.602 24.5337 84.7302 24.0506C84.8649 23.546 85.1264 23.0843 85.49 22.7094C86.2652 21.9547 87.3412 21.7456 88.2897 21.4192C88.766 21.2725 89.2143 21.0467 89.6156 20.7512C89.9902 20.446 90.2551 20.0271 90.3704 19.5578C90.6203 18.6144 90.4673 17.5894 90.8089 16.6154C90.9747 16.1298 91.2977 15.7135 91.7269 15.4323C92.1403 15.1744 92.5935 14.9866 93.0681 14.8764C93.9758 14.6316 94.8988 14.4888 95.6179 13.9738C96.2796 13.4393 96.7822 12.7339 97.0713 11.9339C97.3926 11.1588 97.6424 10.3683 97.979 9.63908C98.1434 9.28317 98.3379 8.94196 98.5604 8.61916C98.7847 8.3061 99.0449 8.02028 99.3355 7.76752C99.8895 7.29572 100.538 6.94796 101.238 6.74759C101.833 6.56954 102.458 6.513 103.076 6.58134C103.693 6.64967 104.291 6.84148 104.833 7.14537C105.645 7.61178 106.31 8.2975 106.75 9.12402C107.022 9.6434 107.195 10.2089 107.26 10.7916C107.284 10.9932 107.284 11.1969 107.26 11.3984C107.26 11.3984 107.26 11.1894 107.189 10.7967C107.101 10.2267 106.911 9.67725 106.628 9.17501C106.183 8.37842 105.526 7.7202 104.731 7.27286C104.204 6.98686 103.626 6.80887 103.029 6.74933C102.433 6.68978 101.831 6.74987 101.258 6.92608C100.591 7.11903 99.9722 7.45098 99.4426 7.90011C99.1667 8.14238 98.9202 8.41624 98.7082 8.71605C98.4925 9.03849 98.3064 9.37987 98.1524 9.73598C97.826 10.4499 97.5863 11.2659 97.26 12.0308C96.9619 12.8788 96.4318 13.6262 95.7301 14.1879C94.9702 14.754 94.0115 14.8968 93.1293 15.1416C92.6814 15.2424 92.2527 15.4146 91.8595 15.6515C91.4759 15.9033 91.1885 16.277 91.0435 16.7123C90.7273 17.5945 90.8752 18.6195 90.6152 19.6292C90.4906 20.1531 90.1988 20.6221 89.7839 20.9653C89.3602 21.2839 88.8838 21.5255 88.3764 21.6793C87.4024 22.0108 86.3672 22.2249 85.6736 22.9083C84.9801 23.5916 84.8322 24.6167 84.7302 25.5601C84.6282 26.5035 84.5721 27.5286 84.0468 28.3751C83.7896 28.7894 83.4248 29.126 82.9912 29.3491C82.5777 29.5572 82.1412 29.7164 81.6908 29.8234C80.8434 29.9656 80.023 30.2373 79.2583 30.6291C78.9314 30.8561 78.6527 31.1455 78.4383 31.4808C78.2238 31.816 78.0779 32.1904 78.0089 32.5823C77.8151 33.3421 77.7539 34.1122 77.5448 34.8363C77.3614 35.5298 77.0888 36.1966 76.734 36.8201C76.1279 37.8922 75.317 38.8348 74.3474 39.5943C73.6212 40.1713 72.809 40.6307 71.9403 40.9559C71.3962 41.169 70.83 41.3212 70.2524 41.4097L69.8036 41.4556C69.7514 41.4648 69.6984 41.4682 69.6455 41.4658Z" fill="#455A64"/>
<path d="M81.8441 15.356C81.8441 15.356 81.6962 15.3203 81.5075 15.1367C81.2429 14.8584 81.0794 14.4992 81.0434 14.1168C81.02 13.8405 81.0531 13.5624 81.1408 13.2993C81.2285 13.0363 81.3689 12.7939 81.5534 12.5869C82.0122 12.079 82.6281 11.7397 83.3026 11.6231C83.9595 11.5163 84.6294 11.5163 85.2863 11.6231C85.8201 11.6984 86.3447 11.8283 86.8519 12.0106C87.1925 12.1311 87.5232 12.2778 87.8412 12.4492C88.0605 12.5767 88.1778 12.6583 88.1676 12.6736C88.1574 12.6889 87.6576 12.4492 86.7907 12.1636C86.2912 12.0117 85.7793 11.9042 85.2608 11.8424C84.6289 11.7561 83.9875 11.7664 83.3587 11.873C82.7396 11.9777 82.1719 12.2822 81.7421 12.7399C81.5686 12.9221 81.4339 13.1376 81.3462 13.3734C81.2585 13.6092 81.2197 13.8604 81.2321 14.1117C81.2537 14.4556 81.3761 14.7855 81.584 15.0602C81.737 15.2744 81.8543 15.356 81.8441 15.356Z" fill="#455A64"/>
<path d="M84.623 16.7329C84.5256 16.4661 84.5132 16.1758 84.5873 15.9017C84.6987 15.2192 85.0524 14.5996 85.5834 14.1567C86.1144 13.7137 86.7873 13.4768 87.4787 13.4895C87.7611 13.4708 88.0428 13.5346 88.2896 13.6731C88.2896 13.719 87.9734 13.6425 87.4838 13.6731C86.8498 13.719 86.2448 13.9574 85.75 14.3565C85.2688 14.7702 84.9269 15.3222 84.7708 15.9374C84.6536 16.4167 84.6536 16.7329 84.623 16.7329Z" fill="#455A64"/>
<path d="M88.5345 43.0317C82.3436 44.1231 77.7845 49.4726 77.7845 49.4726C77.5371 49.7074 77.3086 49.9615 77.1012 50.2324C70.9153 58.5805 59.7064 73.9711 59.2933 76.5873C58.5845 81.0086 71.7262 104.013 71.7262 104.013L78.9268 101.677L71.7874 78.6067L83.1238 62.7826L86.1836 70.4779C97.9127 63.9402 88.5345 43.0317 88.5345 43.0317Z" fill="#FFBE9D"/>
<path d="M84.1694 65.5056L91.4211 63.6851C91.4211 63.6851 90.5695 67.3262 88.1165 69.1111L86.0002 70.0494L84.1694 65.5056Z" fill="#263238"/>
<path d="M71.9046 104.406L74.0567 111.408L81.4205 107.052L81.8642 105.125C81.9618 104.692 81.9383 104.241 81.7961 103.821C81.654 103.401 81.3987 103.028 81.0584 102.743L78.4168 100.55L77.7131 99.8926C77.7131 99.8926 70.8694 101.361 70.7266 101.422C70.5838 101.484 71.9046 104.406 71.9046 104.406Z" fill="#FFBE9D"/>
<path d="M73.7765 110.913C73.7765 110.913 73.7357 110.857 73.7 110.765C73.3889 110.01 72.4557 106.593 72.8331 106.328C73.2104 106.063 74.4904 105.961 74.6995 106.384C74.9086 106.807 75.7195 110.719 75.7195 110.719C75.7195 110.719 75.8163 111.346 74.8423 111.785C74.261 112.055 73.7765 110.913 73.7765 110.913Z" fill="#FFBE9D"/>
<path d="M76.1731 111.545C76.1731 111.545 76.1323 111.489 76.0915 111.402C75.7855 110.642 74.8523 107.226 75.2245 106.96C75.5968 106.695 76.8819 106.593 77.091 107.016C77.3001 107.44 78.1364 111.351 78.1364 111.351C78.1364 111.351 78.2282 111.978 77.2593 112.417C76.6575 112.692 76.1731 111.545 76.1731 111.545Z" fill="#FFBE9D"/>
<path d="M78.3454 111.581C78.3454 111.581 78.3046 111.525 78.2638 111.433C77.9579 110.678 77.0246 107.262 77.3969 106.997C77.7692 106.731 79.0594 106.629 79.2685 107.053C79.4775 107.476 80.2884 111.387 80.2884 111.387C80.2884 111.387 80.3802 112.015 79.4113 112.453C78.8299 112.723 78.3454 111.581 78.3454 111.581Z" fill="#FFBE9D"/>
<path d="M80.4978 111.581C80.4978 111.581 80.457 111.525 80.4213 111.433C80.1102 110.678 79.177 107.262 79.5492 106.997C79.9215 106.731 81.2117 106.629 81.4208 107.053C81.6299 107.476 82.4407 111.387 82.4407 111.387C82.4407 111.387 82.5376 112.015 81.5636 112.453C80.9822 112.723 80.4978 111.581 80.4978 111.581Z" fill="#FFBE9D"/>
<path d="M75.0005 107.374C75.0367 107.952 75.1446 108.525 75.3218 109.077C75.4232 109.638 75.5945 110.185 75.8317 110.704C75.7955 110.125 75.6876 109.553 75.5105 109C75.4119 108.438 75.2404 107.891 75.0005 107.374Z" fill="#EB996E"/>
<path d="M77.0044 106.782C77.0994 107.6 77.2702 108.407 77.5144 109.194C77.6783 109.999 77.9155 110.788 78.2232 111.55C78.1216 110.733 77.9511 109.926 77.7132 109.138C77.5484 108.333 77.3111 107.544 77.0044 106.782Z" fill="#EB996E"/>
<g opacity="0.78">
<path d="M79.0903 106.364C79.1914 107.181 79.362 107.988 79.6003 108.776C79.7642 109.581 80.0015 110.37 80.3091 111.132C80.2141 110.314 80.0434 109.506 79.7992 108.72C79.6353 107.914 79.398 107.126 79.0903 106.364Z" fill="#EB996E"/>
</g>
<path d="M82.104 109.628C81.7363 108.852 81.4558 108.038 81.2677 107.2C80.8903 105.839 80.5232 104.758 80.5844 104.727C81.019 105.475 81.3355 106.285 81.5227 107.129C81.7941 107.942 81.9887 108.779 82.104 109.628Z" fill="#EB996E"/>
<path d="M88.1064 60.9618C87.8075 60.979 87.5078 60.979 87.2089 60.9618C86.4981 60.9812 85.799 61.1475 85.1557 61.4503C84.5124 61.7531 83.9387 62.1858 83.4708 62.7212C83.2955 62.9646 83.1065 63.1978 82.9048 63.4198C82.9769 63.1183 83.1203 62.8385 83.323 62.6039C83.7757 62.0074 84.366 61.5294 85.0436 61.2106C85.7212 60.8918 86.4658 60.7417 87.214 60.7731C87.5222 60.7645 87.828 60.8292 88.1064 60.9618Z" fill="#EB996E"/>
<path d="M71.8742 78.7337C71.6394 78.5757 71.413 78.4055 71.196 78.2238C70.6422 77.828 70.012 77.552 69.3455 77.4133C68.6791 77.2745 67.9911 77.2762 67.3254 77.418C67.0526 77.5023 66.775 77.5704 66.4941 77.622C66.72 77.4301 66.9898 77.297 67.2795 77.2344C67.9694 77.0345 68.6977 77.0065 69.4009 77.1528C70.1037 77.2966 70.7594 77.6139 71.3082 78.0759C71.7264 78.4227 71.9048 78.7184 71.8742 78.7337Z" fill="#EB996E"/>
<path d="M191.527 124.442C191.527 124.442 185.489 147.11 184.862 163.913C184.142 183.082 191.328 205.842 191.328 205.842H158.981V215.904H203.786C203.786 215.904 194.994 178.523 196.188 159.986C196.984 148.373 198.845 136.857 201.746 125.584L191.527 124.442Z" fill="#263238"/>
<path d="M188.089 124.442C188.089 124.442 182.052 147.11 181.424 163.913C180.705 183.082 187.891 205.842 187.891 205.842H165.61C164.288 205.841 162.979 206.1 161.757 206.605C160.535 207.11 159.425 207.851 158.489 208.785C157.554 209.72 156.812 210.829 156.305 212.051C155.799 213.272 155.539 214.581 155.539 215.904H200.344C200.344 215.904 191.557 178.544 192.766 159.986C193.562 148.373 195.423 136.857 198.324 125.584L188.089 124.442Z" fill="#455A64"/>
<path d="M125.67 123.034C125.67 123.651 125.915 124.242 126.351 124.678C126.787 125.115 127.379 125.359 127.995 125.359H151.851V120.51L127.975 120.709C127.362 120.714 126.776 120.961 126.344 121.397C125.912 121.832 125.67 122.421 125.67 123.034Z" fill="#455A64"/>
<path d="M189.88 215.883H17.7469C16.0576 215.883 14.4375 215.212 13.243 214.018C12.0485 212.823 11.3774 211.203 11.3774 209.514C11.3774 207.825 12.0485 206.205 13.243 205.01C14.4375 203.816 16.0576 203.145 17.7469 203.145H189.88C191.569 203.145 193.189 203.816 194.383 205.01C195.578 206.205 196.249 207.825 196.249 209.514C196.249 211.203 195.578 212.823 194.383 214.018C193.189 215.212 191.569 215.883 189.88 215.883Z" fill="#455A64"/>
<path d="M163.586 215.883H17.7469C16.0576 215.883 14.4375 215.212 13.243 214.018C12.0485 212.823 11.3774 211.203 11.3774 209.514C11.3774 207.825 12.0485 206.205 13.243 205.01C14.4375 203.816 16.0576 203.145 17.7469 203.145H163.596C165.285 203.145 166.905 203.816 168.1 205.01C169.294 206.205 169.965 207.825 169.965 209.514C169.965 210.351 169.8 211.18 169.48 211.954C169.159 212.727 168.689 213.43 168.096 214.021C167.504 214.613 166.8 215.082 166.026 215.401C165.253 215.721 164.423 215.885 163.586 215.883Z" fill="#263238"/>
<path d="M149.99 124.442C149.99 124.442 143.952 147.11 143.325 163.913C142.606 183.082 149.791 205.842 149.791 205.842H117.449V215.904H162.255C162.255 215.904 153.458 178.523 154.656 159.986C155.449 148.373 157.308 136.857 160.21 125.584L149.99 124.442Z" fill="#263238"/>
<path d="M146.553 124.442C146.553 124.442 140.515 147.11 139.888 163.913C139.169 183.082 146.359 205.842 146.359 205.842H124.074C121.405 205.842 118.846 206.902 116.959 208.789C115.072 210.676 114.012 213.235 114.012 215.904H158.817C158.817 215.904 150.021 178.523 151.219 159.986C152.012 148.373 153.871 136.857 156.773 125.584L146.553 124.442Z" fill="#455A64"/>
<path d="M163.244 216.056C163.172 216.056 162.224 212.997 161.158 209.213C160.092 205.429 159.261 202.313 159.332 202.293C159.404 202.272 160.352 205.352 161.413 209.141C162.474 212.93 163.315 216.036 163.244 216.056Z" fill="#455A64"/>
<path d="M196.249 208.764C196.249 208.84 190.359 208.897 183.092 208.897C175.825 208.897 169.935 208.84 169.935 208.764C169.935 208.687 175.825 208.631 183.076 208.631C190.328 208.631 196.249 208.693 196.249 208.764Z" fill="#263238"/>
<path d="M193.954 215.883C193.954 215.858 194.214 215.725 194.663 215.404C195.288 214.948 195.829 214.385 196.259 213.742C196.95 212.675 197.345 211.444 197.401 210.175C197.458 208.905 197.174 207.644 196.58 206.52C196.214 205.898 195.763 205.33 195.239 204.833C194.724 204.405 194.124 204.091 193.48 203.909C192.374 203.59 191.237 203.392 190.089 203.318C189.104 203.241 188.304 203.216 187.753 203.196C187.465 203.2 187.177 203.183 186.891 203.145C187.176 203.1 187.465 203.083 187.753 203.094C188.309 203.094 189.109 203.094 190.104 203.129C191.272 203.178 192.43 203.361 193.556 203.675C194.236 203.863 194.868 204.191 195.413 204.639C195.958 205.152 196.428 205.739 196.81 206.383C197.189 207.033 197.446 207.747 197.57 208.489C197.67 209.178 197.687 209.877 197.621 210.57C197.513 211.749 197.098 212.88 196.417 213.849C195.96 214.497 195.386 215.054 194.724 215.491C194.484 215.634 194.296 215.741 194.163 215.802C194.031 215.863 193.959 215.894 193.954 215.883Z" fill="#263238"/>
<path d="M148.623 121.382L146.971 125.982L156.773 125.584L198.319 126.742L226.056 109.311L224.797 104.732L176.493 102.442L148.623 121.382Z" fill="#455A64"/>
<path d="M201.195 127.711L156.772 125.584L180.491 107.644L226.056 109.311L201.195 127.711Z" fill="#263238"/>
<path d="M150.694 119.975C150.467 120.233 150.21 120.464 149.929 120.663C149.277 121.173 148.667 121.734 148.103 122.341C147.558 122.948 147.111 123.636 146.777 124.381C146.667 124.708 146.536 125.029 146.385 125.339C146.391 124.988 146.466 124.642 146.604 124.319C146.894 123.519 147.335 122.781 147.904 122.147C148.476 121.528 149.116 120.975 149.812 120.5C150.082 120.287 150.378 120.111 150.694 119.975Z" fill="#263238"/>
<path d="M180.491 107.659C179.73 106.865 179.033 106.012 178.405 105.109C177.71 104.253 177.083 103.344 176.528 102.391C177.292 103.184 177.991 104.037 178.619 104.941C179.316 105.795 179.941 106.704 180.491 107.659Z" fill="#263238"/>
<path d="M158.159 125.783C157.584 125.824 157.006 125.824 156.431 125.783L152.259 125.686C150.632 125.64 149.159 125.579 148.088 125.513C147.511 125.503 146.936 125.447 146.369 125.344C146.945 125.301 147.522 125.301 148.098 125.344L152.269 125.441C153.896 125.487 155.37 125.548 156.441 125.615C157.017 125.622 157.592 125.678 158.159 125.783Z" fill="#263238"/>
<path d="M217.269 197.637C218.121 198.845 219.768 198.448 220.533 197.708C221.298 196.969 221.619 195.893 221.915 194.873C222.583 192.537 223.261 190.089 222.762 187.733C222.642 187.013 222.326 186.339 221.849 185.785C221.607 185.513 221.298 185.31 220.952 185.195C220.607 185.081 220.237 185.059 219.88 185.132C219.049 185.352 218.529 186.152 218.157 186.938C217.057 189.225 216.481 191.728 216.469 194.266C216.393 195.451 216.672 196.631 217.269 197.657" fill="#F27370"/>
<g opacity="0.2">
<path d="M217.269 197.637C218.121 198.845 219.768 198.448 220.533 197.708C221.298 196.969 221.619 195.893 221.915 194.873C222.583 192.537 223.261 190.089 222.762 187.733C222.642 187.013 222.326 186.339 221.849 185.785C221.607 185.513 221.298 185.31 220.952 185.195C220.607 185.081 220.237 185.059 219.88 185.132C219.049 185.352 218.529 186.152 218.157 186.938C217.057 189.225 216.481 191.728 216.469 194.266C216.393 195.451 216.672 196.631 217.269 197.657" fill="black"/>
</g>
<path d="M220.446 203.766C221.878 203.095 223.487 202.902 225.036 203.216C225.879 203.294 226.671 203.653 227.285 204.236C227.851 204.858 227.953 205.949 227.311 206.485C226.893 206.766 226.389 206.893 225.888 206.841C224.684 206.841 223.338 206.617 222.384 207.351C221.834 207.765 221.466 208.453 220.814 208.657C220.485 208.737 220.139 208.706 219.83 208.568C219.521 208.431 219.266 208.195 219.105 207.897C218.792 207.293 218.723 206.592 218.911 205.939C218.983 205.483 219.159 205.05 219.425 204.673C219.692 204.297 220.041 203.986 220.446 203.766Z" fill="#F27370"/>
<path d="M214.944 199.371C215.379 198.801 215.669 198.135 215.788 197.428C215.907 196.722 215.852 195.997 215.627 195.316C215.162 193.956 214.331 192.751 213.225 191.833C211.973 190.711 210.512 189.845 208.926 189.284C208.311 189.036 207.65 188.925 206.988 188.957C206.659 188.977 206.339 189.076 206.057 189.247C205.775 189.418 205.538 189.654 205.367 189.936C204.913 190.803 205.367 191.849 205.821 192.705C206.647 194.211 207.591 195.649 208.646 197.004C209.492 198.096 210.461 199.172 211.751 199.666C213.042 200.161 214.383 200.105 215.066 199.207" fill="#F27370"/>
<path d="M217.214 215.904C217.258 215.723 217.283 215.539 217.29 215.353C217.331 214.955 217.377 214.45 217.438 213.854C217.499 213.257 217.601 212.466 217.775 211.651C217.971 210.763 218.238 209.894 218.575 209.05C218.906 208.209 219.353 207.417 219.901 206.699C220.351 206.114 220.926 205.636 221.584 205.302C222.028 205.08 222.505 204.932 222.997 204.863C223.181 204.856 223.364 204.829 223.542 204.781C223.357 204.764 223.171 204.764 222.986 204.781C222.476 204.822 221.977 204.953 221.513 205.169C220.818 205.497 220.212 205.984 219.743 206.592C219.168 207.318 218.704 208.126 218.366 208.989C218.025 209.846 217.759 210.732 217.571 211.635C217.427 212.371 217.328 213.116 217.275 213.864C217.229 214.501 217.214 215.016 217.203 215.394C217.189 215.564 217.193 215.734 217.214 215.904Z" fill="#263238"/>
<path d="M217.315 214.751C217.328 214.666 217.328 214.58 217.315 214.496V213.762C217.315 213.129 217.315 212.232 217.346 211.079C217.402 208.815 217.601 205.689 217.973 202.252C218.345 198.815 218.855 195.724 219.314 193.506C219.427 192.945 219.534 192.445 219.636 192.007C219.732 191.568 219.819 191.191 219.901 190.885C219.982 190.579 220.023 190.375 220.069 190.176C220.092 190.092 220.107 190.007 220.115 189.921C220.073 189.996 220.043 190.077 220.023 190.161L219.814 190.864C219.717 191.165 219.62 191.543 219.513 191.981C219.406 192.42 219.279 192.914 219.161 193.47C218.537 196.362 218.067 199.285 217.754 202.226C217.376 205.669 217.208 208.805 217.193 211.079C217.193 212.211 217.193 213.119 217.234 213.767C217.234 214.063 217.264 214.302 217.274 214.496C217.282 214.582 217.295 214.667 217.315 214.751Z" fill="#263238"/>
<path d="M217.33 208.703C217.355 208.449 217.355 208.193 217.33 207.938C217.289 207.246 217.213 206.557 217.101 205.873C216.933 204.856 216.708 203.85 216.428 202.859C216.093 201.641 215.672 200.448 215.168 199.289C214.295 197.162 213.042 195.211 211.471 193.532C211.199 193.242 210.908 192.971 210.599 192.721C210.466 192.609 210.349 192.497 210.227 192.405L209.89 192.175C209.687 192.022 209.472 191.884 209.248 191.762C209.988 192.343 210.691 192.97 211.354 193.639C212.872 195.333 214.091 197.273 214.959 199.376C215.46 200.527 215.883 201.712 216.224 202.92C216.555 204.027 216.775 205.042 216.943 205.898C217.111 206.755 217.188 207.459 217.244 207.938C217.254 208.195 217.283 208.451 217.33 208.703Z" fill="#263238"/>
<path d="M195.045 37.6364C194.418 34.8724 191.792 32.496 188.967 32.7765C188.133 32.8959 187.333 33.1835 186.614 33.6218C185.895 34.0601 185.273 34.64 184.785 35.3263C184.422 35.7757 184.094 36.2532 183.806 36.7542C183.514 36.2544 183.185 35.7771 182.822 35.3263C182.334 34.64 181.712 34.0601 180.993 33.6218C180.274 33.1835 179.473 32.8959 178.64 32.7765C175.815 32.496 173.188 34.8724 172.561 37.6364C171.934 40.4004 172.974 43.3378 174.683 45.602C176.935 48.7581 180.26 50.986 184.035 51.8694C187.202 51.1402 191.216 47.8662 192.924 45.602C194.632 43.3378 195.673 40.4055 195.045 37.6364Z" fill="#F27370"/>
<path d="M194.53 42.7664C194.409 42.7895 194.286 42.7998 194.163 42.797L193.107 42.8225L189.237 42.8633L189.329 42.797C188.987 44.0515 188.589 45.5202 188.151 47.1265L188.049 47.4988L187.921 47.1316C187.228 45.1581 186.458 42.9449 185.642 40.6143L184.907 38.4878H185.147L182.597 42.8021L182.567 42.8939H182.5L175.687 42.8429L173.754 42.8123H173.244C173.127 42.8123 173.066 42.8123 173.066 42.8123H173.244H173.754L175.687 42.7817L182.5 42.7307L182.393 42.7919L184.907 38.4623L185.05 38.2124L185.147 38.4827C185.387 39.1762 185.631 39.8851 185.886 40.6092C186.692 42.9398 187.452 45.1581 188.135 47.1367H187.906C188.36 45.5355 188.778 44.077 189.13 42.8174V42.746H189.206L193.077 42.7868H194.132C194.264 42.7711 194.397 42.7643 194.53 42.7664Z" fill="#263238"/>
<path d="M176.059 59.7792C176.059 60.5288 175.391 60.998 174.377 60.998C173.362 60.998 172.709 60.5288 172.709 59.7792C172.707 59.5813 172.764 59.3872 172.87 59.2205C172.977 59.0539 173.13 58.922 173.311 58.8409C173.168 58.7585 173.05 58.6393 172.969 58.4958C172.889 58.3522 172.848 58.1896 172.852 58.0249C172.852 57.3263 173.474 56.8877 174.382 56.8877C175.289 56.8877 175.912 57.3263 175.912 58.0249C175.914 58.19 175.873 58.3528 175.791 58.4963C175.709 58.6398 175.591 58.7588 175.448 58.8409C175.63 58.9205 175.785 59.0517 175.894 59.2185C176.003 59.3852 176.06 59.5801 176.059 59.7792ZM175.126 59.7486C175.126 59.3967 174.841 59.1825 174.377 59.1825C173.913 59.1825 173.642 59.3967 173.642 59.7486C173.642 60.1005 173.923 60.3248 174.377 60.3248C174.83 60.3248 175.126 60.1005 175.126 59.7486ZM173.765 58.0606C173.765 58.3615 174.004 58.5706 174.377 58.5706C174.749 58.5706 175.004 58.3819 175.004 58.0606C175.004 57.7393 174.754 57.5506 174.377 57.5506C173.999 57.5506 173.765 57.7495 173.765 58.0606Z" fill="#263238"/>
<path d="M176.478 58.9427C176.478 57.6321 177.207 56.9028 178.181 56.9028C179.155 56.9028 179.884 57.6474 179.884 58.9427C179.884 60.238 179.165 60.9825 178.181 60.9825C177.197 60.9825 176.478 60.2329 176.478 58.9427ZM178.961 58.9427C178.961 58.04 178.64 57.6627 178.181 57.6627C177.722 57.6627 177.411 58.04 177.411 58.9427C177.411 59.8453 177.727 60.2227 178.181 60.2227C178.635 60.2227 178.961 59.8453 178.961 58.9427Z" fill="#263238"/>
<path d="M185.188 59.4376C185.199 59.638 185.169 59.8386 185.099 60.0266C185.028 60.2147 184.92 60.3861 184.78 60.53C184.64 60.6738 184.471 60.787 184.285 60.8623C184.099 60.9376 183.899 60.9734 183.699 60.9674C183.469 60.9766 183.241 60.9242 183.039 60.8157C182.836 60.7072 182.666 60.5466 182.546 60.3504V60.9419H182.159V56.7144H182.567V58.5094C182.69 58.3224 182.86 58.1699 183.059 58.0664C183.258 57.9629 183.48 57.9118 183.704 57.9179C183.903 57.9127 184.101 57.9488 184.286 58.0238C184.471 58.0988 184.638 58.2111 184.778 58.3538C184.917 58.4965 185.025 58.6664 185.096 58.8529C185.166 59.0393 185.198 59.2384 185.188 59.4376ZM184.785 59.4376C184.776 59.2186 184.703 59.0072 184.574 58.8296C184.446 58.6519 184.269 58.516 184.064 58.4386C183.859 58.3612 183.635 58.3458 183.422 58.3944C183.208 58.443 183.013 58.5533 182.862 58.7116C182.71 58.87 182.609 59.0694 182.57 59.285C182.531 59.5007 182.557 59.723 182.643 59.9243C182.729 60.1256 182.873 60.297 183.056 60.4172C183.24 60.5374 183.454 60.6011 183.673 60.6003C183.824 60.6027 183.974 60.5738 184.114 60.5155C184.253 60.4573 184.379 60.3709 184.483 60.2617C184.587 60.1525 184.668 60.023 184.72 59.8812C184.772 59.7393 184.794 59.5883 184.785 59.4376Z" fill="#263238"/>
<path d="M189.037 59.4375C189.049 59.6379 189.018 59.8385 188.948 60.0266C188.878 60.2146 188.769 60.386 188.629 60.5299C188.489 60.6738 188.321 60.7869 188.135 60.8622C187.949 60.9376 187.749 60.9734 187.548 60.9674C187.325 60.975 187.102 60.925 186.903 60.8224C186.704 60.7197 186.535 60.5677 186.411 60.3809V62.0434H186.008V57.9637H186.396V58.5553C186.517 58.3602 186.687 58.2004 186.889 58.0921C187.092 57.9837 187.319 57.9307 187.548 57.9382C187.746 57.9325 187.943 57.9675 188.127 58.0409C188.311 58.1144 188.478 58.2248 188.618 58.3653C188.757 58.5058 188.867 58.6735 188.939 58.8579C189.011 59.0423 189.045 59.2396 189.037 59.4375ZM188.635 59.4375C188.626 59.2188 188.553 59.0075 188.424 58.83C188.296 58.6525 188.119 58.5165 187.914 58.439C187.71 58.3614 187.487 58.3458 187.273 58.3939C187.06 58.4421 186.865 58.5519 186.713 58.7097C186.562 58.8676 186.46 59.0665 186.42 59.2818C186.381 59.4971 186.405 59.7193 186.491 59.9207C186.577 60.1221 186.72 60.2939 186.902 60.4147C187.085 60.5355 187.299 60.6 187.518 60.6002C187.669 60.6025 187.819 60.5737 187.959 60.5155C188.098 60.4573 188.224 60.371 188.329 60.2619C188.434 60.1528 188.515 60.0233 188.568 59.8815C188.62 59.7396 188.643 59.5885 188.635 59.4375Z" fill="#263238"/>
<path d="M194.805 59.213V60.9468H194.402V59.2537C194.402 58.6214 194.081 58.3001 193.54 58.3001C193.399 58.29 193.257 58.3113 193.125 58.3626C192.993 58.4139 192.873 58.4939 192.776 58.5968C192.678 58.6998 192.605 58.823 192.561 58.9578C192.517 59.0926 192.503 59.2354 192.521 59.3761V60.9468H192.118V59.2537C192.118 58.6214 191.801 58.3001 191.256 58.3001C191.115 58.2909 190.973 58.3129 190.841 58.3645C190.71 58.4161 190.591 58.4961 190.493 58.5988C190.396 58.7016 190.322 58.8244 190.278 58.9588C190.233 59.0931 190.219 59.2356 190.236 59.3761V60.9468H189.833V57.9584H190.221V58.5041C190.335 58.3198 190.496 58.1696 190.688 58.0691C190.88 57.9686 191.095 57.9216 191.312 57.9329C191.533 57.9171 191.753 57.9692 191.944 58.0822C192.134 58.1952 192.286 58.3638 192.378 58.5653C192.499 58.3623 192.673 58.1962 192.881 58.0848C193.09 57.9734 193.325 57.9209 193.561 57.9329C193.732 57.9143 193.905 57.9349 194.067 57.9931C194.229 58.0514 194.375 58.1458 194.495 58.2693C194.615 58.3927 194.706 58.5418 194.759 58.7053C194.813 58.8688 194.829 59.0425 194.805 59.213Z" fill="#263238"/>
<path d="M204.734 70.0803C205.401 70.0603 206.058 69.9096 206.667 69.6367C207.404 69.2938 208.039 68.7669 208.513 68.1068C208.818 67.6946 209.053 67.2344 209.207 66.7452C209.374 66.1849 209.446 65.6006 209.421 65.0164C209.421 60.0188 209.421 52.8028 209.38 43.8836C209.38 39.4214 209.38 34.5309 209.38 29.2884C209.38 27.9795 209.38 26.6451 209.38 25.2852C209.38 24.6121 209.38 23.9185 209.38 23.2454C209.335 22.2031 208.936 21.2074 208.249 20.4222C207.562 19.6371 206.628 19.1093 205.601 18.926C204.889 18.8395 204.171 18.8122 203.454 18.8444H201.256H162.877C162.05 18.8477 161.24 19.0715 160.529 19.4929C159.818 19.9143 159.232 20.5178 158.833 21.2412C158.441 21.9619 158.244 22.7722 158.261 23.5922V35.8772C158.261 42.2976 158.261 48.4936 158.261 54.3939C158.261 57.3415 158.261 60.2143 158.261 63.0123V65.0929C158.24 65.7638 158.356 66.4321 158.603 67.0563C158.849 67.6612 159.22 68.2072 159.692 68.6582C160.164 69.1091 160.726 69.4548 161.342 69.6724C161.946 69.8807 162.584 69.9742 163.223 69.9477H168.848H175.85L196.983 69.9885H202.73H204.224H204.734H204.224H202.73H196.983L175.85 70.0344H163.188C162.523 70.0649 161.859 69.9698 161.229 69.754C160.584 69.5246 159.994 69.1617 159.499 68.6889C159.003 68.2162 158.613 67.6442 158.353 67.0104C158.098 66.3615 157.976 65.6676 157.996 64.9705V63.0378C157.996 60.2432 157.996 57.3704 157.996 54.4194C157.996 48.5191 157.996 42.3231 157.996 35.9027V23.6177C157.98 22.7535 158.187 21.8998 158.598 21.1392C159.019 20.3717 159.638 19.7307 160.39 19.2824C161.143 18.8341 162.001 18.5949 162.877 18.5894H201.256H203.475C204.205 18.5591 204.937 18.5898 205.662 18.6812C206.739 18.886 207.714 19.45 208.428 20.2809C209.142 21.1119 209.553 22.1606 209.594 23.2556C209.594 23.9491 209.594 24.6274 209.594 25.2954C209.594 26.6519 209.594 27.988 209.594 29.2986C209.594 34.5411 209.594 39.4316 209.594 43.8938C209.594 52.813 209.564 60.029 209.553 65.0266C209.572 65.6203 209.493 66.213 209.319 66.7809C209.16 67.2791 208.916 67.7465 208.6 68.1629C208.114 68.8275 207.464 69.3546 206.713 69.6928C206.254 69.8911 205.767 70.0183 205.27 70.0701C204.903 70.0854 204.734 70.0803 204.734 70.0803Z" fill="#263238"/>
<path d="M183.841 73.7266C183.664 72.8858 183.664 72.0175 183.841 71.1768C184.018 72.0175 184.018 72.8858 183.841 73.7266Z" fill="#263238"/>
<path d="M183.836 78.8262C183.707 78.4144 183.662 77.9808 183.704 77.5513C183.659 77.1213 183.706 76.6868 183.842 76.2764C183.97 76.6882 184.014 77.1221 183.969 77.5513C184.011 77.9808 183.966 78.4144 183.836 78.8262Z" fill="#263238"/>
<path d="M183.826 83.9258C183.7 83.5133 183.657 83.0801 183.699 82.6509C183.657 82.2213 183.702 81.7878 183.831 81.376C183.963 81.7872 184.008 82.2213 183.964 82.6509C184.008 83.0808 183.961 83.5153 183.826 83.9258Z" fill="#263238"/>
<path d="M183.816 89.0254C183.69 88.6129 183.647 88.1797 183.688 87.7505C183.647 87.3209 183.692 86.8874 183.821 86.4756C183.953 86.8868 183.998 87.3209 183.953 87.7505C183.998 88.1804 183.951 88.6149 183.816 89.0254Z" fill="#263238"/>
<path d="M183.811 94.1196C183.679 93.7084 183.634 93.2743 183.678 92.8447C183.634 92.4148 183.681 91.9803 183.816 91.5698C183.942 91.9823 183.985 92.4155 183.943 92.8447C183.985 93.2743 183.94 93.7079 183.811 94.1196Z" fill="#263238"/>
<path d="M183.806 99.2192C183.673 98.8081 183.628 98.3739 183.673 97.9443C183.631 97.5148 183.676 97.0812 183.806 96.6694C183.982 97.5102 183.982 98.3785 183.806 99.2192Z" fill="#263238"/>
<path d="M183.806 102.442C183.729 102.442 183.668 102.289 183.668 102.106C183.668 101.922 183.729 101.769 183.806 101.769C183.882 101.769 183.938 101.917 183.938 102.106C183.938 102.294 183.877 102.442 183.806 102.442Z" fill="#263238"/>
<path d="M136.803 63.1191C136.979 63.9599 136.979 64.8282 136.803 65.669C136.626 64.8282 136.626 63.9599 136.803 63.1191Z" fill="#263238"/>
<path d="M136.803 58.0195C136.979 58.8603 136.979 59.7286 136.803 60.5693C136.626 59.7286 136.626 58.8603 136.803 58.0195Z" fill="#263238"/>
<path d="M136.803 52.9199C136.979 53.7607 136.979 54.629 136.803 55.4697C136.626 54.629 136.626 53.7607 136.803 52.9199Z" fill="#263238"/>
<path d="M136.803 47.8203C136.979 48.6611 136.979 49.5294 136.803 50.3701C136.626 49.5294 136.626 48.6611 136.803 47.8203Z" fill="#263238"/>
<path d="M139.505 45.4441C138.665 45.6209 137.796 45.6209 136.956 45.4441C137.796 45.2673 138.665 45.2673 139.505 45.4441Z" fill="#263238"/>
<path d="M144.605 45.4441C143.764 45.6209 142.896 45.6209 142.055 45.4441C142.896 45.2673 143.764 45.2673 144.605 45.4441Z" fill="#263238"/>
<path d="M149.704 45.4441C148.863 45.6209 147.995 45.6209 147.154 45.4441C147.995 45.2673 148.863 45.2673 149.704 45.4441Z" fill="#263238"/>
<path d="M154.804 45.4441C153.963 45.6209 153.095 45.6209 152.254 45.4441C153.095 45.2673 153.963 45.2673 154.804 45.4441Z" fill="#263238"/>
<path d="M158.129 45.4441C158.129 45.5206 157.956 45.5767 157.742 45.5767C157.527 45.5767 157.354 45.5206 157.354 45.4441C157.354 45.3676 157.527 45.3115 157.742 45.3115C157.956 45.3115 158.129 45.3523 158.129 45.4441Z" fill="#263238"/>
</svg>