<svg width="16" height="17" viewBox="0 0 16 17" fill="none" xmlns="http://www.w3.org/2000/svg">
<path d="M9.5 1.5C9.10218 1.5 8.72064 1.65804 8.43934 1.93934C8.15804 2.22064 8 2.60218 8 3V5C8.00004 5.31016 8.09623 5.61267 8.27532 5.8659C8.4544 6.11913 8.70758 6.31062 9 6.414V7.5C9.00004 7.59501 9.02714 7.68804 9.07814 7.7682C9.12913 7.84836 9.20191 7.91233 9.28795 7.95262C9.37399 7.99291 9.46973 8.00786 9.56396 7.99571C9.65819 7.98355 9.747 7.9448 9.82 7.884L11.48 6.5H13.5C13.8978 6.5 14.2794 6.34196 14.5607 6.06066C14.842 5.77936 15 5.39782 15 5V3C15 2.60218 14.842 2.22064 14.5607 1.93934C14.2794 1.65804 13.8978 1.5 13.5 1.5H9.5ZM9 3C9 2.86739 9.05268 2.74021 9.14645 2.64645C9.24021 2.55268 9.36739 2.5 9.5 2.5H13.5C13.6326 2.5 13.7598 2.55268 13.8536 2.64645C13.9473 2.74021 14 2.86739 14 3V5C14 5.13261 13.9473 5.25979 13.8536 5.35355C13.7598 5.44732 13.6326 5.5 13.5 5.5H11.3C11.1831 5.50005 11.0698 5.5411 10.98 5.616L10 6.432V6C10 5.86739 9.94732 5.74021 9.85355 5.64645C9.75979 5.55268 9.63261 5.5 9.5 5.5C9.36739 5.5 9.24021 5.44732 9.14645 5.35355C9.05268 5.25979 9 5.13261 9 5V3ZM3 6.5C3 5.96957 3.21071 5.46086 3.58579 5.08579C3.96086 4.71071 4.46957 4.5 5 4.5C5.53043 4.5 6.03914 4.71071 6.41421 5.08579C6.78929 5.46086 7 5.96957 7 6.5C7 7.03043 6.78929 7.53914 6.41421 7.91421C6.03914 8.28929 5.53043 8.5 5 8.5C4.46957 8.5 3.96086 8.28929 3.58579 7.91421C3.21071 7.53914 3 7.03043 3 6.5ZM5 5.5C4.73478 5.5 4.48043 5.60536 4.29289 5.79289C4.10536 5.98043 4 6.23478 4 6.5C4 6.76522 4.10536 7.01957 4.29289 7.20711C4.48043 7.39464 4.73478 7.5 5 7.5C5.26522 7.5 5.51957 7.39464 5.70711 7.20711C5.89464 7.01957 6 6.76522 6 6.5C6 6.23478 5.89464 5.98043 5.70711 5.79289C5.51957 5.60536 5.26522 5.5 5 5.5ZM2.5 9.5H7.5C7.89782 9.5 8.27936 9.65804 8.56066 9.93934C8.84196 10.2206 9 10.6022 9 11C9 12.116 8.541 13.01 7.788 13.615C7.047 14.21 6.053 14.5 5 14.5C3.947 14.5 2.953 14.21 2.212 13.615C1.46 13.01 1 12.116 1 11C1 10.6022 1.15804 10.2206 1.43934 9.93934C1.72064 9.65804 2.10218 9.5 2.5 9.5ZM7.5 10.5H2.5C2.36739 10.5 2.24021 10.5527 2.14645 10.6464C2.05268 10.7402 2 10.8674 2 11C2 11.817 2.325 12.423 2.838 12.835C3.364 13.257 4.12 13.5 5 13.5C5.88 13.5 6.636 13.257 7.162 12.835C7.675 12.423 8 11.817 8 11C8 10.8674 7.94732 10.7402 7.85355 10.6464C7.75979 10.5527 7.63261 10.5 7.5 10.5Z" fill="#F27370"/>
</svg>