<svg width="10" height="10" viewBox="0 0 10 10" fill="none" xmlns="http://www.w3.org/2000/svg">
<path d="M3.08341 2.91675H1.91675C1.85044 2.91675 1.78686 2.94309 1.73997 2.98997C1.69309 3.03686 1.66675 3.10044 1.66675 3.16675V6.83341C1.66675 6.86625 1.67321 6.89875 1.68578 6.92909C1.69834 6.95942 1.71676 6.98698 1.73997 7.01019C1.76319 7.03341 1.79075 7.05182 1.82108 7.06438C1.85141 7.07695 1.88392 7.08341 1.91675 7.08341H3.08341C3.11625 7.08341 3.14875 7.07695 3.17909 7.06438C3.20942 7.05182 3.23698 7.03341 3.26019 7.01019C3.28341 6.98698 3.30182 6.95942 3.31438 6.92909C3.32695 6.89875 3.33341 6.86625 3.33341 6.83341V3.16675C3.33341 3.10044 3.30708 3.03686 3.26019 2.98997C3.21331 2.94309 3.14972 2.91675 3.08341 2.91675ZM8.08341 2.91675H6.91675C6.85044 2.91675 6.78686 2.94309 6.73997 2.98997C6.69309 3.03686 6.66675 3.10044 6.66675 3.16675V6.83341C6.66675 6.86625 6.67321 6.89875 6.68578 6.92909C6.69834 6.95942 6.71676 6.98698 6.73997 7.01019C6.76319 7.03341 6.79075 7.05182 6.82108 7.06438C6.85141 7.07695 6.88392 7.08341 6.91675 7.08341H8.08341C8.11624 7.08341 8.14875 7.07695 8.17909 7.06438C8.20942 7.05182 8.23698 7.03341 8.26019 7.01019C8.28341 6.98698 8.30182 6.95942 8.31438 6.92909C8.32695 6.89875 8.33341 6.86625 8.33341 6.83341V3.16675C8.33341 3.10044 8.30708 3.03686 8.26019 2.98997C8.21331 2.94309 8.14972 2.91675 8.08341 2.91675Z" fill="#E6E6E6" stroke="#E6E6E6" stroke-width="0.8" stroke-linecap="round" stroke-linejoin="round"/>
<path d="M0.416748 6V4C0.416748 3.9337 0.443087 3.87011 0.489971 3.82322C0.536855 3.77634 0.600444 3.75 0.666748 3.75H1.41675C1.48305 3.75 1.54664 3.77634 1.59352 3.82322C1.64041 3.87011 1.66675 3.9337 1.66675 4V6C1.66675 6.0663 1.64041 6.12989 1.59352 6.17678C1.54664 6.22366 1.48305 6.25 1.41675 6.25H0.666748C0.600444 6.25 0.536855 6.22366 0.489971 6.17678C0.443087 6.12989 0.416748 6.0663 0.416748 6ZM9.58342 6V4C9.58342 3.9337 9.55708 3.87011 9.51019 3.82322C9.46331 3.77634 9.39972 3.75 9.33342 3.75H8.58342C8.51711 3.75 8.45352 3.77634 8.40664 3.82322C8.35975 3.87011 8.33342 3.9337 8.33342 4V6C8.33342 6.0663 8.35975 6.12989 8.40664 6.17678C8.45352 6.22366 8.51711 6.25 8.58342 6.25H9.33342C9.39972 6.25 9.46331 6.22366 9.51019 6.17678C9.55708 6.12989 9.58342 6.0663 9.58342 6ZM3.33341 5H6.66675H3.33341Z" fill="#E6E6E6"/>
<path d="M3.33341 5H6.66675M0.416748 6V4C0.416748 3.9337 0.443087 3.87011 0.489971 3.82322C0.536855 3.77634 0.600444 3.75 0.666748 3.75H1.41675C1.48305 3.75 1.54664 3.77634 1.59352 3.82322C1.64041 3.87011 1.66675 3.9337 1.66675 4V6C1.66675 6.0663 1.64041 6.12989 1.59352 6.17678C1.54664 6.22366 1.48305 6.25 1.41675 6.25H0.666748C0.600444 6.25 0.536855 6.22366 0.489971 6.17678C0.443087 6.12989 0.416748 6.0663 0.416748 6V6ZM9.58342 6V4C9.58342 3.9337 9.55708 3.87011 9.51019 3.82322C9.46331 3.77634 9.39972 3.75 9.33341 3.75H8.58342C8.51711 3.75 8.45352 3.77634 8.40664 3.82322C8.35975 3.87011 8.33342 3.9337 8.33342 4V6C8.33342 6.0663 8.35975 6.12989 8.40664 6.17678C8.45352 6.22366 8.51711 6.25 8.58342 6.25H9.33341C9.39972 6.25 9.46331 6.22366 9.51019 6.17678C9.55708 6.12989 9.58342 6.0663 9.58342 6V6Z" stroke="#E6E6E6" stroke-width="0.8" stroke-linecap="round" stroke-linejoin="round"/>
</svg>