<svg width="10" height="10" viewBox="0 0 10 10" fill="none" xmlns="http://www.w3.org/2000/svg">
<path d="M3.08329 2.91675H1.91663C1.85032 2.91675 1.78673 2.94309 1.73985 2.98997C1.69297 3.03686 1.66663 3.10044 1.66663 3.16675V6.83341C1.66663 6.86624 1.67309 6.89875 1.68566 6.92909C1.69822 6.95942 1.71663 6.98698 1.73985 7.01019C1.76306 7.03341 1.79062 7.05182 1.82096 7.06438C1.85129 7.07695 1.8838 7.08341 1.91663 7.08341H3.08329C3.11612 7.08341 3.14863 7.07695 3.17896 7.06438C3.20929 7.05182 3.23685 7.03341 3.26007 7.01019C3.28328 6.98698 3.3017 6.95942 3.31426 6.92909C3.32683 6.89875 3.33329 6.86624 3.33329 6.83341V3.16675C3.33329 3.10044 3.30695 3.03686 3.26007 2.98997C3.21319 2.94309 3.1496 2.91675 3.08329 2.91675V2.91675ZM8.08329 2.91675H6.91663C6.85032 2.91675 6.78673 2.94309 6.73985 2.98997C6.69296 3.03686 6.66663 3.10044 6.66663 3.16675V6.83341C6.66663 6.86624 6.67309 6.89875 6.68566 6.92909C6.69822 6.95942 6.71663 6.98698 6.73985 7.01019C6.76306 7.03341 6.79062 7.05182 6.82095 7.06438C6.85129 7.07695 6.8838 7.08341 6.91663 7.08341H8.08329C8.11612 7.08341 8.14863 7.07695 8.17896 7.06438C8.20929 7.05182 8.23685 7.03341 8.26007 7.01019C8.28328 6.98698 8.3017 6.95942 8.31426 6.92909C8.32683 6.89875 8.33329 6.86624 8.33329 6.83341V3.16675C8.33329 3.10044 8.30695 3.03686 8.26007 2.98997C8.21319 2.94309 8.1496 2.91675 8.08329 2.91675V2.91675Z" stroke="#707070" stroke-width="0.8" stroke-linecap="round" stroke-linejoin="round"/>
<path d="M3.33329 5H6.66663M0.416626 6V4C0.416626 3.9337 0.442965 3.87011 0.489849 3.82322C0.536733 3.77634 0.600322 3.75 0.666626 3.75H1.41663C1.48293 3.75 1.54652 3.77634 1.5934 3.82322C1.64029 3.87011 1.66663 3.9337 1.66663 4V6C1.66663 6.0663 1.64029 6.12989 1.5934 6.17678C1.54652 6.22366 1.48293 6.25 1.41663 6.25H0.666626C0.600322 6.25 0.536733 6.22366 0.489849 6.17678C0.442965 6.12989 0.416626 6.0663 0.416626 6V6ZM9.58329 6V4C9.58329 3.9337 9.55695 3.87011 9.51007 3.82322C9.46319 3.77634 9.3996 3.75 9.33329 3.75H8.58329C8.51699 3.75 8.4534 3.77634 8.40652 3.82322C8.35963 3.87011 8.33329 3.9337 8.33329 4V6C8.33329 6.0663 8.35963 6.12989 8.40652 6.17678C8.4534 6.22366 8.51699 6.25 8.58329 6.25H9.33329C9.3996 6.25 9.46319 6.22366 9.51007 6.17678C9.55695 6.12989 9.58329 6.0663 9.58329 6V6Z" stroke="#707070" stroke-width="0.8" stroke-linecap="round" stroke-linejoin="round"/>
</svg>