<svg width="10" height="10" viewBox="0 0 10 10" fill="none" xmlns="http://www.w3.org/2000/svg">
<path d="M5 5.4165C5.69036 5.4165 6.25 4.85686 6.25 4.1665C6.25 3.47615 5.69036 2.9165 5 2.9165C4.30964 2.9165 3.75 3.47615 3.75 4.1665C3.75 4.85686 4.30964 5.4165 5 5.4165Z" fill="#E6E6E6" stroke="#E6E6E6" stroke-linecap="round" stroke-linejoin="round"/>
<path d="M5.00008 0.833252C4.11603 0.833252 3.26818 1.18444 2.64306 1.80956C2.01794 2.43468 1.66675 3.28253 1.66675 4.16659C1.66675 4.95492 1.83425 5.47075 2.29175 6.04158L5.00008 9.16658L7.70841 6.04158C8.16591 5.47075 8.33341 4.95492 8.33341 4.16659C8.33341 3.28253 7.98223 2.43468 7.3571 1.80956C6.73198 1.18444 5.88414 0.833252 5.00008 0.833252Z" fill="#E6E6E6" stroke="#E6E6E6" stroke-linecap="round" stroke-linejoin="round"/>
</svg>