<svg width="16" height="17" viewBox="0 0 16 17" fill="none" xmlns="http://www.w3.org/2000/svg">
<path d="M8.66667 11.1667V11.8333C8.66667 12.3638 8.45595 12.8725 8.08088 13.2475C7.70581 13.6226 7.1971 13.8333 6.66667 13.8333H4C3.46957 13.8333 2.96086 13.6226 2.58579 13.2475C2.21071 12.8725 2 12.3638 2 11.8333V5.16666C2 4.63623 2.21071 4.12752 2.58579 3.75245C2.96086 3.37738 3.46957 3.16666 4 3.16666H6.66667C7.1971 3.16666 7.70581 3.37738 8.08088 3.75245C8.45595 4.12752 8.66667 4.63623 8.66667 5.16666V5.83333M11.3333 11.1667L14 8.5L11.3333 11.1667ZM14 8.5L11.3333 5.83333L14 8.5ZM14 8.5H4.66667H14Z" stroke="#F60000" stroke-linecap="round" stroke-linejoin="round"/>
</svg>