<svg width="60" height="19" viewBox="0 0 60 19" fill="none" xmlns="http://www.w3.org/2000/svg">
<path fill-rule="evenodd" clip-rule="evenodd" d="M0.0631579 12.9811C0.0631579 12.0844 0.0473684 11.3319 0 10.6609H1.64337L1.72042 11.8137H1.76653C2.139 11.2045 2.82016 10.4841 4.09074 10.4841C5.08247 10.4841 5.85711 11.0616 6.18189 11.9255H6.21379C6.47763 11.4935 6.78647 11.1737 7.14253 10.9488C7.56126 10.6451 8.04174 10.4841 8.66147 10.4841C9.9161 10.4841 11.1857 11.3642 11.1857 13.8611V18.4536H9.32684V14.1496C9.32684 12.8535 8.89374 12.0844 7.98016 12.0844C7.32837 12.0844 6.84758 12.5654 6.64753 13.1257C6.60047 13.3172 6.55405 13.5574 6.55405 13.7799V18.4536H4.69453V13.9409C4.69453 12.8535 4.27689 12.0844 3.39363 12.0844C2.68089 12.0844 2.20121 12.6614 2.03037 13.2043C1.95237 13.3976 1.92111 13.621 1.92111 13.8446V18.4536H0.0631579V12.9811Z" fill="#22559C"/>
<path fill-rule="evenodd" clip-rule="evenodd" d="M18.4281 16.5818C18.4281 17.2855 18.4591 17.9725 18.5366 18.4539H16.8163L16.6929 17.59H16.6458C16.1813 18.1987 15.3912 18.6301 14.4152 18.6301C12.8966 18.6301 12.0449 17.4948 12.0449 16.3099C12.0449 14.3409 13.733 13.3496 16.5219 13.3655V13.2369C16.5219 12.7247 16.3202 11.8771 14.9881 11.8771C14.2441 11.8771 13.4691 12.1173 12.9582 12.4528L12.5859 11.1737C13.1447 10.8209 14.1216 10.4844 15.3135 10.4844C17.7313 10.4844 18.4281 12.0697 18.4281 13.7652V16.5818ZM16.5683 14.6457C15.2207 14.6134 13.9351 14.9174 13.9351 16.1018C13.9351 16.8692 14.4152 17.2219 15.0197 17.2219C15.7779 17.2219 16.3365 16.7097 16.5064 16.1498C16.5525 16.0058 16.5683 15.8451 16.5683 15.7176V14.6457Z" fill="#22559C"/>
<path fill-rule="evenodd" clip-rule="evenodd" d="M19.7458 12.9811C19.7458 12.0844 19.7288 11.3319 19.6836 10.6609H21.3554L21.4489 11.829H21.4946C21.8204 11.2216 22.6414 10.4841 23.8961 10.4841C25.2134 10.4841 26.5766 11.3642 26.5766 13.8292V18.4536H24.6713V14.0537C24.6713 12.9328 24.2685 12.0844 23.2304 12.0844C22.4712 12.0844 21.9446 12.6446 21.7427 13.237C21.6818 13.4134 21.6656 13.654 21.6656 13.8765V18.4536H19.7458V12.9811Z" fill="#22559C"/>
<path fill-rule="evenodd" clip-rule="evenodd" d="M34.8385 7.52972V16.2609C34.8385 17.0608 34.869 17.9265 34.9001 18.454H33.1958L33.1195 17.222H33.0879C32.6384 18.0865 31.7229 18.6301 30.6241 18.6301C28.8278 18.6301 27.402 17.0462 27.402 14.6458C27.3862 12.0371 28.9664 10.4845 30.7789 10.4845C31.8166 10.4845 32.5609 10.9331 32.9011 11.5097H32.9326V7.52972H34.8385ZM32.9326 13.9084C32.9326 13.7501 32.9166 13.5571 32.8868 13.3976C32.7161 12.6295 32.1115 12.005 31.2439 12.005C30.02 12.005 29.3382 13.1257 29.3382 14.582C29.3382 16.0058 30.02 17.0462 31.2284 17.0462C32.0027 17.0462 32.6848 16.5022 32.8705 15.6543C32.9166 15.4775 32.9326 15.2857 32.9326 15.077V13.9084Z" fill="#22559C"/>
<path fill-rule="evenodd" clip-rule="evenodd" d="M36.1851 18.4535H38.1081V10.6613H36.1851V18.4535Z" fill="#22559C"/>
<path fill-rule="evenodd" clip-rule="evenodd" d="M39.4545 13.173C39.4545 12.1173 39.4384 11.3641 39.3921 10.6607H41.0501L41.1108 12.1484H41.175C41.5462 11.0443 42.4295 10.6607 43.2348 10.6607C43.4203 10.6607 43.5286 10.6279 43.684 10.6607V12.3895C43.5286 12.3575 43.3586 12.3255 43.1261 12.3255C42.2122 12.3255 41.592 12.9331 41.4218 13.8126C41.3917 13.9887 41.3604 14.1977 41.3604 14.4227V18.4539H39.4545V13.173Z" fill="#22559C"/>
<path fill-rule="evenodd" clip-rule="evenodd" d="M44.5674 18.4535H46.4875V10.6613H44.5674V18.4535Z" fill="#22559C"/>
<path fill-rule="evenodd" clip-rule="evenodd" d="M44.1127 1.23965C42.9593 1.92953 40.2388 3.54121 39.2232 4.14139V4.14139C38.6042 4.46708 37.1707 4.6093 36.3599 3.48005V3.48005C36.3454 3.45966 35.2815 2.08659 35.2381 2.03489V2.03489C35.2076 1.99835 34.5198 0.944613 32.9873 0.911669V0.911669C32.7609 0.906124 31.6351 0.899926 30.5366 1.54479V1.54479C29.0766 2.40641 25.6809 4.41163 25.6809 4.41163V4.41163C25.6799 4.41163 25.6799 4.41342 25.6782 4.41342V4.41342C24.2824 5.23834 23.1948 5.8806 23.1948 5.8806V5.8806L24.4798 7.51071C25.0809 8.28165 26.4364 8.87807 27.6119 8.18102V8.18102C27.6119 8.18102 31.9555 5.58296 31.9714 5.57546V5.57546C33.8499 4.51128 35.2994 4.51128 36.2614 4.90727V4.90727C37.1249 5.28417 37.8762 6.22326 37.8762 6.22326V6.22326C37.8762 6.22326 38.858 7.48005 39.0312 7.6999V7.6999C39.5898 8.41016 40.5145 8.13111 40.5145 8.13111V8.13111C40.5145 8.13111 40.8571 8.09099 41.3736 7.77427V7.77427C41.3736 7.77427 45.5808 5.25449 45.5835 5.25367V5.25367C46.9195 4.44408 48.1447 4.2929 48.7709 4.35243V4.35243C50.7323 4.53656 51.3416 5.95187 52.192 6.93923V6.93923C52.6929 7.52001 53.1448 7.84978 53.8359 7.83314V7.83314C54.29 7.82319 54.803 7.53876 54.8786 7.48739V7.48739L59.9167 4.48421C59.9167 4.48421 59.3998 3.68 58.3411 2.42875V2.42875C57.3936 1.31239 56.3871 1.81748 55.5847 2.22799V2.22799C55.2476 2.40021 54.0261 3.23948 52.816 3.82499V3.82499C51.9538 4.24201 50.7152 4.1166 50.0365 3.25025V3.25025C49.9959 3.19757 48.8977 1.82433 48.7823 1.65537V1.65537C48.3391 1.08194 47.4743 0.568359 46.366 0.568359V0.568359C45.6921 0.568359 44.9275 0.758199 44.1127 1.23965" fill="#FFCA06"/>
<defs>
<linearGradient id="paint0_linear_1322_3682" x1="23.1948" y1="8.48971" x2="59.9167" y2="8.48971" gradientUnits="userSpaceOnUse">
<stop stop-color="#FFCA06"/>
<stop offset="0.330844" stop-color="#FBAA18"/>
<stop offset="0.694742" stop-color="#FFC907"/>
<stop offset="1" stop-color="#FAA619"/>
</linearGradient>
</defs>
</svg>
