<svg width="180" height="126" viewBox="0 0 180 126" fill="none" xmlns="http://www.w3.org/2000/svg">
<path d="M176.211 71.9263H8.302V73.202H176.211V71.9263Z" fill="#161616"/>
<path d="M137.091 72.6789V1.99524" stroke="#161616" stroke-linecap="round" stroke-linejoin="round"/>
<path d="M61.2612 72.6789V2.43555" stroke="#161616" stroke-linecap="round" stroke-linejoin="round"/>
<path d="M12.8518 37.9824H170.15" stroke="#161616" stroke-linecap="round" stroke-linejoin="round"/>
<path d="M12.8518 105.328H170.15" stroke="#161616" stroke-linecap="round" stroke-linejoin="round"/>
<path d="M108.953 25.2027L107.91 25.7371" stroke="#161616" stroke-width="0.5" stroke-linecap="round" stroke-linejoin="round"/>
<path d="M126.475 16.2012L110.348 24.484" stroke="#161616" stroke-width="0.5" stroke-linecap="round" stroke-linejoin="round"/>
<path d="M128.601 16.7582L115.683 23.3964" stroke="#161616" stroke-width="0.5" stroke-linecap="round" stroke-linejoin="round"/>
<path d="M134.243 13.8605L130.343 15.8663" stroke="#161616" stroke-width="0.5" stroke-linecap="round" stroke-linejoin="round"/>
<path d="M9.41683 72.0052L7.45337 73.0138" stroke="#161616" stroke-width="0.5" stroke-linecap="round" stroke-linejoin="round"/>
<path d="M42.4841 55.0183L12.0527 70.6505" stroke="#161616" stroke-width="0.5" stroke-linecap="round" stroke-linejoin="round"/>
<path d="M46.4969 56.072L22.1184 68.5996" stroke="#161616" stroke-width="0.5" stroke-linecap="round" stroke-linejoin="round"/>
<path d="M57.1445 50.6003L49.7827 54.3861" stroke="#161616" stroke-width="0.5" stroke-linecap="round" stroke-linejoin="round"/>
<path d="M119.389 70.6731L117.425 71.6816" stroke="#161616" stroke-width="0.5" stroke-linecap="round" stroke-linejoin="round"/>
<path d="M152.456 53.6824L122.024 69.3183" stroke="#161616" stroke-width="0.5" stroke-linecap="round" stroke-linejoin="round"/>
<path d="M156.469 54.7399L132.09 67.2675" stroke="#161616" stroke-width="0.5" stroke-linecap="round" stroke-linejoin="round"/>
<path d="M167.116 49.2682L159.754 53.0502" stroke="#161616" stroke-width="0.5" stroke-linecap="round" stroke-linejoin="round"/>
<path d="M89.9999 125.058C139.682 125.058 179.958 121.728 179.958 117.619C179.958 113.51 139.682 110.179 89.9999 110.179C40.3175 110.179 0.0419922 113.51 0.0419922 117.619C0.0419922 121.728 40.3175 125.058 89.9999 125.058Z" fill="#F27370"/>
<path opacity="0.5" d="M89.9999 125.058C139.682 125.058 179.958 121.728 179.958 117.619C179.958 113.51 139.682 110.179 89.9999 110.179C40.3175 110.179 0.0419922 113.51 0.0419922 117.619C0.0419922 121.728 40.3175 125.058 89.9999 125.058Z" fill="#FAFAFA"/>
<path d="M114.613 63.1806C112.442 64.6859 110.903 66.4884 109.048 68.4152C107.444 69.9917 105.956 71.6481 104.593 73.375C102.467 76.2426 106.958 100.112 106.958 100.112L102.683 101.452C102.683 101.452 93.3086 78.9746 92.4825 73.9207C91.6565 68.8668 98.5444 59.583 101.51 57.2611C104.475 54.9393 114.943 53.434 118.707 56.9864C120.887 59.0411 118.77 60.8851 116.626 61.9839C115.921 62.3415 115.248 62.7414 114.613 63.1806V63.1806Z" fill="#161616" stroke="#161616" stroke-linecap="round" stroke-linejoin="round"/>
<path d="M109.106 105.132C109.106 104.402 107.852 101.843 106.962 100.124C104.344 101.087 102.634 100.993 102.634 100.993C102.074 101.319 101.61 101.748 101.28 102.246C100.828 102.999 97.5197 104.256 95.7142 104.756C93.9087 105.257 92.8571 106.009 93.9087 106.638C94.9604 107.266 102.485 106.89 105.193 106.514C107.901 106.137 109.106 106.261 109.106 105.132Z" fill="#FAFAFA" stroke="#161616" stroke-linecap="round" stroke-linejoin="round"/>
<path d="M101.284 102.235C100.833 102.987 97.5241 104.244 95.7186 104.745C93.9131 105.245 92.8614 105.998 93.9131 106.626C94.9648 107.255 102.489 106.879 105.197 106.502C107.906 106.126 109.106 106.261 109.106 105.132C109.106 104.643 108.538 103.33 107.901 101.998L103.69 102.875L102.634 100.993C102.077 101.316 101.615 101.741 101.284 102.235V102.235Z" fill="#FAFAFA" stroke="#161616" stroke-linecap="round" stroke-linejoin="round"/>
<path d="M68.6186 66.3718H73.6107C73.948 66.3719 74.2817 66.4303 74.5906 66.5433C74.8995 66.6562 75.177 66.8214 75.4056 67.0282C75.6342 67.235 75.8089 67.4791 75.9187 67.745C76.0285 68.011 76.071 68.293 76.0436 68.5733L75.3936 75.2717L68.4832 73.9471L68.6186 66.3718Z" fill="#FAFAFA" stroke="#161616" stroke-miterlimit="10"/>
<path d="M96.8787 85.0748C90.2218 85.4915 83.6435 86.5394 77.2712 88.1982C77.2712 88.1982 81.8842 94.0876 77.2712 101.783L96.5898 109.479L104.665 89.0411L96.8787 85.0748ZM90.3339 93.2107L87.892 99.0738C87.7896 99.3214 87.5787 99.5276 87.3017 99.6511C87.0246 99.7747 86.7018 99.8063 86.3979 99.7398L80.2999 98.419C80.2999 98.419 81.7443 96.3756 81.1666 92.3979L89.0475 91.8184C89.2567 91.8029 89.4673 91.8316 89.6597 91.9019C89.8521 91.9722 90.0202 92.0818 90.1484 92.2206C90.2766 92.3594 90.3608 92.5228 90.3932 92.6959C90.4256 92.8689 90.4052 93.046 90.3339 93.2107V93.2107Z" fill="#FAFAFA"/>
<path opacity="0.31" d="M96.8787 85.0748C90.2218 85.4915 83.6435 86.5394 77.2712 88.1982C77.2712 88.1982 81.8842 94.0876 77.2712 101.783L96.5898 109.479L104.665 89.0411L96.8787 85.0748ZM90.3339 93.2107L87.892 99.0738C87.7896 99.3214 87.5787 99.5276 87.3017 99.6511C87.0246 99.7747 86.7018 99.8063 86.3979 99.7398L80.2999 98.419C80.2999 98.419 81.7443 96.3756 81.1666 92.3979L89.0475 91.8184C89.2567 91.8029 89.4673 91.8316 89.6597 91.9019C89.8521 91.9722 90.0202 92.0818 90.1484 92.2206C90.2766 92.3594 90.3608 92.5228 90.3932 92.6959C90.4256 92.8689 90.4052 93.046 90.3339 93.2107V93.2107Z" fill="#161616" stroke="#161616" stroke-miterlimit="10"/>
<path d="M96.8787 85.0748C90.2218 85.4915 83.6435 86.5394 77.2712 88.1982C77.2712 88.1982 81.8842 94.0876 77.2712 101.783L96.5898 109.479L104.665 89.0411L96.8787 85.0748ZM90.3339 93.2107L87.892 99.0738C87.7896 99.3214 87.5787 99.5276 87.3017 99.6511C87.0246 99.7747 86.7018 99.8063 86.3979 99.7398L80.2999 98.419C80.2999 98.419 81.7443 96.3756 81.1666 92.3979L89.0475 91.8184C89.2567 91.8029 89.4673 91.8316 89.6597 91.9019C89.8521 91.9722 90.0202 92.0818 90.1484 92.2206C90.2766 92.3594 90.3608 92.5228 90.3932 92.6959C90.4256 92.8689 90.4052 93.046 90.3339 93.2107V93.2107Z" stroke="#161616" stroke-miterlimit="10"/>
<path d="M67.1877 71.4144C67.1877 71.4144 103.974 77.4355 133.313 114.691H125.866C125.866 114.691 101.943 84.7737 68.3162 75.7421L67.1877 71.4144Z" fill="#F27370" stroke="#161616" stroke-miterlimit="10"/>
<path d="M81.289 100.84C85.0363 93.0796 80.5288 84.2562 71.2211 81.1319C61.9135 78.0077 51.3303 81.7658 47.583 89.5258C43.8357 97.2858 48.3432 106.109 57.6509 109.233C66.9585 112.358 77.5417 108.6 81.289 100.84Z" fill="#161616" stroke="#161616" stroke-miterlimit="10"/>
<path d="M66.7108 106.744C74.3737 105.696 79.5673 99.6682 78.3111 93.2795C77.0549 86.8907 69.8245 82.5607 62.1616 83.608C54.4986 84.6554 49.305 90.6835 50.5612 97.0723C51.8174 103.461 59.0478 107.791 66.7108 106.744Z" fill="#F27370" stroke="#161616" stroke-miterlimit="10"/>
<path d="M115.209 76.4007L112.51 76.2163L115.566 63.7338L118.265 63.9182L115.209 76.4007Z" fill="#FAFAFA" stroke="#161616" stroke-miterlimit="10"/>
<path d="M117.569 78.6736H114.708V79.7537H117.569V78.6736Z" fill="#FAFAFA" stroke="#161616" stroke-miterlimit="10"/>
<path d="M109.309 74.0186L116.247 74.6094L109.449 110.962C109.449 110.962 121.059 113.088 128.141 115.101V118.288C128.141 118.288 113.841 114.747 98.973 113.803C84.1049 112.858 64.1499 115.575 64.1499 115.575V112.151C64.1499 112.151 80.2864 110.145 93.5972 110.269L109.309 74.0186Z" fill="#FAFAFA" stroke="#161616" stroke-miterlimit="10"/>
<path d="M118.928 77.3076H117.362V80.7735H118.928V77.3076Z" fill="#161616" stroke="#161616" stroke-linecap="round" stroke-linejoin="round"/>
<path d="M66.2467 61.4851L61.1509 114.591L65.6646 114.892L70.7604 61.7862L66.2467 61.4851Z" fill="#FAFAFA" stroke="#161616" stroke-width="1.00319" stroke-miterlimit="10"/>
<path d="M67.7291 53.2558L66.8596 62.0921L69.5588 62.2767L70.4283 53.4404L67.7291 53.2558Z" fill="#FAFAFA" stroke="#161616" stroke-miterlimit="10"/>
<path d="M112.221 64.1139C112.221 64.1139 120.287 65.0284 125.071 64.4564C129.856 63.8844 129.31 60.6932 128.488 59.1014C127.667 57.5096 124.525 58.074 120.968 58.5331C117.412 58.9922 116.595 60.0121 113.588 60.5841C110.582 61.1561 108.122 60.9227 108.393 62.4054C108.664 63.8881 112.221 64.1139 112.221 64.1139Z" fill="#FAFAFA"/>
<path opacity="0.2" d="M112.221 64.1139C112.221 64.1139 120.287 65.0284 125.071 64.4564C129.856 63.8844 129.31 60.6932 128.488 59.1014C127.667 57.5096 124.525 58.074 120.968 58.5331C117.412 58.9922 116.595 60.0121 113.588 60.5841C110.582 61.1561 108.122 60.9227 108.393 62.4054C108.664 63.8881 112.221 64.1139 112.221 64.1139Z" fill="#161616" stroke="#161616" stroke-miterlimit="10"/>
<path d="M112.221 64.1139C112.221 64.1139 120.287 65.0284 125.071 64.4564C129.856 63.8844 129.31 60.6932 128.488 59.1014C127.667 57.5096 124.525 58.074 120.968 58.5331C117.412 58.9922 116.595 60.0121 113.588 60.5841C110.582 61.1561 108.122 60.9227 108.393 62.4054C108.664 63.8881 112.221 64.1139 112.221 64.1139Z" stroke="#161616" stroke-miterlimit="10"/>
<path d="M78.6298 54.9167C73.9536 54.9167 66.3345 54.5592 63.1433 53.2271C58.7335 51.3907 50.2658 44.9481 49.9047 44.6885C49.7295 44.555 49.5876 44.3941 49.487 44.215C49.3864 44.0358 49.3292 43.8419 49.3185 43.6443C49.3078 43.4467 49.3439 43.2492 49.4247 43.0633C49.5056 42.8773 49.6295 42.7064 49.7896 42.5604C49.9496 42.4143 50.1426 42.296 50.3575 42.2122C50.5724 42.1283 50.805 42.0806 51.042 42.0717C51.279 42.0627 51.5158 42.0928 51.7389 42.1602C51.9619 42.2276 52.1669 42.331 52.3421 42.4644C52.4233 42.5284 60.7962 48.8844 64.7592 50.5364C68.1806 51.9627 79.8937 51.9852 81.5682 51.8535C82.0193 51.7808 82.4867 51.8542 82.8751 52.0587C83.2635 52.2633 83.5438 52.5836 83.6589 52.9544C83.774 53.3252 83.7152 53.7186 83.4945 54.0546C83.2738 54.3905 82.9077 54.6437 82.471 54.7625C81.1979 54.9026 79.9131 54.9542 78.6298 54.9167V54.9167Z" fill="#161616"/>
<path d="M103.238 96.3267L103.117 103.537C103.114 103.674 103.144 103.811 103.206 103.938C103.267 104.066 103.358 104.182 103.473 104.28C103.589 104.378 103.726 104.456 103.878 104.509C104.03 104.562 104.193 104.59 104.358 104.591C104.536 104.591 104.712 104.559 104.874 104.498C105.037 104.437 105.181 104.347 105.298 104.235C105.415 104.123 105.502 103.991 105.552 103.848C105.602 103.706 105.615 103.556 105.59 103.409L104.353 96.1009L103.238 96.3267Z" fill="#F27370" stroke="#161616" stroke-miterlimit="10"/>
<path d="M105.807 103.559C105.807 103.303 105.716 103.052 105.544 102.838C105.373 102.625 105.13 102.458 104.846 102.36C104.561 102.262 104.248 102.236 103.946 102.286C103.644 102.336 103.366 102.46 103.148 102.641C102.931 102.823 102.782 103.054 102.722 103.306C102.662 103.558 102.693 103.819 102.811 104.056C102.929 104.294 103.128 104.496 103.384 104.639C103.641 104.782 103.942 104.858 104.25 104.858C104.663 104.858 105.059 104.721 105.351 104.477C105.643 104.234 105.807 103.904 105.807 103.559V103.559Z" fill="#F27370" stroke="#161616" stroke-miterlimit="10"/>
<path d="M108.177 94.7913H99.6819V96.4433H108.177V94.7913Z" fill="#161616" stroke="#161616" stroke-linecap="round" stroke-linejoin="round"/>
<path d="M60.7556 114.951L56.3367 121.115V121.788H64.5245V120.825L65.2512 115.259L60.7556 114.951Z" fill="#FAFAFA" stroke="#161616" stroke-miterlimit="10"/>
<path d="M56.3367 121.115H64.1815" stroke="#161616" stroke-miterlimit="10"/>
<path d="M133.313 114.691L134.374 121.115L134.365 121.788H124.512L124.625 120.825L125.866 114.691H133.313Z" fill="#F27370" stroke="#161616" stroke-miterlimit="10"/>
<path d="M134.374 121.115H124.936" stroke="#161616" stroke-miterlimit="10"/>
<path d="M74.6171 10.7145C74.6171 10.7145 72.0759 12.3967 71.8141 13.8605C71.5523 15.3244 72.0759 17.1533 71.462 18.1769C70.8482 19.2005 69.4444 19.5655 69.8822 20.0585C70.3201 20.5515 71.7238 20.9353 71.7238 20.9353C71.7238 20.9353 72.5995 23.641 73.4797 24.8866C74.3598 26.1322 75.3212 27.5208 76.725 27.5208C77.6196 27.4894 78.4665 27.176 79.0947 26.644C79.0947 26.644 82.7056 28.9847 83.6535 29.6546C84.6014 30.3244 90.6723 21.8799 90.6723 21.8799L87.5127 20.5138C87.7504 20.0428 87.9274 19.5521 88.0408 19.0499C88.3282 17.1414 87.8335 15.2079 86.6371 13.5632C84.7955 10.9366 80.1464 7.86204 74.6171 10.7145Z" fill="#FAFAFA"/>
<path d="M87.5129 20.5176C87.7506 20.0466 87.9276 19.5559 88.041 19.0537C88.3284 17.1451 87.8337 15.2116 86.6373 13.567C85.6517 12.1649 84.2126 11.0225 82.4847 10.2704L77.7453 12.9724C77.7453 12.9724 76.3551 13.8417 76.9328 14.9067C77.5106 15.9717 80.0698 18.4855 80.8823 20.3219C81.6948 22.1583 80.6476 24.578 78.9098 25.643C77.8807 26.2715 76.5311 26.8999 75.9082 27.3703C76.1615 27.4775 76.4411 27.5342 76.7252 27.5359C77.6198 27.5044 78.4667 27.191 79.0949 26.6591C79.0949 26.6591 81.8031 28.4089 83.1572 29.2933L84.2721 29.4852C86.0776 28.2847 90.6951 21.8685 90.6951 21.8685L87.5129 20.5176Z" fill="#F27370"/>
<path opacity="0.5" d="M87.5129 20.5176C87.7506 20.0466 87.9276 19.5559 88.041 19.0537C88.3284 17.1451 87.8337 15.2116 86.6373 13.567C85.6517 12.1649 84.2126 11.0225 82.4847 10.2704L77.7453 12.9724C77.7453 12.9724 76.3551 13.8417 76.9328 14.9067C77.5106 15.9717 80.0698 18.4855 80.8823 20.3219C81.6948 22.1583 80.6476 24.578 78.9098 25.643C77.8807 26.2715 76.5311 26.8999 75.9082 27.3703C76.1615 27.4775 76.4411 27.5342 76.7252 27.5359C77.6198 27.5044 78.4667 27.191 79.0949 26.6591C79.0949 26.6591 81.8031 28.4089 83.1572 29.2933L84.2721 29.4852C86.0776 28.2847 90.6951 21.8685 90.6951 21.8685L87.5129 20.5176Z" fill="#FAFAFA"/>
<path d="M74.6171 10.7145C74.6171 10.7145 72.0759 12.3967 71.8141 13.8605C71.5523 15.3244 72.0759 17.1533 71.462 18.1769C70.8482 19.2005 69.4444 19.5655 69.8822 20.0585C70.3201 20.5515 71.7238 20.9353 71.7238 20.9353C71.7238 20.9353 72.5995 23.641 73.4797 24.8866C74.3598 26.1322 75.3212 27.5208 76.725 27.5208C77.6196 27.4894 78.4665 27.176 79.0947 26.644C79.0947 26.644 82.7056 28.9847 83.6535 29.6546C84.6014 30.3244 90.6723 21.8799 90.6723 21.8799L87.5127 20.5138C87.7504 20.0428 87.9274 19.5521 88.0408 19.0499C88.3282 17.1414 87.8335 15.2079 86.6371 13.5632C84.7955 10.9366 80.1464 7.86204 74.6171 10.7145Z" stroke="#161616" stroke-linecap="round" stroke-linejoin="round"/>
<path d="M72.9563 21.7782C72.9563 21.7782 73.1549 21.0256 73.9493 21.1987" stroke="#161616" stroke-linecap="round" stroke-linejoin="round"/>
<path d="M74.5314 17.6275C74.5314 18.0038 74.3553 18.3237 74.1387 18.3237C73.922 18.3237 73.7415 18.0113 73.7415 17.6275C73.7415 17.2436 73.9175 16.9313 74.1387 16.9313C74.3598 16.9313 74.5314 17.2436 74.5314 17.6275Z" fill="#161616"/>
<path d="M73.218 16.4948C73.218 16.4948 73.7416 15.1776 75.1454 15.9077" stroke="#161616" stroke-width="1.5" stroke-linecap="round" stroke-linejoin="round"/>
<path d="M79.0947 26.6591C79.0947 26.6591 81.6359 25.342 82.2543 23.0013" stroke="#161616" stroke-linecap="round" stroke-linejoin="round"/>
<path d="M95.4794 22.6965C95.4794 22.6965 91.3178 20.5176 87.0704 21.9438C82.823 23.3701 79.2391 32.8984 79.3971 36.4358C79.5551 39.9732 83.2338 45.7572 87.6391 46.6415C92.0445 47.5259 92.9427 46.506 92.9427 46.506C92.9427 46.506 93.191 48.6849 95.1454 49.9757C97.0998 51.2665 97.9213 51.4057 97.9213 51.4057C97.9213 51.4057 95.9669 55.8349 102.417 58.8455C108.867 61.856 118.495 62.2323 122.9 60.8851C127.305 59.5379 129.594 54.2845 129.756 49.2494C129.919 44.2143 125.92 41.6967 124.042 40.2178C122.164 38.7389 115.963 36.8836 115.963 36.8836C115.963 36.8836 110.167 31.1335 105.188 27.6112C102.31 25.5253 99.0269 23.8633 95.4794 22.6965V22.6965Z" fill="#FAFAFA"/>
<path d="M115.574 40.4323C116.053 39.6796 116.233 38.3889 116.152 36.9062L115.963 36.846C115.963 36.846 110.167 31.1335 105.188 27.6111C102.308 25.5333 99.025 23.879 95.4794 22.719C94.6086 22.2991 93.6731 21.9801 92.699 21.7707C91.4216 21.9588 91.3449 22.4481 93.1774 23.7087C96.486 25.9892 97.2398 32.9887 96.3009 34.4601C95.3621 35.9315 92.365 33.2145 90.0585 34.7988C87.752 36.3831 88.5103 44.1202 92.9472 46.5324C96.3628 47.1813 99.8573 47.497 103.36 47.4731C109.467 47.4506 114.071 42.8106 115.574 40.4323Z" fill="#F27370"/>
<path opacity="0.5" d="M115.574 40.4323C116.053 39.6796 116.233 38.3889 116.152 36.9062L115.963 36.846C115.963 36.846 110.167 31.1335 105.188 27.6111C102.308 25.5333 99.025 23.879 95.4794 22.719C94.6086 22.2991 93.6731 21.9801 92.699 21.7707C91.4216 21.9588 91.3449 22.4481 93.1774 23.7087C96.486 25.9892 97.2398 32.9887 96.3009 34.4601C95.3621 35.9315 92.365 33.2145 90.0585 34.7988C87.752 36.3831 88.5103 44.1202 92.9472 46.5324C96.3628 47.1813 99.8573 47.497 103.36 47.4731C109.467 47.4506 114.071 42.8106 115.574 40.4323Z" fill="#FAFAFA"/>
<path d="M95.4794 22.6965C95.4794 22.6965 91.3178 20.5176 87.0704 21.9438C82.823 23.3701 79.2391 32.8984 79.3971 36.4358C79.5551 39.9732 83.2338 45.7572 87.6391 46.6415C92.0445 47.5259 92.9427 46.506 92.9427 46.506C92.9427 46.506 93.191 48.6849 95.1454 49.9757C97.0998 51.2665 97.9213 51.4057 97.9213 51.4057C97.9213 51.4057 95.9669 55.8349 102.417 58.8455C108.867 61.856 118.495 62.2323 122.9 60.8851C127.305 59.5379 129.594 54.2845 129.756 49.2494C129.919 44.2143 125.92 41.6967 124.042 40.2178C122.164 38.7389 115.963 36.8836 115.963 36.8836C115.963 36.8836 110.167 31.1335 105.188 27.6112C102.31 25.5253 99.0269 23.8633 95.4794 22.6965V22.6965Z" stroke="#161616" stroke-linecap="round" stroke-linejoin="round"/>
<path d="M102.169 38.1481C104.115 35.1652 105.654 32.0094 106.755 28.7401C106.231 28.3337 105.709 27.9461 105.189 27.5773C103.981 26.7207 102.707 25.9312 101.375 25.214L100.129 26.6252C100.129 26.6252 95.9536 23.1067 93.1777 22.0868C92.7985 21.9476 90.9614 21.5449 90.5733 21.4584C89.3783 21.4035 88.1833 21.5653 87.0706 21.9326C86.4851 22.1472 85.9537 22.4524 85.5044 22.8319C86.0821 22.7793 87.7612 22.1997 88.4293 22.1997C92.1846 22.1997 94.5634 24.2582 95.6241 25.1425C96.6848 26.0269 98.9055 28.5294 98.9055 28.5294C97.9436 31.0553 95.9525 33.2212 93.277 34.6521C88.7046 37.1696 83.6447 38.4604 81.6045 38.4604C81.0026 38.4379 80.3995 38.4479 79.7991 38.4905C80.8914 41.8774 84.0149 45.9002 87.6348 46.6265C92.0402 47.5108 92.9384 46.491 92.9384 46.491C92.9384 46.491 98.0073 44.5454 102.169 38.1481Z" fill="#F27370"/>
<path opacity="0.15" d="M102.169 38.1481C98.0072 44.5454 92.9473 46.5173 92.9473 46.5173C92.9473 46.5173 92.0446 47.5372 87.6437 46.6528C86.4686 46.3822 85.3923 45.8727 84.5112 45.1701C86.3438 45.2943 90.1263 45.2793 89.9277 43.0439C89.7652 41.279 88.5736 38.9045 87.7385 37.1207C89.2197 36.6074 90.6556 36.0075 92.0356 35.3257C94.3421 35.8036 97.0232 36.3079 99.1537 36.2552C99.1537 36.2552 101.785 36.4622 103.491 35.9918C103.085 36.6842 102.652 37.3954 102.169 38.1481ZM95.6239 25.1651C95.8632 25.3646 96.1656 25.6506 96.4861 25.9742C100.201 28.0176 103.613 31.9388 104.511 34.0914C105.401 32.3576 106.155 30.5777 106.768 28.7627C106.245 28.3563 105.723 27.9687 105.202 27.5999C103.994 26.7432 102.72 25.9538 101.388 25.2366L100.142 26.6478C100.142 26.6478 95.967 23.1292 93.1911 22.1094C92.8119 21.9702 90.9748 21.5675 90.5867 21.481C89.3917 21.4261 88.1967 21.5879 87.084 21.9551C86.4985 22.1698 85.9671 22.475 85.5178 22.8545C86.0955 22.8018 87.7746 22.2223 88.4427 22.2223C92.1845 22.2148 94.5632 24.2732 95.6239 25.1576V25.1651Z" fill="#161616"/>
<path d="M102.169 38.1481C104.115 35.1652 105.654 32.0094 106.755 28.7401C106.231 28.3337 105.709 27.9461 105.189 27.5773C103.981 26.7207 102.707 25.9312 101.375 25.214L100.129 26.6252C100.129 26.6252 95.9536 23.1067 93.1777 22.0868C92.7985 21.9476 90.9614 21.5449 90.5733 21.4584C89.3783 21.4035 88.1833 21.5653 87.0706 21.9326C86.4851 22.1472 85.9537 22.4524 85.5044 22.8319C86.0821 22.7793 87.7612 22.1997 88.4293 22.1997C92.1846 22.1997 94.5634 24.2582 95.6241 25.1425C96.6848 26.0269 98.9055 28.5294 98.9055 28.5294C97.9436 31.0553 95.9525 33.2212 93.277 34.6521C88.7046 37.1696 83.6447 38.4604 81.6045 38.4604C81.0026 38.4379 80.3995 38.4479 79.7991 38.4905C80.8914 41.8774 84.0149 45.9002 87.6348 46.6265C92.0402 47.5108 92.9384 46.491 92.9384 46.491C92.9384 46.491 98.0073 44.5454 102.169 38.1481Z" stroke="#161616" stroke-linecap="round" stroke-linejoin="round"/>
<path d="M88.1764 24.1265C88.1764 24.1265 84.5655 24.5028 82.1597 27.7617C79.7539 31.0206 74.4864 44.3196 74.4864 44.3196C74.4864 44.3196 66.2128 44.696 62.8998 44.0713C59.5867 43.4466 56.1292 42.0617 54.4772 40.9328C52.8252 39.8038 52.2204 38.8028 50.7128 38.927C49.2052 39.0512 47.2553 39.6797 47.1018 40.4323C47.0194 40.8051 46.9696 41.1824 46.9529 41.5612C46.9529 41.5612 48.6229 45.0723 49.9771 45.0723C51.3312 45.0723 51.1777 44.1955 52.0804 43.695C52.9832 43.1945 52.9832 44.3422 55.389 44.4476C55.389 44.4476 63.6806 48.3274 68.3297 50.3219C72.6854 52.2035 77.6595 52.8319 79.465 51.703C81.2705 50.574 89.0927 40.7898 91.9544 32.0103" fill="#FAFAFA"/>
<path d="M89.1062 32.6237C87.4768 33.1919 84.3578 39.5291 81.776 43.8267C79.1942 48.1242 75.2537 50.9428 69.8373 49.2607C67.3818 48.5081 57.3479 45.2981 57.3479 45.2981L57.5284 45.4674C60.3044 46.7544 65.1566 48.9822 68.3207 50.3595C72.6764 52.2411 77.6505 52.8696 79.456 51.7406C80.8868 50.845 86.0911 44.5191 89.6118 37.5647C89.86 36.1122 90.4423 32.1608 89.1062 32.6237Z" fill="#F27370"/>
<path opacity="0.5" d="M89.1062 32.6237C87.4768 33.1919 84.3578 39.5291 81.776 43.8267C79.1942 48.1242 75.2537 50.9428 69.8373 49.2607C67.3818 48.5081 57.3479 45.2981 57.3479 45.2981L57.5284 45.4674C60.3044 46.7544 65.1566 48.9822 68.3207 50.3595C72.6764 52.2411 77.6505 52.8696 79.456 51.7406C80.8868 50.845 86.0911 44.5191 89.6118 37.5647C89.86 36.1122 90.4423 32.1608 89.1062 32.6237Z" fill="#FAFAFA"/>
<path d="M88.1764 24.1265C88.1764 24.1265 84.5655 24.5028 82.1597 27.7617C79.7539 31.0206 74.4864 44.3196 74.4864 44.3196C74.4864 44.3196 66.2128 44.696 62.8998 44.0713C59.5867 43.4466 56.1292 42.0617 54.4772 40.9328C52.8252 39.8038 52.2204 38.8028 50.7128 38.927C49.2052 39.0512 47.2553 39.6797 47.1018 40.4323C47.0194 40.8051 46.9696 41.1824 46.9529 41.5612C46.9529 41.5612 48.6229 45.0723 49.9771 45.0723C51.3312 45.0723 51.1777 44.1955 52.0804 43.695C52.9832 43.1945 52.9832 44.3422 55.389 44.4476C55.389 44.4476 63.6806 48.3274 68.3297 50.3219C72.6854 52.2035 77.6595 52.8319 79.465 51.703C81.2705 50.574 89.0927 40.7898 91.9544 32.0103" stroke="#161616" stroke-linecap="round" stroke-linejoin="round"/>
<path d="M47.2688 42.0655C47.2688 42.0655 47.6931 40.7634 48.474 40.4097C48.9918 40.183 49.5384 40.0051 50.1034 39.8791" stroke="#161616" stroke-linecap="round" stroke-linejoin="round"/>
<path d="M47.9592 43.0703C48.3657 42.4161 48.8909 41.8182 49.5165 41.2978C50.0498 40.9661 50.6929 40.7795 51.358 40.7634" stroke="#161616" stroke-linecap="round" stroke-linejoin="round"/>
<path d="M49.3766 44.7825C49.3766 44.7825 48.8801 43.5407 49.5887 43.01C50.2974 42.4794 52.139 42.0655 52.139 42.0655" stroke="#161616" stroke-linecap="round" stroke-linejoin="round"/>
<path d="M124.042 40.1801C122.16 38.9044 116.753 37.0868 116.039 36.8723C107.143 49.0311 97.926 51.4094 97.926 51.4094C97.926 51.4094 95.967 55.8349 102.417 58.8455C108.867 61.856 118.495 62.2323 122.9 60.8851C127.306 59.5379 130.429 54.6759 130.574 49.6408C130.718 44.6056 126.416 41.7908 124.042 40.1801Z" fill="#161616" stroke="#161616" stroke-linecap="round" stroke-linejoin="round"/>
<path d="M116.915 47.0818C116.915 47.0818 106.985 49.4639 98.26 53.3512C89.535 57.2386 80.3541 66.8986 81.4058 68.4039C82.4575 69.9092 104.277 89.4777 104.277 89.4777C103.717 89.8057 103.254 90.2354 102.923 90.7346C102.471 91.4872 99.1627 92.7403 97.3572 93.2408C95.5517 93.7413 94.4955 94.4977 95.5517 95.1224C96.6079 95.7471 104.128 95.3746 106.836 94.9982C109.544 94.6219 110.745 94.7461 110.745 93.6172C110.745 92.4882 107.752 86.9714 107.752 86.9714L99.6276 68.4039C99.6276 68.4039 122.796 63.6397 126.556 58.4955C130.316 53.3512 129.77 49.2306 129.77 49.2306" fill="#161616"/>
<path d="M116.915 47.0818C116.915 47.0818 106.985 49.4639 98.26 53.3512C89.535 57.2386 80.3541 66.8986 81.4058 68.4039C82.4575 69.9092 104.277 89.4777 104.277 89.4777C103.717 89.8057 103.254 90.2354 102.923 90.7346C102.471 91.4872 99.1627 92.7403 97.3572 93.2408C95.5517 93.7413 94.4955 94.4977 95.5517 95.1224C96.6079 95.7471 104.128 95.3746 106.836 94.9982C109.544 94.6219 110.745 94.7461 110.745 93.6172C110.745 92.4882 107.752 86.9714 107.752 86.9714L99.6276 68.4039C99.6276 68.4039 122.796 63.6397 126.556 58.4955C130.316 53.3512 129.77 49.2306 129.77 49.2306" stroke="#161616" stroke-linecap="round" stroke-linejoin="round"/>
<path d="M99.614 68.4039L94.6489 69.2845" stroke="#FAFAFA" stroke-linecap="round" stroke-linejoin="round"/>
<path d="M110.745 93.6172C110.745 92.8909 109.49 90.3319 108.601 88.6084C105.983 89.5718 104.277 89.4777 104.277 89.4777C103.717 89.8057 103.254 90.2355 102.923 90.7346C102.471 91.4872 99.1628 92.7404 97.3573 93.2409C95.5518 93.7414 94.4956 94.4978 95.5518 95.1224C96.608 95.7471 104.128 95.3746 106.836 94.9983C109.544 94.6219 110.745 94.7461 110.745 93.6172Z" fill="#FAFAFA" stroke="#161616" stroke-linecap="round" stroke-linejoin="round"/>
<path d="M102.923 90.7346C102.471 91.4872 99.1628 92.7403 97.3573 93.2408C95.5518 93.7413 94.4956 94.4977 95.5518 95.1224C96.608 95.7471 104.128 95.3746 106.836 94.9982C109.544 94.6219 110.745 94.7461 110.745 93.6171C110.745 93.1279 110.181 91.8146 109.54 90.4824L105.328 91.3592L104.277 89.4777C103.717 89.8056 103.254 90.2354 102.923 90.7346V90.7346Z" fill="#FAFAFA" stroke="#161616" stroke-linecap="round" stroke-linejoin="round"/>
<path d="M99.2349 53.1631C99.2349 53.1631 112.325 46.9539 120.449 45.2604" stroke="#FAFAFA" stroke-linecap="round" stroke-linejoin="round"/>
<path d="M73.3896 11.8849C73.3896 11.8849 76.7252 11.008 77.0773 11.5951C77.4294 12.1822 75.6735 14.2293 76.6259 14.5191C77.5783 14.8088 79.5237 15.6894 79.6095 16.4007C79.6952 17.1119 80.5122 18.0113 81.1035 17.6463C81.6948 17.2813 81.1893 16.1071 82.7691 16.1071C84.3489 16.1071 84.6964 18.1581 83.911 19.0349C83.1256 19.9117 81.8031 20.4988 82.3312 20.5703C82.8593 20.6418 85.7526 20.7885 87.7702 20.13C89.7879 19.4714 90.5823 15.2378 90.0271 12.5208C89.7587 11.0765 88.941 9.74212 87.6944 8.71438C86.4479 7.68663 84.8384 7.0198 83.1031 6.81211C80.8101 6.64653 77.5783 7.91848 77.5783 7.91848C77.5783 7.91848 74.685 6.74814 72.9292 8.64854C72.4252 9.18021 72.1148 9.82129 72.0348 10.4957C71.9548 11.1701 72.1086 11.8494 72.4779 12.4531L73.3896 11.8849Z" fill="#161616" stroke="#161616" stroke-linecap="round" stroke-linejoin="round"/>
<path d="M89.0927 14.6659C89.041 14.4413 89.05 14.2099 89.1191 13.9885C89.1881 13.7672 89.3155 13.5615 89.4918 13.3863C89.6682 13.2111 89.8892 13.0709 90.1387 12.9759C90.3882 12.8809 90.66 12.8334 90.9343 12.837C93.128 12.6902 95.3216 14.3008 95.4119 15.9077C95.5022 17.5146 94.7935 19.7123 92.162 19.637C89.5305 19.5617 89.0024 18.3237 89.0024 18.3237L89.0927 14.6659Z" fill="#161616" stroke="#161616" stroke-linecap="round" stroke-linejoin="round"/>
</svg>