<svg width="18" height="19" viewBox="0 0 18 19" fill="none" xmlns="http://www.w3.org/2000/svg">
<path d="M16 0.5H2C0.9 0.5 0 1.4 0 2.5V16.5C0 17.6 0.9 18.5 2 18.5H16C17.1 18.5 18 17.6 18 16.5V2.5C18 1.4 17.1 0.5 16 0.5ZM14 16.5H4V16.26C5.42 15.12 7.16 14.5 9 14.5C10.84 14.5 12.58 15.12 14 16.26V16.5ZM16 15.36C14.2 13.59 11.73 12.5 9 12.5C6.27 12.5 3.8 13.59 2 15.36V2.5H16V15.36ZM9 10.5C10.93 10.5 12.5 8.93 12.5 7C12.5 5.07 10.93 3.5 9 3.5C7.07 3.5 5.5 5.07 5.5 7C5.5 8.93 7.07 10.5 9 10.5ZM9 5.5C9.83 5.5 10.5 6.17 10.5 7C10.5 7.83 9.83 8.5 9 8.5C8.17 8.5 7.5 7.83 7.5 7C7.5 6.17 8.17 5.5 9 5.5Z" fill="#737373"/>
</svg>