<svg width="21" height="21" viewBox="0 0 21 21" fill="none" xmlns="http://www.w3.org/2000/svg">
<path d="M10.5 12.5C10.6978 12.5 10.8911 12.4414 11.0556 12.3315C11.22 12.2216 11.3482 12.0654 11.4239 11.8827C11.4996 11.7 11.5194 11.4989 11.4808 11.3049C11.4422 11.1109 11.347 10.9327 11.2071 10.7929C11.0673 10.653 10.8891 10.5578 10.6951 10.5192C10.5011 10.4806 10.3 10.5004 10.1173 10.5761C9.93459 10.6518 9.77841 10.78 9.66853 10.9444C9.55865 11.1089 9.5 11.3022 9.5 11.5C9.5 11.7652 9.60536 12.0196 9.79289 12.2071C9.98043 12.3946 10.2348 12.5 10.5 12.5ZM15.5 12.5C15.6978 12.5 15.8911 12.4414 16.0556 12.3315C16.22 12.2216 16.3482 12.0654 16.4239 11.8827C16.4996 11.7 16.5194 11.4989 16.4808 11.3049C16.4422 11.1109 16.347 10.9327 16.2071 10.7929C16.0673 10.653 15.8891 10.5578 15.6951 10.5192C15.5011 10.4806 15.3 10.5004 15.1173 10.5761C14.9346 10.6518 14.7784 10.78 14.6685 10.9444C14.5586 11.1089 14.5 11.3022 14.5 11.5C14.5 11.7652 14.6054 12.0196 14.7929 12.2071C14.9804 12.3946 15.2348 12.5 15.5 12.5ZM10.5 16.5C10.6978 16.5 10.8911 16.4414 11.0556 16.3315C11.22 16.2216 11.3482 16.0654 11.4239 15.8827C11.4996 15.7 11.5194 15.4989 11.4808 15.3049C11.4422 15.1109 11.347 14.9327 11.2071 14.7929C11.0673 14.653 10.8891 14.5578 10.6951 14.5192C10.5011 14.4806 10.3 14.5004 10.1173 14.5761C9.93459 14.6518 9.77841 14.78 9.66853 14.9444C9.55865 15.1089 9.5 15.3022 9.5 15.5C9.5 15.7652 9.60536 16.0196 9.79289 16.2071C9.98043 16.3946 10.2348 16.5 10.5 16.5ZM15.5 16.5C15.6978 16.5 15.8911 16.4414 16.0556 16.3315C16.22 16.2216 16.3482 16.0654 16.4239 15.8827C16.4996 15.7 16.5194 15.4989 16.4808 15.3049C16.4422 15.1109 16.347 14.9327 16.2071 14.7929C16.0673 14.653 15.8891 14.5578 15.6951 14.5192C15.5011 14.4806 15.3 14.5004 15.1173 14.5761C14.9346 14.6518 14.7784 14.78 14.6685 14.9444C14.5586 15.1089 14.5 15.3022 14.5 15.5C14.5 15.7652 14.6054 16.0196 14.7929 16.2071C14.9804 16.3946 15.2348 16.5 15.5 16.5ZM5.5 12.5C5.69778 12.5 5.89112 12.4414 6.05557 12.3315C6.22002 12.2216 6.34819 12.0654 6.42388 11.8827C6.49957 11.7 6.51937 11.4989 6.48079 11.3049C6.4422 11.1109 6.34696 10.9327 6.20711 10.7929C6.06725 10.653 5.88907 10.5578 5.69509 10.5192C5.50111 10.4806 5.30004 10.5004 5.11732 10.5761C4.93459 10.6518 4.77841 10.78 4.66853 10.9444C4.55865 11.1089 4.5 11.3022 4.5 11.5C4.5 11.7652 4.60536 12.0196 4.79289 12.2071C4.98043 12.3946 5.23478 12.5 5.5 12.5ZM17.5 2.5H16.5V1.5C16.5 1.23478 16.3946 0.98043 16.2071 0.792893C16.0196 0.605357 15.7652 0.5 15.5 0.5C15.2348 0.5 14.9804 0.605357 14.7929 0.792893C14.6054 0.98043 14.5 1.23478 14.5 1.5V2.5H6.5V1.5C6.5 1.23478 6.39464 0.98043 6.20711 0.792893C6.01957 0.605357 5.76522 0.5 5.5 0.5C5.23478 0.5 4.98043 0.605357 4.79289 0.792893C4.60536 0.98043 4.5 1.23478 4.5 1.5V2.5H3.5C2.70435 2.5 1.94129 2.81607 1.37868 3.37868C0.816071 3.94129 0.5 4.70435 0.5 5.5V17.5C0.5 18.2956 0.816071 19.0587 1.37868 19.6213C1.94129 20.1839 2.70435 20.5 3.5 20.5H17.5C18.2956 20.5 19.0587 20.1839 19.6213 19.6213C20.1839 19.0587 20.5 18.2956 20.5 17.5V5.5C20.5 4.70435 20.1839 3.94129 19.6213 3.37868C19.0587 2.81607 18.2956 2.5 17.5 2.5ZM18.5 17.5C18.5 17.7652 18.3946 18.0196 18.2071 18.2071C18.0196 18.3946 17.7652 18.5 17.5 18.5H3.5C3.23478 18.5 2.98043 18.3946 2.79289 18.2071C2.60536 18.0196 2.5 17.7652 2.5 17.5V8.5H18.5V17.5ZM18.5 6.5H2.5V5.5C2.5 5.23478 2.60536 4.98043 2.79289 4.79289C2.98043 4.60536 3.23478 4.5 3.5 4.5H17.5C17.7652 4.5 18.0196 4.60536 18.2071 4.79289C18.3946 4.98043 18.5 5.23478 18.5 5.5V6.5ZM5.5 16.5C5.69778 16.5 5.89112 16.4414 6.05557 16.3315C6.22002 16.2216 6.34819 16.0654 6.42388 15.8827C6.49957 15.7 6.51937 15.4989 6.48079 15.3049C6.4422 15.1109 6.34696 14.9327 6.20711 14.7929C6.06725 14.653 5.88907 14.5578 5.69509 14.5192C5.50111 14.4806 5.30004 14.5004 5.11732 14.5761C4.93459 14.6518 4.77841 14.78 4.66853 14.9444C4.55865 15.1089 4.5 15.3022 4.5 15.5C4.5 15.7652 4.60536 16.0196 4.79289 16.2071C4.98043 16.3946 5.23478 16.5 5.5 16.5Z" fill="#737373"/>
</svg>