<svg width="12" height="15" viewBox="0 0 12 15" fill="none" xmlns="http://www.w3.org/2000/svg">
<path d="M11.4545 6.68182H10.2955V2.86363C10.2955 1.65852 9.31875 0.681816 8.11364 0.681816H3.88636C2.68125 0.681816 1.70455 1.65852 1.70455 2.86363V6.68182H0.545455C0.24375 6.68182 0 6.92557 0 7.22727V13.7727C0 14.0744 0.24375 14.3182 0.545455 14.3182H11.4545C11.7563 14.3182 12 14.0744 12 13.7727V7.22727C12 6.92557 11.7563 6.68182 11.4545 6.68182ZM2.93182 2.86363C2.93182 2.33693 3.35966 1.90909 3.88636 1.90909H8.11364C8.64034 1.90909 9.06818 2.33693 9.06818 2.86363V6.68182H2.93182V2.86363ZM10.7727 13.0909H1.22727V7.90909H10.7727V13.0909ZM5.52273 10.7216V11.625C5.52273 11.7 5.58409 11.7614 5.65909 11.7614H6.34091C6.41591 11.7614 6.47727 11.7 6.47727 11.625V10.7216C6.61798 10.6206 6.723 10.4775 6.77722 10.313C6.83145 10.1485 6.83207 9.97102 6.77901 9.80614C6.72595 9.64125 6.62194 9.49745 6.48195 9.39544C6.34196 9.29343 6.17321 9.23847 6 9.23847C5.82679 9.23847 5.65804 9.29343 5.51805 9.39544C5.37806 9.49745 5.27405 9.64125 5.22099 9.80614C5.16793 9.97102 5.16856 10.1485 5.22278 10.313C5.277 10.4775 5.38202 10.6206 5.52273 10.7216Z" fill="#F27370"/>
</svg>